<svg width="225" height="212" viewBox="0 0 225 212" fill="none" xmlns="http://www.w3.org/2000/svg">
<path d="M11 21.2417C11.5024 20.0042 12.9143 19.4077 14.1518 19.9102C15.3893 20.4126 15.9857 21.8245 15.4833 23.062" stroke="#222221" stroke-linecap="round" stroke-linejoin="round"/>
<path d="M51.4561 15.9854C50.8031 16.5356 49.8313 16.4525 49.2811 15.7995C48.7309 15.1465 48.814 14.1746 49.467 13.6245C50.12 13.0743 51.0918 13.1573 51.642 13.8103C52.1922 14.4634 52.1092 15.4352 51.4561 15.9854Z" stroke="#222221" stroke-linecap="round" stroke-linejoin="round"/>
<path d="M68.1965 53.402C68.6245 53.9878 69.4464 54.1157 70.0323 53.6877C70.6181 53.2597 70.746 52.4378 70.318 51.852C69.89 51.2662 69.0681 51.1382 68.4822 51.5663C67.8964 51.9943 67.7685 52.8162 68.1965 53.402Z" stroke="#222221" stroke-linecap="round" stroke-linejoin="round"/>
<path d="M197.907 24.8877C197.205 25.5225 196.122 25.4676 195.488 24.7649C194.853 24.0623 194.908 22.9799 195.61 22.3451" stroke="#222221" stroke-linecap="round" stroke-linejoin="round"/>
<path d="M186.655 57.4327C187.505 58.1905 187.58 59.4966 186.822 60.3463C186.064 61.196 184.758 61.2707 183.908 60.5129C183.059 59.7551 182.984 58.449 183.742 57.5993C184.499 56.7496 185.806 56.6749 186.655 57.4327Z" stroke="#222221" stroke-linecap="round" stroke-linejoin="round"/>
<path d="M19.5498 124.557C18.5615 125.122 17.2992 124.779 16.734 123.79C16.1687 122.802 16.5124 121.54 17.5007 120.975C18.489 120.409 19.7513 120.753 20.3165 121.741C20.8818 122.73 20.5381 123.992 19.5498 124.557Z" stroke="#222221" stroke-linecap="round" stroke-linejoin="round"/>
<path d="M199.262 83.0138C199.943 83.5732 200.042 84.5825 199.483 85.2634C198.923 85.9443 197.914 86.0431 197.233 85.4837C196.552 84.9242 196.453 83.915 197.013 83.234C197.572 82.5531 198.581 82.4543 199.262 83.0138Z" stroke="#222221" stroke-linecap="round" stroke-linejoin="round"/>
<path d="M218.846 99.8973C219.959 98.7578 221.789 98.7323 222.933 99.8491C224.076 100.966 224.098 102.793 222.981 103.936" stroke="#222221" stroke-linecap="round" stroke-linejoin="round"/>
<path d="M135.219 2.70797C136.525 1.1174 138.871 0.890897 140.457 2.19354C142.044 3.49618 142.275 5.84588 140.972 7.43222C139.669 9.01856 137.32 9.24931 135.733 7.94667" stroke="#222221" stroke-linecap="round" stroke-linejoin="round"/>
<path d="M153.122 7.41308C154.083 7.89029 154.48 9.05934 154.001 10.0251C153.521 10.9909 152.355 11.3833 151.389 10.9036C150.423 10.424 150.031 9.25738 150.51 8.2916C150.99 7.32582 152.157 6.93344 153.122 7.41308Z" stroke="#222221" stroke-linecap="round" stroke-linejoin="round"/>
<path d="M210.08 124.627C211.318 125.556 213.075 125.306 214.004 124.069C214.934 122.831 214.684 121.074 213.446 120.145C212.208 119.215 210.452 119.465 209.522 120.703C208.593 121.94 208.843 123.697 210.08 124.627Z" stroke="#222221" stroke-linecap="round" stroke-linejoin="round"/>
<path d="M22.0169 51.9834C21.4549 50.3533 22.3196 48.5788 23.9497 48.0168C25.5797 47.4549 27.3542 48.3196 27.9162 49.9497C28.4781 51.5797 27.6135 53.3542 25.9834 53.9162" stroke="#222221" stroke-linecap="round" stroke-linejoin="round"/>
<path d="M165.494 33.4572L173.368 38.2286L164.607 36.3971L167.303 42.8878L162.817 37.4234L158.001 40.6701L160.442 35.8777L154.901 34.2861L161.292 33.0584L157.9 27.8725L162.634 30.3358L165.986 25.3268L164.37 30.6825L171.582 31.3775L165.494 33.4572Z" fill="#F0BE4D"/>
<path d="M11.5254 88.5105L20.1015 84.401L13.9704 90.539L21.0103 94.4601L13.4297 93.9696L13.6364 101.157L9.98622 94.5856L4.52658 97.5148L7.82059 92.1933L0.700259 89.4857L7.61265 89.1375L7.13653 83.7175L9.56876 87.8682L12.5962 80.175L11.5254 88.5105Z" fill="#F0BE4D"/>
<path d="M208.775 141.28L212.043 134.595L211.16 141.898L217.93 139.42L212.682 143.858L216.978 149.063L210.58 146.825L208.76 151.409L208.18 146.509L202.015 149.663L205.8 144.214L199.86 142.083L206.149 141.901L205.968 136.33L208.775 141.28Z" fill="#F0BE4D"/>
<path d="M146.224 50.5918C145.413 50 144.322 49.775 143.363 49.5549C138.962 48.5572 134.32 48.9778 130.021 50.2494C129.796 50.3179 129.571 50.3961 129.346 50.4695C131.953 48.2588 134.266 45.7449 135.998 42.7419C136.858 41.2551 137.817 39.3526 137.196 37.5968C136.413 35.391 133.919 35.7089 132.09 36.1735C128.138 37.1762 124.729 39.8025 122.24 42.9718C119.041 47.041 117.227 51.9514 115.608 56.8129C115.451 57.2775 115.662 57.6297 115.984 57.8155C114.903 57.9378 114.938 59.6741 116.102 59.6692C120.919 59.6643 125.737 59.4051 130.53 58.8866C132.892 58.6323 135.254 58.3144 137.602 57.9427C139.583 57.6248 141.676 57.3998 143.564 56.6955C145.163 56.0989 146.787 55.018 147.178 53.2377C147.408 52.2008 147.095 51.2276 146.229 50.5966L146.224 50.5918ZM130.618 38.6287C131.415 38.2864 132.256 38.0321 133.107 37.8511C133.704 37.7239 134.834 37.3913 135.303 37.9587C135.66 38.394 135.513 39.1472 135.386 39.6411C135.186 40.4188 134.785 41.1133 134.389 41.8029C132.554 44.9771 129.962 47.6181 127.111 49.8924C125.037 51.5504 122.817 53.0127 120.547 54.3968C119.643 54.9006 118.743 55.4239 117.858 55.9619C120.234 49.0756 123.526 41.6562 130.618 38.6287ZM144.65 53.9567C144.146 54.436 143.481 54.7441 142.83 54.9691C141.069 55.5755 139.157 55.8005 137.323 56.0989C135.176 56.4461 133.024 56.7395 130.862 56.9792C126.769 57.4292 122.655 57.6835 118.542 57.7617C119.511 57.1944 120.484 56.6173 121.452 56.0255C127.233 52.8122 133.538 50.3766 140.258 50.9488C141.241 51.0319 142.214 51.1933 143.177 51.4281C143.735 51.565 145.075 51.7215 145.359 52.3378C145.598 52.866 145.002 53.6241 144.65 53.9567Z" fill="#9EB9E8"/>
<path d="M120.777 53.81C120.254 52.4014 115.06 42.292 116.38 41.6611C116.811 41.4557 117.319 41.6073 117.789 41.6807C120.019 42.0182 122.186 40.2428 122.871 38.0908C123.555 35.9388 123.032 33.5717 122.098 31.5175C121.159 29.4633 119.824 27.6195 118.767 25.624C117.099 22.4792 116.126 18.9823 114.263 15.9499C111.211 10.9808 104.628 6.25137 98.6412 5.9139C98.1913 5.88945 97.6239 6.02639 97.4283 6.37364C97.5799 5.47861 96.6115 4.56892 95.648 4.5787C94.5867 4.59337 93.6819 5.327 92.9434 6.08997C93.4178 5.26831 92.6402 4.15809 91.7011 4.02114C90.7621 3.8842 89.8524 4.43197 89.1823 5.10202C88.5123 5.77207 87.9841 6.58395 87.2602 7.1953C87.1966 6.29539 86.15 5.73294 85.255 5.84543C84.36 5.95792 83.6019 6.53504 82.8927 7.09259C79.9288 9.41575 77.146 11.959 75.4439 15.3337C71.6535 22.846 68.3669 30.6078 65.6084 38.5554C65.4275 39.0788 65.2465 39.6119 65.2563 40.1645C65.2661 40.7808 65.5204 41.353 65.9166 41.8225C66.0437 42.2187 66.2491 42.5904 66.5866 42.9034C67.2811 43.5539 68.181 43.8033 69.1005 43.9451C70.377 44.1457 71.7709 44.2679 72.9105 43.5343C72.9594 45.1923 72.5241 46.684 72.1475 48.2736C71.7416 49.9707 71.3405 51.6727 70.9395 53.3747C70.1374 56.7787 69.3402 60.1779 68.5478 63.5868C66.9632 70.3997 65.3932 77.2225 63.8331 84.0403C62.268 90.8631 60.7127 97.6858 59.1525 104.509C57.5923 111.326 56.0224 118.149 54.4377 124.962C54.4084 125.099 54.3742 125.236 54.3448 125.373C52.3298 134.03 50.3099 142.755 50.0506 151.637C49.7914 160.519 51.425 169.679 56.218 177.162C56.8929 178.219 57.6559 179.26 58.7026 179.945C60.0916 180.855 61.818 181.041 63.4662 181.202C84.8833 183.29 106.907 185.33 127.59 179.392C130.393 178.59 133.268 177.568 135.269 175.445C138.159 172.379 138.546 167.786 138.688 163.575C139.92 126.287 133.772 88.7845 120.792 53.81H120.777Z" fill="#FFD4D4"/>
<path d="M128.774 78.8316C127.316 73.4419 125.707 68.0962 123.937 62.8043C114.312 65.998 104.212 67.925 94.0781 68.3359C85.3724 68.688 76.4759 67.8859 68.1615 65.1911C66.7138 71.4171 65.2808 77.6529 63.8527 83.8888C66.122 83.9768 68.4012 84.4121 70.5678 84.9794C73.8593 85.8402 77.0922 87.0874 80.0756 88.7356C83.0248 90.3643 85.6072 92.5162 87.182 95.5583C90.0676 101.129 88.3069 110.104 88.3118 116.232C88.3118 123.95 88.3118 131.667 88.3118 139.385C88.3118 151.133 88.0722 163.698 81.3815 173.352C80.5598 174.541 79.6012 175.7 78.3002 176.331C76.0651 177.412 73.2773 176.619 71.3992 175C69.5212 173.382 68.3767 171.083 67.4083 168.799C63.569 159.765 61.6469 149.92 61.8034 140.104C61.8914 134.69 62.4539 128.733 59.2161 124.39C58.6635 123.646 54.159 127.677 53.7775 128.205C52.3103 130.249 52.6673 131.242 52.3738 133.531C51.5962 139.6 50.2023 145.479 50.0262 151.637C49.767 160.519 51.4006 169.679 56.1936 177.162C56.8685 178.219 57.6315 179.26 58.6781 179.945C60.0671 180.855 61.7936 181.041 63.4418 181.202C84.8589 183.29 106.882 185.33 127.566 179.392C130.368 178.59 133.244 177.568 135.244 175.445C137.377 173.181 140.962 165.654 137.881 163.204C136.677 162.245 135.068 161.966 133.533 161.883C127.17 161.541 120.983 163.981 114.625 164.436C111.573 164.656 108.281 164.329 105.909 162.397C103.067 160.083 102.285 156.132 101.781 152.498C99.0766 133.003 99.0472 113.136 101.683 93.6265C102.368 88.5693 111.098 84.9599 115.485 82.9937C119.716 81.101 124.201 79.7267 128.759 78.8219L128.774 78.8316Z" fill="#9EB9E8"/>
<path d="M137.89 163.204C136.687 162.245 135.078 161.966 133.542 161.883C127.179 161.541 120.992 163.981 114.634 164.436C111.582 164.656 108.291 164.329 105.919 162.397C103.077 160.083 102.295 156.132 101.791 152.498C99.6439 137.018 99.1891 121.314 100.412 105.736C100.06 105.306 99.6781 104.905 99.2673 104.543C98.1033 103.516 96.7387 103.095 95.2617 102.719C93.8825 102.371 92.4935 101.951 91.4468 100.933C89.5345 99.0749 89.2557 96.067 88.571 93.6265C88.2482 92.4674 87.8374 91.2789 87.0695 90.3252C86.2625 89.3176 85.0741 88.6427 83.8171 88.3884C82.7167 88.1634 81.401 88.3297 80.2957 88.853C83.152 90.467 85.6463 92.5798 87.182 95.5486C90.0676 101.119 88.3069 110.094 88.3118 116.222C88.3118 123.94 88.3118 131.658 88.3118 139.375C88.3118 151.123 88.0722 163.688 81.3815 173.342C80.5598 174.531 79.6012 175.69 78.3002 176.321C76.0651 177.402 73.2773 176.61 71.3992 174.991C69.5212 173.372 68.3767 171.073 67.4083 168.789C63.569 159.756 61.6469 149.91 61.8034 140.094C61.8914 134.68 62.4539 128.723 59.2161 124.38C58.6635 123.637 54.159 127.667 53.7775 128.195C52.3103 130.239 52.6673 131.232 52.3738 133.521C51.5962 139.591 50.2023 145.47 50.0262 151.627C49.767 160.509 51.4006 169.669 56.1936 177.152C56.8685 178.209 57.6315 179.251 58.6781 179.935C60.0671 180.845 61.7936 181.031 63.4418 181.192C84.8589 183.281 106.882 185.32 127.566 179.383C130.368 178.581 133.244 177.558 135.244 175.436C137.377 173.171 140.962 165.644 137.881 163.194L137.89 163.204Z" fill="#222221"/>
<path d="M90.3911 26.1034C90.4791 25.6681 90.7481 25.2915 90.9486 24.8954C91.5893 23.6286 91.5502 22.1369 91.8681 20.7528C92.005 20.1512 92.3767 19.4469 92.993 19.4812C93.5212 19.5105 93.8293 20.073 94.0445 20.5572C94.245 21.0169 94.4456 21.4864 94.5287 21.9853C94.5825 22.313 94.5825 22.6602 94.6999 22.9684C94.7928 23.208 94.9493 23.4134 95.1058 23.6139C95.5264 24.1568 95.9666 24.7144 96.1182 25.3795C96.2699 26.0447 96.0351 26.8566 95.4091 27.1354C95.2232 27.2185 95.0178 27.2478 94.8173 27.2772C94.1766 27.3701 93.5359 27.463 92.8952 27.5609C92.5773 27.6098 92.2496 27.6538 91.9366 27.5658C91.198 27.3603 90.2052 27.0375 90.3959 26.0936L90.3911 26.1034Z" fill="#E6A8A8"/>
<path d="M93.4332 26.881C93.5262 28.2602 93.2621 30.0307 92.9882 31.3903C92.323 34.6966 90.44 37.7191 86.9871 38.575C86.6203 38.6679 86.2486 38.7315 85.872 38.7364C84.6297 38.7609 83.4657 38.1788 82.3604 37.6115" stroke="#222221" stroke-linecap="round" stroke-linejoin="round"/>
<path d="M103.714 38.0859C101.244 38.9614 98.3728 38.6239 96.1719 37.1958C93.2716 35.3128 93.0173 31.7278 93.3743 28.5879" stroke="#222221" stroke-linecap="round" stroke-linejoin="round"/>
<path d="M90.3025 27.2086C90.4198 26.6119 91.1437 26.3821 91.7452 26.3087C92.6354 26.2011 93.5353 26.1816 94.4254 26.25C94.8607 26.2843 95.3156 26.3429 95.6873 26.5777C96.059 26.8125 96.3231 27.2673 96.2057 27.6928C95.922 28.7297 93.995 29.4878 93.0169 29.3753C92.1463 29.2775 90.0824 28.3091 90.3025 27.2086Z" fill="#222221"/>
<path d="M83.1963 18.5225C79.6553 22.2786 77.1659 27.013 76.0801 32.0603C75.2487 35.9241 75.1753 40.096 73.0918 43.4609" stroke="#222221" stroke-linecap="round" stroke-linejoin="round"/>
<path d="M116.508 41.6464C114.625 40.8052 113.451 38.9222 112.561 37.0637C111.499 34.8432 110.683 32.5103 110.13 30.1187C109.46 27.2331 109.162 24.2301 108.037 21.4912C106.912 18.7474 104.716 16.2042 101.796 15.6956" stroke="#222221" stroke-linecap="round" stroke-linejoin="round"/>
<path d="M87.3584 23.7754C87.3143 23.6287 87.2459 23.5211 87.1432 23.4086C87.1138 23.3743 87.0796 23.3548 87.0404 23.3254C87.0062 23.2961 86.9671 23.2667 86.928 23.2423C86.747 23.1396 86.5905 23.1151 86.39 23.0907C86.2481 23.076 86.1112 23.1004 85.9742 23.12C85.8324 23.1445 85.6955 23.2031 85.5683 23.2667C85.5292 23.2863 85.4852 23.3107 85.4509 23.3401C85.3678 23.3988 85.2846 23.4624 85.2113 23.5357C85.0841 23.6629 85.0059 23.8536 85.0059 24.0297C85.0059 24.2058 85.0841 24.4063 85.2113 24.5237C85.3433 24.6459 85.5194 24.7389 85.7052 24.7291C85.7444 24.7291 85.7737 24.7144 85.8128 24.7095C85.8275 24.7193 85.8422 24.7242 85.8569 24.734C85.94 24.7829 86.0329 24.8171 86.1259 24.8563C86.209 24.8905 86.3068 24.8954 86.3949 24.9052C86.4291 24.9052 86.4584 24.9052 86.4878 24.9052C86.5758 24.8954 86.6687 24.8905 86.7519 24.8611C86.8301 24.8367 86.9133 24.8025 86.9818 24.7584C87.0356 24.7193 87.0991 24.6802 87.148 24.6264C87.148 24.6264 87.1578 24.6166 87.1627 24.6117C87.197 24.5677 87.2508 24.5041 87.2801 24.4601C87.3437 24.3525 87.3681 24.2596 87.3877 24.1422C87.4024 24.015 87.4073 23.9074 87.3681 23.7803L87.3584 23.7754Z" fill="#222221"/>
<path d="M100.725 23.4477C100.671 23.2472 100.539 23.0662 100.358 22.9586C100.221 22.8755 100.079 22.8461 99.9276 22.8363C99.8298 22.8314 99.7271 22.851 99.6292 22.8706C99.551 22.8852 99.4727 22.8999 99.3994 22.9244C99.2673 22.9586 99.145 23.0124 99.0179 23.0662C98.9494 23.0955 98.8809 23.1298 98.8174 23.1787C98.6462 23.301 98.5288 23.4086 98.4114 23.5846C98.294 23.7607 98.2647 23.9417 98.2402 24.1422C98.2402 24.24 98.2549 24.328 98.2989 24.4112C98.3283 24.4992 98.3772 24.5726 98.4456 24.6362C98.5679 24.7584 98.7684 24.8514 98.9396 24.8416C99.0521 24.8367 99.1695 24.8073 99.2722 24.7535C99.3407 24.7535 99.4091 24.7535 99.4825 24.7291C99.5901 24.7144 99.6977 24.69 99.8004 24.6557C99.952 24.6068 100.104 24.5432 100.241 24.465C100.285 24.4405 100.319 24.4112 100.358 24.3818C100.397 24.3525 100.436 24.3231 100.47 24.2889C100.588 24.1715 100.651 24.0493 100.71 23.8976C100.735 23.8292 100.744 23.746 100.749 23.6727C100.749 23.6629 100.749 23.6531 100.749 23.6482C100.749 23.5993 100.735 23.4966 100.725 23.4477Z" fill="#222221"/>
<path d="M85.387 21.3251C86.4336 21.1295 87.7395 20.3763 88.7959 20.6208C89.1627 20.704 89.5197 20.9485 89.6322 21.3104C89.7545 21.7017 89.5637 22.1272 89.2898 22.4256C88.7421 23.0174 87.9008 23.2472 87.0939 23.2912C86.2869 23.3304 85.4799 23.213 84.6729 23.2423C84.2963 23.257 83.9099 23.301 83.5431 23.2179C83.1763 23.1298 82.8144 22.8755 82.741 22.5038C82.653 22.0636 83.01 21.6381 83.4257 21.4816C84.042 21.2518 84.7414 21.4523 85.3821 21.33L85.387 21.3251Z" fill="#D36A42"/>
<path d="M99.9812 22.7825C100.969 22.9439 101.884 22.9145 102.867 22.7727C103.371 22.6993 104.623 22.0929 103.688 21.5402C103.517 21.4375 103.312 21.4033 103.116 21.369C102.759 21.3054 102.402 21.2468 102.045 21.1832C101.409 21.0756 97.2081 18.7915 97.4966 21.2272C97.614 22.2396 99.1644 22.6504 99.9812 22.7825Z" fill="#D36A42"/>
<path d="M106.667 87.1754C103.889 88.3052 101.796 90.9805 101.37 93.9492" stroke="#222221" stroke-linecap="round" stroke-linejoin="round"/>
<path d="M100.842 99.0161C99.7069 109.928 99.3793 120.927 99.8684 131.888" stroke="#222221" stroke-linecap="round" stroke-linejoin="round"/>
<path d="M67.335 68.2087C74.2506 71.8279 82.4134 71.867 90.2192 71.823C102.29 71.7545 115.133 71.4513 125.184 64.7704" stroke="#222221" stroke-linecap="round" stroke-linejoin="round"/>
<path d="M68.9833 109.38C69.3012 110.255 69.7756 111.062 70.1522 111.918C70.9201 113.659 71.2478 115.557 71.5706 117.435L73.1014 126.312C73.4829 128.523 73.7372 131.144 72.1037 132.68C71.2037 133.526 69.9174 133.82 68.6849 133.956C66.5379 134.191 64.2685 134.015 62.3855 132.959C58.1403 130.587 59.006 125.926 59.3092 121.915C59.72 116.535 59.8081 111.141 60.1602 105.761C60.258 104.298 60.3705 102.797 61.021 101.481C61.6666 100.166 62.9822 99.07 64.4446 99.1287C66.4449 99.2021 67.785 101.3 68.1518 103.271C68.5187 105.242 68.2888 107.321 68.9197 109.219C68.9393 109.272 68.9588 109.331 68.9784 109.385L68.9833 109.38Z" fill="#222221"/>
<mask id="mask0_177_8142" style="mask-type:luminance" maskUnits="userSpaceOnUse" x="50" y="4" width="89" height="180">
<path d="M66.2981 42.2285C66.66 42.5464 67.0855 42.8007 67.5355 42.9621C68.4696 43.3093 69.4771 43.3534 70.4651 43.3338C71.2476 43.3191 72.3383 43.4805 73.0279 43.0648C72.842 46.4444 71.7905 49.7457 71.0129 53.0323C70.2108 56.4315 69.4135 59.8306 68.6212 63.2347C67.0366 70.0427 65.4666 76.8557 63.9064 83.6686C62.3463 90.4865 60.791 97.3043 59.2308 104.122C57.6706 110.935 56.1055 117.748 54.5209 124.556C54.4573 124.83 54.3937 125.099 54.3302 125.373C52.3151 134.03 50.2952 142.755 50.036 151.637C49.7768 160.519 51.4103 169.679 56.2034 177.162C56.8783 178.219 57.6413 179.26 58.6879 179.945C60.0769 180.855 61.8034 181.041 63.4516 181.202C84.8686 183.29 106.892 185.33 127.576 179.392C130.378 178.59 133.254 177.568 135.254 175.445C138.145 172.379 138.531 167.786 138.673 163.575C139.905 126.287 133.758 88.7845 120.777 53.81C120.254 52.4014 115.06 42.292 116.38 41.6611C116.811 41.4557 117.319 41.6073 117.789 41.6807C120.019 42.0182 122.186 40.2428 122.871 38.0908C123.555 35.9388 123.032 33.5717 122.098 31.5175C121.159 29.4633 119.824 27.6195 118.767 25.624C117.099 22.4792 116.126 18.9823 114.263 15.9499C111.211 10.9808 104.628 6.25137 98.6413 5.9139C98.0886 5.88456 97.355 6.08997 97.3501 6.64264C97.7805 5.67425 96.7045 4.56892 95.6481 4.5787C94.5867 4.59337 93.6819 5.327 92.9434 6.08997C93.4178 5.26831 92.6402 4.15809 91.7011 4.02114C90.7621 3.8842 89.8524 4.43197 89.1824 5.10202C88.5123 5.77207 87.9841 6.58395 87.2603 7.1953C87.1967 6.29539 86.15 5.73294 85.255 5.84543C84.36 5.95792 83.6019 6.53504 82.8927 7.09259C79.9289 9.41575 77.146 11.959 75.444 15.3337C71.6536 22.846 68.3669 30.6078 65.6085 38.5554C65.4275 39.0788 65.2465 39.6119 65.2563 40.1645C65.271 40.9666 65.6916 41.6905 66.303 42.2236L66.2981 42.2285Z" fill="white"/>
</mask>
<g mask="url(#mask0_177_8142)">
<path d="M75.3007 43.016C75.0415 43.4366 74.8068 43.8719 74.7041 44.3512C74.2443 46.4885 76.5039 48.5769 75.8876 50.6751C75.5404 51.8587 74.3813 52.6021 73.765 53.6683C73.2075 54.6416 73.139 55.8056 73.0656 56.9207C72.9923 58.0358 72.8798 59.2096 72.2586 60.1389C71.6375 61.0681 70.3316 61.6453 69.3584 61.0877C68.659 60.6867 68.3313 59.8308 68.3117 59.0287C68.2922 58.2217 68.522 57.4342 68.6785 56.6468C69.1872 54.0791 68.6052 51.6826 69.5491 49.1981C70.586 46.469 72.7722 44.5175 73.8775 41.8667C74.122 41.2847 74.8068 37.2301 76.1566 39.7343C76.5528 40.4728 76.274 41.3971 75.8534 42.1259C75.6822 42.4242 75.4866 42.7177 75.3007 43.016Z" fill="#222221"/>
<path d="M121.671 49.4475C122.121 49.7067 122.532 50.049 122.869 50.4207C124.688 52.4455 125.29 55.4925 124.371 58.0554C123.138 61.4936 119.265 60.8529 117.832 57.9918C117.44 57.2141 117.323 56.2457 117.739 55.4779C117.929 55.1306 118.228 54.7932 118.159 54.4068C118.115 54.1573 117.929 53.9666 117.792 53.7563C117.406 53.1694 117.386 52.4064 117.484 51.707C117.621 50.7386 118.022 49.7262 118.868 49.2323C119.734 48.7236 120.776 48.9192 121.676 49.4426L121.671 49.4475Z" fill="#222221"/>
<path d="M124.85 12.3797C124.59 12.8003 124.356 13.2356 124.253 13.7149C123.793 15.8522 126.053 17.9406 125.436 20.0387C125.089 21.2223 123.93 21.9657 123.314 23.0319C122.756 24.0052 122.688 25.1692 122.614 26.2844C122.541 27.3995 122.429 28.5733 121.807 29.5025C121.186 30.4318 119.88 31.0089 118.907 30.4514C118.208 30.0503 117.88 29.1993 117.861 28.3923C117.841 27.5853 118.071 26.7979 118.227 26.0105C118.736 23.4428 118.154 21.0463 119.098 18.5617C120.135 15.8326 122.321 13.8812 123.431 11.2303C123.676 10.6483 124.36 6.59379 125.71 9.09791C126.107 9.83643 125.828 10.7608 125.407 11.4895C125.236 11.7879 125.04 12.0813 124.854 12.3797H124.85Z" fill="#222221"/>
</g>
<path d="M20.8635 194.875C20.5114 195.34 20.1494 195.961 20.4527 196.455C20.6777 196.821 21.1618 196.91 21.5874 196.963C21.7928 196.988 22.0031 197.012 22.2085 197.037H75.553C75.6312 196.934 75.7095 196.831 75.7682 196.709C76.1057 196.019 76.0176 195.203 75.9198 194.44C75.5481 191.51 74.521 188.111 74.6873 185.201C74.8634 182.115 76.1399 178.867 76.5801 175.776C77.4311 169.741 77.6903 163.324 75.8171 157.45C72.8581 148.275 71.7088 138.586 68.3585 129.411C66.3875 124.006 64.0204 118.759 62.0298 113.359C61.0125 110.596 60.0783 107.798 59.3643 104.942C58.7529 102.511 58.8263 99.9435 57.7992 97.6301C58.4644 97.9334 58.8018 98.6768 59.3398 99.1756C60.6799 100.418 63.0715 99.7381 64.0301 98.1828C64.9936 96.6275 64.8029 94.6027 64.1475 92.8958C63.4921 91.1889 62.4211 89.6776 61.6287 88.0294C59.692 83.9944 59.9218 79.3139 57.9019 75.3768C56.4836 72.6183 54.987 69.7621 52.5024 67.9084C52.0573 67.5759 51.5047 67.2628 50.9667 67.4047C50.4238 67.5465 50.1303 68.3877 50.6145 68.6665C49.7684 66.1771 48.0273 64.0007 45.7824 62.6312C45.352 62.372 44.8091 62.1372 44.3738 62.3818C44.0315 62.5774 43.8945 62.998 43.8212 63.3844C43.5277 64.9055 43.7331 66.5145 44.3983 67.9084C43.5522 66.2455 42.3588 64.568 40.5687 64.0496C40.3046 63.9713 40.0014 63.9322 39.7813 64.0936C39.4928 64.3088 39.5172 64.7441 39.5955 65.0913C39.9231 66.5341 40.7301 67.8644 41.855 68.823C41.2779 68.0405 40.4709 67.434 39.5563 67.1063C39.0183 66.9107 38.3532 66.8373 37.9375 67.2237C37.3799 67.7421 37.644 68.6567 37.957 69.3463C38.3727 70.2609 38.8129 71.1609 39.2824 72.051C39.0086 71.5277 35.2964 74.9513 35.0225 75.3034C33.8096 76.8587 33.164 78.9373 32.4499 80.7665C30.7528 85.1291 29.4763 89.6825 27.1727 93.7566C26.3902 95.1358 25.4609 96.7155 26.0087 98.2024C26.4684 99.4495 27.9112 100.149 29.2318 100.012C30.5523 99.8701 31.7163 99.0338 32.5429 97.9969C32.1369 98.7844 33.0271 101.303 33.1444 102.169C33.4819 104.575 33.4428 106.664 32.9048 109.05C32.2983 111.75 32.0489 114.87 30.8995 117.394C29.1975 121.136 27.5297 124.887 25.9109 128.667C24.4778 132.023 24.4289 135.759 22.4775 138.982C17.5426 147.13 17.3323 156.956 18.7849 166.117C19.5576 170.998 20.1935 175.957 21.2205 180.814C21.8857 183.963 22.5557 190.996 24.7909 193.383C23.6611 192.244 21.8319 193.613 20.8635 194.89V194.875Z" fill="#F0BE4D"/>
<path d="M27.7836 145.517C28.5515 147.776 28.796 150.119 29.3389 152.54C30.2486 156.575 31.1387 160.62 32.0338 164.659C32.6598 167.486 33.5499 170.377 33.6722 173.257C33.8336 177.097 33.6722 180.701 34.6944 184.404C35.3791 186.903 35.027 189.71 35.3742 192.298C35.5698 193.745 35.8731 195.33 36.3524 196.871H51.7341C54.2284 196.871 57.2119 197.325 59.672 196.871C62.4842 196.352 65.003 193.564 66.0447 190.772C66.9349 188.39 67.0963 185.803 67.2528 183.264C67.9375 172.093 68.226 160.8 69.8009 149.757C70.5834 144.294 71.2877 138.718 70.3438 133.275C69.7226 129.685 68.3972 126.276 66.8957 122.975C65.1204 119.072 64.1324 114.978 61.4767 111.496C61.3789 111.369 61.2713 111.237 61.1147 111.202C58.371 117.37 50.35 118.456 44.3391 118.167C39.6292 117.942 34.8558 116.23 31.6229 112.797C31.8332 113.022 26.7321 124.471 26.2577 125.674C24.4921 130.106 23.6997 134.947 22.1885 139.491C23.9247 139.56 25.3137 140.953 26.2723 142.406C26.9424 143.423 27.4168 144.46 27.7787 145.517H27.7836Z" fill="#D36A42"/>
<path d="M47.964 86.8948C47.9102 87.1785 47.7781 87.4573 47.5923 87.6822C45.0588 90.8124 41.4347 85.7601 45.8902 85.3444C46.6288 85.2759 47.5042 85.4129 47.8564 86.0634C47.9933 86.3177 48.0178 86.6111 47.964 86.8948Z" fill="#222221"/>
<path d="M32.3613 98.4274C35.2958 92.0938 34.0487 84.3125 37.4869 78.2429" stroke="#222221" stroke-linecap="round" stroke-linejoin="round"/>
<path d="M58.4738 98.4959C57.4076 93.4045 56.5712 88.2692 55.9697 83.1044C55.6909 80.7226 55.3632 78.1206 53.6318 76.4626" stroke="#222221" stroke-linecap="round" stroke-linejoin="round"/>
<path d="M38.8027 84.7575C39.6293 84.1755 40.4509 83.5984 41.2775 83.0164C41.3411 82.9723 41.4144 82.9234 41.4976 82.9283C41.615 82.9381 41.6883 83.0604 41.7666 83.1484C42.2019 83.6473 43.0284 83.3049 43.5126 82.855C44.124 82.2827 44.6033 81.5687 44.8967 80.7861C45.0826 81.0796 45.3222 81.3437 45.5961 81.5589C45.8749 81.2508 46.1537 80.9475 46.4325 80.6394C46.6134 81.8377 47.4449 82.9136 48.56 83.3881C48.5649 83.1826 48.6382 82.9821 48.7605 82.8207C49.8071 84.1413 51.5385 84.8798 53.2161 84.733" stroke="#222221" stroke-linecap="round" stroke-linejoin="round"/>
<path d="M31.4322 178.143C31.667 182.183 31.9262 186.233 32.5962 190.224C32.8897 191.975 33.1929 194.249 34.2249 195.751C35.2715 197.267 36.8904 197.164 38.7049 197.311C40.5047 197.457 42.3339 197.462 44.0506 197.365C45.2049 197.296 46.5449 197.076 47.1025 196.064C47.7285 194.939 46.9607 193.496 45.914 192.738C44.2218 191.515 42.0013 191.412 39.913 191.349C41.6199 183.66 43.0333 175.899 44.0751 168.093C44.4957 164.928 43.9675 161.705 44.0751 158.482C44.2169 154.335 44.3538 150.187 44.4957 146.045C44.5348 144.851 44.5788 143.648 44.7989 142.475C45.2097 140.298 46.2319 138.244 46.3444 136.033C46.4814 133.26 44.5935 128.746 41.9329 127.445C40.94 126.961 39.8054 126.873 38.7 126.858C37.2768 126.838 35.8144 126.941 34.5037 127.494C33.0707 128.1 31.9164 129.196 30.8258 130.306C29.4563 131.705 26.9767 134.258 27.1919 136.444C27.456 139.149 29.8623 140.611 29.8818 143.497C29.9014 147.346 30.9725 154.34 31.129 158.189C31.4371 165.887 30.9872 170.45 31.4322 178.143Z" fill="#F0BE4D"/>
<path d="M61.917 197.149C62.9441 197.125 63.9369 196.978 64.4309 196.494C64.8417 196.088 65.0129 195.506 65.1499 194.944C66.2063 190.522 65.8052 185.91 65.5509 181.371C65.189 174.92 65.1401 168.455 65.4091 161.999C65.6487 156.1 65.546 150.197 65.5216 144.284C65.5216 144.01 65.5216 143.722 65.6389 143.472C65.7954 143.135 66.128 142.92 66.4313 142.699C68.3729 141.271 69.3902 138.797 69.3511 136.39C69.2777 131.817 65.5167 126.129 60.9926 124.867C57.7745 123.967 53.5928 125.611 51.431 128.071C50.5849 129.034 49.8757 130.145 49.5285 131.382C48.653 134.478 49.9931 138.009 50.4626 141.1C53.0303 158.062 55.2801 175.106 55.9942 192.249C53.6759 192.611 51.7538 194.738 51.6364 197.081C54.1454 197.037 56.6496 197.105 59.1586 197.081C59.7846 197.076 60.8704 197.174 61.9219 197.149H61.917Z" fill="#F0BE4D"/>
<path d="M29.6719 140.117C30.9631 156.184 32.2591 172.25 33.5503 188.316C33.7606 190.938 33.9807 193.603 34.9149 196.064" stroke="#222221" stroke-linecap="round" stroke-linejoin="round"/>
<path d="M54.9082 192.708C56.1211 192.43 57.3634 192.258 58.6106 192.205" stroke="#222221" stroke-linecap="round" stroke-linejoin="round"/>
<path d="M40.5586 191.231C39.3603 191.148 38.1474 191.314 37.0127 191.72" stroke="#222221" stroke-linecap="round" stroke-linejoin="round"/>
<path d="M65.5166 144.289C65.59 141.496 65.7025 141.579 65.5166 138.787" stroke="#222221" stroke-linecap="round" stroke-linejoin="round"/>
<path d="M44.3537 144.661C44.4124 141.922 44.3733 139.178 44.2412 136.439" stroke="#222221" stroke-linecap="round" stroke-linejoin="round"/>
<path d="M24.2129 192.972C25.3965 193.007 26.5654 193.476 27.4457 194.273" stroke="#222221" stroke-linecap="round" stroke-linejoin="round"/>
<path d="M47.1127 194.513C45.8753 193.554 44.0021 193.515 42.7256 194.425" stroke="#222221" stroke-linecap="round" stroke-linejoin="round"/>
<path d="M46.736 196.313C45.8117 195.55 44.4569 195.354 43.3564 195.829" stroke="#222221" stroke-linecap="round" stroke-linejoin="round"/>
<path d="M51.876 195.545C52.9569 194.596 54.4779 194.171 55.8963 194.425" stroke="#222221" stroke-linecap="round" stroke-linejoin="round"/>
<path d="M51.6318 196.724C53.2654 195.936 55.2022 195.809 56.9237 196.372" stroke="#222221" stroke-linecap="round" stroke-linejoin="round"/>
<path d="M50.5363 140.988C50.6047 139.52 50.5754 138.053 50.4482 136.591" stroke="#222221" stroke-linecap="round" stroke-linejoin="round"/>
<path d="M61.296 110.713C61.0319 112.22 60.132 113.604 58.8652 114.46" stroke="#222221" stroke-linecap="round" stroke-linejoin="round"/>
<path d="M31.3105 112.547C32.5186 113.711 33.8 114.802 35.1401 115.814" stroke="#222221" stroke-linecap="round" stroke-linejoin="round"/>
<path d="M38.8174 117.213C43.8745 119.008 49.5528 118.993 54.6002 117.169" stroke="#222221" stroke-linecap="round" stroke-linejoin="round"/>
<path d="M51.0351 92.2406C51.6806 93.072 52.1502 94.0062 51.216 94.9404C49.3477 95.8745 47.0148 96.8087 45.616 94.9404C44.2172 95.8745 41.8843 97.2733 40.016 94.9404C39.5513 94.0062 40.016 93.5416 40.4317 92.4265" stroke="#222221" stroke-linecap="round" stroke-linejoin="round"/>
<path d="M45.6794 94.774C45.5278 92.3188 45.4838 89.8587 45.5376 87.3986" stroke="#222221" stroke-linecap="round" stroke-linejoin="round"/>
<path d="M44.1299 67.1064C44.3793 67.664 44.6336 68.2264 44.8831 68.784" stroke="#222221" stroke-linecap="round" stroke-linejoin="round"/>
<path d="M41.0967 68.3193C41.3412 68.9454 41.7863 69.4883 42.3487 69.86" stroke="#222221" stroke-linecap="round" stroke-linejoin="round"/>
<path d="M50.2419 68.0602C50.2028 68.9992 50.6038 69.948 51.3032 70.5741" stroke="#222221" stroke-linecap="round" stroke-linejoin="round"/>
<path d="M30.3862 190.214C30.6992 189.681 31.2078 189.255 31.3643 188.659C31.4622 188.292 31.4084 187.906 31.3888 187.529C31.3105 185.905 31.917 184.257 33.0223 183.064C33.6582 183.602 33.6288 184.565 33.5848 185.397C33.4772 187.412 33.8293 189.397 34.0886 191.388C34.338 193.295 34.6461 195.212 35.4384 196.988C33.4772 197.012 31.516 197.037 29.5596 196.89C29.139 196.861 29.8384 195.931 29.902 195.77C30.1221 195.188 30.0585 194.464 30.0243 193.858C29.9558 192.635 29.7308 191.329 30.3813 190.214H30.3862Z" fill="#222221"/>
<path d="M68.0064 138.88C67.8646 139.1 67.669 139.295 67.5956 139.55C67.5125 139.828 67.5956 140.122 67.6103 140.41C67.6445 141.032 67.3902 141.643 67.0234 142.147C66.6566 142.65 66.1773 143.061 65.7028 143.462C65.9914 143.198 65.3849 140.415 65.3262 139.941C65.2431 139.281 65.0719 138.591 65.3262 137.95C65.5952 137.256 66.549 136.185 67.3706 136.376C68.3928 136.61 68.4808 138.166 68.0162 138.88H68.0064Z" fill="#222221"/>
<mask id="mask1_177_8142" style="mask-type:luminance" maskUnits="userSpaceOnUse" x="18" y="62" width="60" height="136">
<path d="M20.8635 194.875C20.5114 195.34 20.1494 195.961 20.4527 196.455C20.6777 196.822 21.1618 196.91 21.5874 196.964C21.7928 196.988 22.0031 197.012 22.2085 197.037H75.553C75.6312 196.934 75.7095 196.831 75.7682 196.709C76.1057 196.02 76.0176 195.203 75.9198 194.44C75.5481 191.51 74.521 188.111 74.6873 185.201C74.8634 182.115 76.1399 178.867 76.5801 175.776C77.4311 169.741 77.6903 163.324 75.8171 157.45C72.8581 148.275 71.7088 138.586 68.3585 129.411C66.3875 124.007 64.0204 118.759 62.0298 113.359C61.0125 110.596 60.0783 107.798 59.3643 104.942C58.7529 102.511 58.8263 99.9437 57.7992 97.6304C58.4644 97.9336 58.8018 98.677 59.3398 99.1759C60.6799 100.418 63.0715 99.7383 64.0301 98.183C64.9936 96.6277 64.8029 94.6029 64.1475 92.896C63.4921 91.1891 62.4211 89.6779 61.6287 88.0296C59.692 83.9947 59.9218 79.3141 57.9019 75.377C56.4836 72.6186 54.987 69.7623 52.5024 67.9087C52.0573 67.5761 51.5047 67.2631 50.9667 67.4049C50.4238 67.5468 50.1303 68.388 50.6145 68.6668C49.7684 66.1773 48.0273 64.0009 45.7824 62.6315C45.352 62.3722 44.8091 62.1375 44.3738 62.382C44.0315 62.5777 43.8945 62.9983 43.8212 63.3846C43.5277 64.9057 43.7331 66.5148 44.3983 67.9087C43.5522 66.2458 42.3588 64.5682 40.5687 64.0498C40.3046 63.9715 40.0014 63.9324 39.7813 64.0938C39.4928 64.309 39.5172 64.7443 39.5955 65.0916C39.9231 66.5344 40.7301 67.8647 41.855 68.8233C41.2779 68.0407 40.4709 67.4343 39.5563 67.1066C39.0183 66.9109 38.3532 66.8376 37.9375 67.224C37.3799 67.7424 37.644 68.657 37.957 69.3466C38.3727 70.2612 38.8129 71.1611 39.2824 72.0512C39.0086 71.5279 35.2964 74.9515 35.0225 75.3036C33.8096 76.8589 33.164 78.9375 32.4499 80.7667C30.7528 85.1294 29.4763 89.6827 27.1727 93.7568C26.3902 95.136 25.4609 96.7158 26.0087 98.2026C26.4684 99.4498 27.9112 100.149 29.2318 100.012C30.5523 99.8704 31.7163 99.034 32.5429 97.9972C32.1369 98.7846 33.0271 101.303 33.1444 102.169C33.4819 104.575 33.4428 106.664 32.9048 109.051C32.2983 111.75 32.0489 114.871 30.8995 117.394C29.1975 121.136 27.5297 124.887 25.9109 128.668C24.4778 132.023 24.4289 135.759 22.4775 138.982C17.5426 147.131 17.3323 156.956 18.7849 166.117C19.5576 170.998 20.1935 175.957 21.2205 180.814C21.8857 183.964 22.5557 190.997 24.7909 193.383C23.6611 192.244 21.8319 193.613 20.8635 194.89V194.875Z" fill="white"/>
</mask>
<g mask="url(#mask1_177_8142)">
<path d="M36.2901 88.8853C36.2559 90.0102 35.8401 91.0911 35.3462 92.1035C35.1652 92.4752 34.9696 92.8518 34.9304 93.2626C34.8864 93.7615 35.0821 94.2457 35.2435 94.7152C36.2461 97.6448 35.9429 100.995 34.4316 103.695C34.2702 103.988 34.0843 104.282 33.8056 104.468C33.0132 104.996 31.8688 104.335 31.5558 103.436C31.2379 102.536 31.4922 101.553 31.7416 100.633C32.8372 96.6569 33.9376 92.6708 34.7006 88.6163C34.7935 88.1125 34.3876 86.0486 35.3608 86.2687C36.1385 86.4496 36.3048 88.2739 36.2901 88.8804V88.8853Z" fill="#222221"/>
<path d="M61.3213 100.971C61.2137 101.484 61.023 102.027 60.5828 102.311C60.1035 102.619 59.4677 102.521 58.9395 102.311C57.5407 101.748 56.4794 100.408 56.2593 98.9164C56.1224 97.9969 56.2838 97.053 56.1517 96.1286C56.0343 95.2825 55.6724 94.4902 55.4914 93.6538C55.1148 91.9567 55.4817 90.196 55.8436 88.494C56.0196 87.6772 56.1908 86.8604 56.4647 86.0681C56.1957 88.67 57.0516 91.2377 57.4527 93.8201C57.6385 95.0086 57.7412 96.2509 58.333 97.2926C58.915 98.3197 59.7025 98.5251 60.7344 98.843C61.7566 99.156 61.517 100.056 61.3262 100.966L61.3213 100.971Z" fill="#222221"/>
</g>
<mask id="mask2_177_8142" style="mask-type:luminance" maskUnits="userSpaceOnUse" x="18" y="62" width="60" height="136">
<path d="M20.8635 194.875C20.5114 195.34 20.1494 195.961 20.4527 196.455C20.6777 196.822 21.1618 196.91 21.5874 196.964C21.7928 196.988 22.0031 197.012 22.2085 197.037H75.553C75.6312 196.934 75.7095 196.831 75.7682 196.709C76.1057 196.02 76.0176 195.203 75.9198 194.44C75.5481 191.51 74.521 188.111 74.6873 185.201C74.8634 182.115 76.1399 178.867 76.5801 175.776C77.4311 169.741 77.6903 163.324 75.8171 157.45C72.8581 148.275 71.7088 138.586 68.3585 129.411C66.3875 124.007 64.0204 118.759 62.0298 113.359C61.0125 110.596 60.0783 107.798 59.3643 104.942C58.7529 102.511 58.8263 99.9437 57.7992 97.6304C58.4644 97.9336 58.8018 98.677 59.3398 99.1759C60.6799 100.418 63.0715 99.7383 64.0301 98.183C64.9936 96.6277 64.8029 94.6029 64.1475 92.896C63.4921 91.1891 62.4211 89.6779 61.6287 88.0296C59.692 83.9947 59.9218 79.3141 57.9019 75.377C56.4836 72.6186 54.987 69.7623 52.5024 67.9087C52.0573 67.5761 51.5047 67.2631 50.9667 67.4049C50.4238 67.5468 50.1303 68.388 50.6145 68.6668C49.7684 66.1773 48.0273 64.0009 45.7824 62.6315C45.352 62.3722 44.8091 62.1375 44.3738 62.382C44.0315 62.5777 43.8945 62.9983 43.8212 63.3846C43.5277 64.9057 43.7331 66.5148 44.3983 67.9087C43.5522 66.2458 42.3588 64.5682 40.5687 64.0498C40.3046 63.9715 40.0014 63.9324 39.7813 64.0938C39.4928 64.309 39.5172 64.7443 39.5955 65.0916C39.9231 66.5344 40.7301 67.8647 41.855 68.8233C41.2779 68.0407 40.4709 67.4343 39.5563 67.1066C39.0183 66.9109 38.3532 66.8376 37.9375 67.224C37.3799 67.7424 37.644 68.657 37.957 69.3466C38.3727 70.2612 38.8129 71.1611 39.2824 72.0512C39.0086 71.5279 35.2964 74.9515 35.0225 75.3036C33.8096 76.8589 33.164 78.9375 32.4499 80.7667C30.7528 85.1294 29.4763 89.6827 27.1727 93.7568C26.3902 95.136 25.4609 96.7158 26.0087 98.2026C26.4684 99.4498 27.9112 100.149 29.2318 100.012C30.5523 99.8704 31.7163 99.034 32.5429 97.9972C32.1369 98.7846 33.0271 101.303 33.1444 102.169C33.4819 104.575 33.4428 106.664 32.9048 109.051C32.2983 111.75 32.0489 114.871 30.8995 117.394C29.1975 121.136 27.5297 124.887 25.9109 128.668C24.4778 132.023 24.4289 135.759 22.4775 138.982C17.5426 147.131 17.3323 156.956 18.7849 166.117C19.5576 170.998 20.1935 175.957 21.2205 180.814C21.8857 183.964 22.5557 190.997 24.7909 193.383C23.6611 192.244 21.8319 193.613 20.8635 194.89V194.875Z" fill="white"/>
</mask>
<g mask="url(#mask2_177_8142)">
<path d="M12.677 156.673C12.7601 155.098 12.1928 154.12 13.5231 153.093C14.7752 152.124 16.5408 151.655 18.0618 152.163C19.7198 152.721 20.9523 154.35 21.0403 156.096C21.1333 157.974 20.0768 160.091 21.2066 161.598C21.6517 162.194 22.3511 162.527 22.9869 162.908C25.0557 164.146 26.6991 166.088 27.5843 168.337C27.9951 169.384 28.2446 170.524 28.0783 171.634C27.4474 175.913 22.9576 175.571 19.7345 175.189C18.5802 175.052 17.4162 174.847 16.3598 174.353C15.3034 173.864 14.3594 173.057 13.8997 171.986C13.3519 170.709 13.5525 169.213 13.0487 167.917C12.765 167.183 12.2662 166.542 12.0118 165.794C11.645 164.713 12.2808 163.266 12.3346 162.116C12.4178 160.302 12.589 158.487 12.6868 156.673H12.677Z" fill="#222221"/>
</g>
<path d="M68.1682 178.809C68.4518 180.217 68.0655 181.635 68.398 183.029C68.7159 184.369 69.8311 185.318 70.2028 186.619C70.6429 188.165 69.9631 189.735 70.1001 191.295C70.2566 193.104 71.5135 194.733 71.4353 196.548C71.4304 196.68 71.4108 196.826 71.313 196.919C71.2054 197.017 71.0391 197.012 70.8875 197.002C69.8066 196.924 68.7013 196.88 67.6155 196.944C66.6569 197.002 65.8499 197.296 64.8717 197.061C64.5489 196.983 64.9304 187.358 64.9353 186.414C64.9549 183.044 64.9206 179.655 65.2337 176.309C65.2483 176.172 65.2875 176.001 65.4244 175.967C65.4929 175.947 65.5662 175.977 65.6347 176.006C66.833 176.51 67.7769 177.283 68.1095 178.535C68.1339 178.623 68.1535 178.711 68.1731 178.804L68.1682 178.809Z" fill="#222221"/>
<path d="M202.26 178.867C202.26 176.05 202.744 172.817 202.314 170.039C201.986 167.911 200.719 165.603 199.526 163.828C198.45 162.223 197.085 160.771 195.388 159.837C191.476 157.68 186.453 158.673 182.281 159.411C183.455 160.756 184.746 161.993 186.14 163.109C186.541 163.427 186.951 163.74 187.304 164.111C186.149 163.828 184.897 163.945 183.812 164.434C186.658 165.696 188.864 167.628 189.588 170.714C190.253 173.541 190.458 176.524 189.661 179.41C189.333 180.598 188.536 181.596 187.685 182.486C185.915 184.34 183.694 185.915 181.156 186.257C180.05 186.404 178.979 186.409 177.957 186.907C177.928 186.648 177.903 186.394 177.879 186.135C177.693 184.027 177.713 181.943 177.713 179.811C177.683 162.385 172.758 144.998 163.651 130.139C157.313 119.8 148.661 109.617 148.964 97.493C149.052 93.9373 149.766 89.873 149.629 86.0288C151.581 83.2997 153.64 80.6538 155.807 78.091C156.154 77.685 155.973 76.8242 155.313 76.8976C153.175 77.1324 151.038 77.3231 148.896 77.4943C150.5 76.4183 152.026 75.2396 153.156 73.6256C153.523 73.1023 152.916 72.4567 152.363 72.5985C149.018 73.4447 145.673 74.2957 142.322 75.1418C137.97 73.9533 132.531 74.8826 129.058 76.5552C128.579 75.6993 127.704 75.1565 126.862 74.6527L117.521 69.038C116.494 68.4218 115.418 67.7859 114.225 67.6686C106.023 66.8714 115.917 83.0894 117.076 85.4223C121.214 93.7368 121.204 103.171 120.71 112.576C120.984 112.635 121.223 112.845 121.223 113.212C121.272 122.123 120.167 130.976 119.164 139.818C118.48 149.111 117.472 158.394 115.667 167.696C114.64 172.993 109.784 195.902 120.871 196.034C133.343 196.185 145.819 196.332 158.291 196.484C163.153 196.542 167.941 195.916 172.783 195.76C177.39 195.608 182.051 195.457 186.614 194.596C191.079 193.75 195.501 192.146 198.983 189.226C202.465 186.306 204.901 181.929 204.759 177.39L202.25 178.872L202.26 178.867Z" fill="#D36A42"/>
<path d="M139.578 196.454C142.478 192.419 144.254 187.7 145.995 183.044C150.636 170.64 155.273 158.237 159.914 145.834" stroke="#222221" stroke-linecap="round" stroke-linejoin="round"/>
<path d="M180.941 133.592C180.026 133.23 178.95 133.235 177.977 133.216C176.798 133.196 175.625 133.284 174.456 133.45C174.187 133.49 173.918 133.534 173.649 133.583C173.903 133.397 174.162 133.221 174.421 133.035C176.026 131.871 177.713 130.379 177.816 128.256C177.865 127.244 177.439 126.153 176.49 125.689C175.439 125.175 174.28 125.654 173.365 126.227C171.624 127.322 170.127 128.75 168.89 130.389C167.833 131.793 167.012 133.367 166.449 135.035C165.564 133.377 164.64 131.739 163.657 130.134C161.979 127.396 160.179 124.735 158.433 122.045C157.7 120.915 156.844 118.695 155.787 117.893C154.882 117.208 154.462 117.501 153.366 117.624C146.715 118.377 139.892 117.834 133.255 117.232C128.751 116.826 124.393 114.811 120.671 112.249C120.299 130.276 117.438 149.757 115.677 167.696C115.267 171.893 111.907 186.756 115.746 193.114C115.985 191.96 116.465 190.854 117.194 189.94C118.485 188.316 120.417 187.304 122.373 186.722C124.505 186.091 126.809 185.91 129.015 186.174C130.653 186.369 132.316 186.79 133.764 187.602C133.93 183.699 134.121 179.801 134.419 175.908C135.055 167.569 136.097 159.196 138.278 151.106C138.762 149.312 139.31 147.521 139.926 145.751C138.371 143.183 137.672 140.117 137.97 137.109C138.376 133.059 140.523 129.088 144.255 127.21C146.26 126.197 148.539 125.86 150.764 126.1C153.611 126.408 156.086 127.567 158.233 129.455C160.517 131.465 162.302 134.072 163.564 136.83C165.021 140.009 166.85 145.418 164.884 148.739C164.806 148.876 164.713 149.008 164.581 149.087C164.464 149.155 164.332 149.175 164.199 149.189C164.004 149.214 163.813 149.243 163.617 149.268C166.293 149.214 168.948 149.923 171.296 151.312C172.245 151.874 173.091 152.535 173.869 153.263C172.421 148.294 170.567 143.447 168.337 138.777C172.548 139.266 176.989 138.972 180.985 137.578C181.924 137.251 182.79 136.576 182.682 135.475C182.589 134.522 181.758 133.92 180.931 133.592H180.941ZM172.9 128.858C173.517 128.349 174.211 127.802 174.95 127.479C175.184 127.376 175.541 127.229 175.766 127.425C175.972 127.606 175.967 128.007 175.952 128.252C175.859 129.738 174.299 130.839 173.204 131.616C171.634 132.732 170.059 133.837 168.489 134.942C169.423 132.585 170.934 130.487 172.905 128.853L172.9 128.858ZM179.718 136.013C177.845 136.556 175.918 136.908 173.971 137.045C172.348 137.163 170.714 137.143 169.095 136.987C172.118 135.573 175.453 134.923 178.794 135.113C179.498 135.153 180.163 135.187 180.76 135.598C180.765 135.598 180.775 135.612 180.789 135.622C180.691 135.656 180.486 135.779 180.418 135.798C180.188 135.876 179.953 135.945 179.718 136.008V136.013Z" fill="#9EB9E8"/>
<path d="M158.717 150.27C159.152 150.094 159.597 149.938 160.052 149.806C160.223 149.757 160.399 149.713 160.57 149.669C160.468 149.683 160.37 149.698 160.267 149.708C159.793 149.771 159.294 149.84 158.898 150.114C158.829 150.158 158.771 150.211 158.712 150.27H158.717Z" fill="#8298C2"/>
<path d="M121.18 103.563C122.158 103.553 149.787 104.585 149.787 104.585L157.006 86.4837C140.68 81.6026 119.493 84.1116 113.198 87.0168L121.18 103.563Z" fill="#F0BE4D"/>
<path d="M150.348 104.433C147.125 104.487 143.902 104.458 140.679 104.34" stroke="#222221" stroke-linecap="round" stroke-linejoin="round"/>
<path d="M135.525 104.11C131.333 104.11 127.147 104.11 122.955 104.105" stroke="#222221" stroke-linecap="round" stroke-linejoin="round"/>
<path d="M143.931 131.274C141.921 135.999 141.251 140.855 139.931 145.751" stroke="#222221" stroke-linecap="round" stroke-linejoin="round"/>
<path d="M168.861 150.153C165.344 148.509 160.908 148.504 157.896 150.945" stroke="#222221" stroke-linecap="round" stroke-linejoin="round"/>
<path d="M111.788 68.4266C111.392 69.3999 111.378 70.4955 111.534 71.5323C112.165 75.6847 115.52 79.1278 119.492 80.4826" stroke="#222221" stroke-linecap="round" stroke-linejoin="round"/>
<path d="M128.965 76.3254C128.936 76.9759 129.308 77.6313 129.885 77.9296" stroke="#222221" stroke-linecap="round" stroke-linejoin="round"/>
<path d="M133.911 80.8787C133.911 81.4803 133.422 81.9645 132.825 81.9645C132.228 81.9645 131.739 81.4754 131.739 80.8787C131.739 80.2821 132.228 79.793 132.825 79.793C133.422 79.793 133.911 80.2821 133.911 80.8787Z" fill="#222221"/>
<path d="M149.703 77.4454C148.387 77.5237 147.071 77.6068 145.756 77.6851" stroke="#222221" stroke-linecap="round" stroke-linejoin="round"/>
<path d="M152.451 79.1915C152.524 79.1866 152.602 79.1768 152.671 79.2062C152.915 79.2991 152.871 79.6561 152.764 79.8958C152.544 80.3702 152.245 80.8104 151.878 81.1918C151.717 81.3581 151.526 81.5244 151.296 81.5587C151.076 81.588 150.861 81.5 150.646 81.4511C150.064 81.319 147.501 82.307 148.435 80.5805C149.022 79.4947 151.394 79.2991 152.456 79.2013L152.451 79.1915Z" fill="#222221"/>
<path d="M147.874 178.544C148.387 182.682 149.356 186.761 150.774 190.683C148.524 190.013 146.172 189.705 143.824 189.778" stroke="#222221" stroke-linecap="round" stroke-linejoin="round"/>
<path d="M175.595 110.605C174.788 109.153 173.022 109.089 171.58 109.358C168.454 109.945 165.368 111.207 162.59 112.743C163.192 112.014 163.789 111.275 164.371 110.532C165.305 109.343 166.371 108.155 166.943 106.742C167.413 105.582 167.555 103.861 166.239 103.186C164.953 102.531 163.461 103.567 162.448 104.311C160.306 105.886 158.658 108.038 157.484 110.41C156.262 112.889 155.518 115.55 154.892 118.23C154.706 118.215 154.52 118.211 154.335 118.191C153.831 118.147 153.4 118.651 153.4 119.125C153.4 119.414 153.523 119.644 153.713 119.805C153.694 119.829 153.674 119.849 153.655 119.869C152.916 120.705 153.968 121.884 154.804 121.331C155.293 121.659 156.051 121.576 156.213 120.847C156.262 120.622 156.315 120.392 156.364 120.167C159.225 120.231 162.096 119.898 164.865 119.169C166.601 118.714 168.288 118.103 169.917 117.36C171.453 116.66 173.125 115.868 174.377 114.714C175.473 113.701 176.407 112.073 175.595 110.61V110.605ZM162.077 107.079C162.854 106.301 163.72 105.622 164.688 105.098C164.982 104.942 165.378 104.638 165.427 105.054C165.486 105.597 165.192 106.184 164.933 106.639C164.297 107.744 163.436 108.737 162.649 109.735C161.788 110.821 160.908 111.892 160.013 112.948C159.167 113.946 158.301 114.924 157.426 115.892C158.35 112.645 159.666 109.515 162.082 107.089L162.077 107.079ZM173.062 113.393C171.991 114.381 170.474 115.056 169.164 115.662C167.775 116.308 166.332 116.826 164.86 117.237C162.59 117.873 160.257 118.22 157.91 118.294C161.294 115.345 165.28 113.105 169.589 111.799C170.249 111.598 170.915 111.417 171.589 111.266C172.137 111.138 172.739 111.006 173.306 111.114C174.749 111.383 173.668 112.836 173.062 113.393Z" fill="#9EB9E8"/>
<path d="M126.976 128.535C127.308 128.535 127.577 128.266 127.577 127.934C127.577 127.601 127.308 127.332 126.976 127.332C126.643 127.332 126.374 127.601 126.374 127.934C126.374 128.266 126.643 128.535 126.976 128.535Z" fill="#FFE3E3"/>
<path d="M137.457 127.934C137.789 127.934 138.059 127.664 138.059 127.332C138.059 127 137.789 126.731 137.457 126.731C137.125 126.731 136.855 127 136.855 127.332C136.855 127.664 137.125 127.934 137.457 127.934Z" fill="#FFE3E3"/>
<path d="M125.166 119.189C125.166 119.521 124.897 119.79 124.564 119.79C124.232 119.79 123.963 119.521 123.963 119.189C123.963 118.856 124.232 118.587 124.564 118.587C124.897 118.587 125.166 118.856 125.166 119.189Z" fill="#FFE3E3"/>
<path d="M140.533 121.517C140.533 121.85 140.264 122.119 139.932 122.119C139.599 122.119 139.33 121.85 139.33 121.517C139.33 121.184 139.599 120.915 139.932 120.915C140.264 120.915 140.533 121.184 140.533 121.517Z" fill="#FFE3E3"/>
<path d="M134.889 155.552C134.889 155.885 134.62 156.154 134.287 156.154C133.955 156.154 133.686 155.885 133.686 155.552C133.686 155.22 133.955 154.951 134.287 154.951C134.62 154.951 134.889 155.22 134.889 155.552Z" fill="#FFE3E3"/>
<path d="M129.235 150.945C129.235 151.278 128.966 151.547 128.634 151.547C128.301 151.547 128.032 151.278 128.032 150.945C128.032 150.613 128.301 150.344 128.634 150.344C128.966 150.344 129.235 150.613 129.235 150.945Z" fill="#FFE3E3"/>
<path d="M127.577 178.182C127.577 178.515 127.308 178.784 126.976 178.784C126.643 178.784 126.374 178.515 126.374 178.182C126.374 177.85 126.643 177.581 126.976 177.581C127.308 177.581 127.577 177.85 127.577 178.182Z" fill="#FFE3E3"/>
<path d="M153.41 125.224C153.742 125.224 154.012 124.955 154.012 124.623C154.012 124.29 153.742 124.021 153.41 124.021C153.078 124.021 152.809 124.29 152.809 124.623C152.809 124.955 153.078 125.224 153.41 125.224Z" fill="#FFE3E3"/>
<path d="M163.374 133.265C163.706 133.265 163.976 132.995 163.976 132.663C163.976 132.331 163.706 132.062 163.374 132.062C163.042 132.062 162.772 132.331 162.772 132.663C162.772 132.995 163.042 133.265 163.374 133.265Z" fill="#FFE3E3"/>
<path d="M148.388 121.517C148.388 121.85 148.119 122.119 147.786 122.119C147.454 122.119 147.185 121.85 147.185 121.517C147.185 121.184 147.454 120.915 147.786 120.915C148.119 120.915 148.388 121.184 148.388 121.517Z" fill="#FFE3E3"/>
<path d="M168.484 148.642C168.817 148.642 169.086 148.372 169.086 148.04C169.086 147.708 168.817 147.438 168.484 147.438C168.152 147.438 167.883 147.708 167.883 148.04C167.883 148.372 168.152 148.642 168.484 148.642Z" fill="#FFE3E3"/>
<path d="M126.369 138.513C126.369 138.845 126.1 139.114 125.768 139.114C125.435 139.114 125.166 138.845 125.166 138.513C125.166 138.18 125.435 137.911 125.768 137.911C126.1 137.911 126.369 138.18 126.369 138.513Z" fill="#FFE3E3"/>
<path d="M123.42 146.671C123.42 147.003 123.151 147.272 122.818 147.272C122.486 147.272 122.217 147.003 122.217 146.671C122.217 146.338 122.486 146.069 122.818 146.069C123.151 146.069 123.42 146.338 123.42 146.671Z" fill="#FFE3E3"/>
<path d="M129.03 158.355C129.03 158.687 128.761 158.956 128.429 158.956C128.096 158.956 127.827 158.687 127.827 158.355C127.827 158.022 128.096 157.753 128.429 157.753C128.761 157.753 129.03 158.022 129.03 158.355Z" fill="#FFE3E3"/>
<path d="M131.397 176.847C131.73 176.847 131.999 176.578 131.999 176.245C131.999 175.913 131.73 175.644 131.397 175.644C131.065 175.644 130.796 175.913 130.796 176.245C130.796 176.578 131.065 176.847 131.397 176.847Z" fill="#FFE3E3"/>
<path d="M131.734 167.701C132.067 167.701 132.336 167.432 132.336 167.1C132.336 166.767 132.067 166.498 131.734 166.498C131.402 166.498 131.133 166.767 131.133 167.1C131.133 167.432 131.402 167.701 131.734 167.701Z" fill="#FFE3E3"/>
<path d="M134.199 135.084C134.199 135.417 133.93 135.686 133.598 135.686C133.265 135.686 132.996 135.417 132.996 135.084C132.996 134.752 133.265 134.483 133.598 134.483C133.93 134.483 134.199 134.752 134.199 135.084Z" fill="#FFE3E3"/>
<path d="M122.818 133.27C122.818 133.602 122.549 133.871 122.217 133.871C121.884 133.871 121.615 133.602 121.615 133.27C121.615 132.937 121.884 132.668 122.217 132.668C122.549 132.668 122.818 132.937 122.818 133.27Z" fill="#FFE3E3"/>
<path d="M131.397 123.326C131.73 123.326 131.999 123.057 131.999 122.725C131.999 122.393 131.73 122.123 131.397 122.123C131.065 122.123 130.796 122.393 130.796 122.725C130.796 123.057 131.065 123.326 131.397 123.326Z" fill="#FFE3E3"/>
<path d="M125.768 166.493C125.768 166.826 125.499 167.095 125.166 167.095C124.833 167.095 124.564 166.826 124.564 166.493C124.564 166.161 124.833 165.892 125.166 165.892C125.499 165.892 125.768 166.161 125.768 166.493Z" fill="#FFE3E3"/>
<path d="M136.126 147.032C136.126 147.365 135.857 147.634 135.524 147.634C135.192 147.634 134.923 147.365 134.923 147.032C134.923 146.7 135.192 146.431 135.524 146.431C135.857 146.431 136.126 146.7 136.126 147.032Z" fill="#FFE3E3"/>
<path d="M129.842 144.289C129.842 144.621 129.573 144.89 129.24 144.89C128.908 144.89 128.639 144.621 128.639 144.289C128.639 143.956 128.908 143.687 129.24 143.687C129.573 143.687 129.842 143.956 129.842 144.289Z" fill="#FFE3E3"/>
<path d="M112.439 67.0914C113.026 66.7637 113.823 66.842 114.41 67.0914C114.924 67.3115 115.408 67.737 115.486 68.2946C115.584 68.9793 114.997 69.6249 114.327 69.7814C113.192 70.0406 112.513 68.9842 111.481 68.8277C111.265 68.7934 112.072 67.3653 112.239 67.2284C112.302 67.1795 112.371 67.1306 112.439 67.0914Z" fill="#222221"/>
<path d="M202.426 178.177C202.387 179.014 202.021 179.83 201.424 180.417" stroke="#222221" stroke-linecap="round" stroke-linejoin="round"/>
<path d="M186.766 163.696C188.355 164.038 189.744 165.212 190.346 166.723" stroke="#222221" stroke-linecap="round" stroke-linejoin="round"/>
<path d="M177.581 186.238C177.605 188.179 177.444 190.126 177.106 192.043" stroke="#222221" stroke-linecap="round" stroke-linejoin="round"/>
<path d="M146.71 188.482C146.739 187.988 146.852 187.465 146.641 187.015C146.495 186.702 146.216 186.472 146.05 186.169C145.394 184.99 146.451 183.249 146.68 182.07C146.602 182.134 146.529 182.202 146.46 182.276C145.243 184.663 144.308 187.186 143.086 189.568C142.929 189.969 142.773 190.365 142.626 190.766C142.435 191.285 142.279 192.023 142.073 192.693C142.132 192.659 142.196 192.63 142.254 192.596C142.641 191.745 142.983 190.864 143.717 190.312C144.563 189.676 145.688 189.656 146.759 189.734C146.822 189.671 146.891 189.607 146.954 189.544C146.739 189.265 146.685 188.849 146.71 188.477V188.482Z" fill="#222221"/>
<path d="M159.679 146.318C159.665 145.741 160.33 145.135 160.848 144.954C161.064 144.88 161.293 144.866 161.518 144.88C161.851 144.895 162.193 144.968 162.472 145.154C162.751 145.34 162.956 145.658 162.947 145.991C162.937 146.289 162.77 146.612 162.932 146.861C162.991 146.954 163.088 147.018 163.181 147.081C163.778 147.468 164.35 147.746 164.36 148.553C164.36 148.705 164.331 148.871 164.218 148.964C164.13 149.038 164.018 149.057 163.905 149.072C161.802 149.395 159.988 149.752 158.036 150.681C158.511 149.106 159.083 147.556 159.743 146.049" fill="#222221"/>
<path d="M128.163 103.699C127.864 103.699 127.566 103.695 127.273 103.675C127.229 103.675 127.185 103.665 127.145 103.665C125.052 103.577 122.959 103.406 120.866 103.25C120.866 104.096 120.787 104.942 120.778 105.803C120.768 106.805 121.188 107.969 122.157 108.233C123.365 108.561 124.451 107.304 125.703 107.211C126.402 107.162 127.082 107.48 127.781 107.47C128.828 107.456 129.713 106.727 130.452 105.983C131.19 105.24 131.924 104.414 132.926 104.115C132.305 103.866 131.66 103.758 130.999 103.709C130.055 103.734 129.107 103.724 128.163 103.695V103.699Z" fill="#222221"/>
<path d="M81.185 157.046C89.4554 156.341 97.765 155.95 106.065 156.107C108.3 156.151 110.535 156.234 112.765 156.361C116.394 156.576 119.348 153.529 119.016 149.91C118.952 149.225 118.869 148.55 118.747 147.875C118.101 144.31 117.015 140.803 115.279 137.609C114.594 136.348 113.812 135.14 112.941 134C112.027 135.834 110.921 137.575 109.655 139.184C101.12 138.593 92.5513 138.573 84.0119 139.15C82.9212 139.223 81.8257 139.311 80.735 139.404C80.5345 139.238 80.3438 139.057 80.1726 138.862C78.901 137.404 78.2505 135.11 76.3724 134.665C73.5846 140.715 72.5869 146.687 71.6429 153.167V153.216C71.281 155.671 73.345 157.794 75.8148 157.545C77.6 157.364 79.39 157.192 81.1752 157.041L81.185 157.046Z" fill="#4170B5"/>
<path d="M121.466 180.561C121.173 175.641 120.322 170.51 117.671 166.236C115.035 161.985 109.973 159.838 105.048 158.968C100.113 158.092 95.0608 158.234 90.0526 158.42C86.4333 158.557 81.8849 158.435 78.4759 159.789C75.7566 160.87 73.4775 164.436 72.245 166.959C69.511 172.555 69.5012 179.123 69.6773 185.129C69.8338 190.538 70.5968 196.393 74.3872 200.251C76.6125 202.516 79.6693 203.827 82.7897 204.394C87.5142 205.26 92.9675 205.318 97.7752 205.245C102.788 205.172 107.787 204.208 112.462 202.394C114.786 201.494 117.094 200.34 118.718 198.452C120.606 196.261 120.523 193.546 121.051 190.866C121.696 187.584 121.652 184.229 121.486 180.903C121.481 180.791 121.476 180.673 121.466 180.561Z" fill="#4170B5"/>
<path d="M107.448 199.22C108.338 199.327 109.243 199.371 110.133 199.405C116.931 199.674 123.578 199.674 130.367 200.569C130.944 200.648 131.56 200.741 131.995 201.127C132.103 201.22 132.201 201.337 132.225 201.479C132.279 201.787 131.976 202.032 131.697 202.174C130.21 202.937 128.464 202.946 126.791 202.937C122.82 202.912 118.878 202.917 114.916 202.824C112.994 202.78 111.062 202.795 109.155 203.049C107.443 203.274 105.272 204.546 103.667 204.546C102.856 204.912 102.034 205.382 101.594 206.155C101.109 207.006 101.183 208.106 101.643 208.977C102.846 211.271 105.922 211.628 108.509 211.701C112.808 211.818 116.931 211.207 121.147 211.241C126.033 211.275 130.993 211.09 135.712 209.715C138.07 209.031 140.417 207.999 142.051 206.174C143.684 204.35 144.452 201.572 143.381 199.366C142.007 196.525 138.221 195.703 135.619 194.417C132.21 192.734 127.662 192.832 123.945 192.984C121.133 193.096 118.296 193.688 115.508 193.688C112.31 193.688 109.082 193.507 105.878 193.458C104.259 193.434 102.166 193.771 101.868 195.361C101.657 196.495 102.606 197.527 103.614 198.095C104.787 198.755 106.098 199.068 107.443 199.229L107.448 199.22Z" fill="#4170B5"/>
<path d="M92.2088 200.98C90.6878 200.139 88.4625 199.748 86.7507 200.115C85.7382 200.335 84.6476 200.917 84.452 201.934C84.227 203.098 84.359 204.917 85.6258 205.475C87.5625 206.331 90.3014 206.111 92.3653 206.072C93.0158 206.062 93.6859 206.042 94.2777 205.778C94.4048 205.72 94.5369 205.646 94.6054 205.519C94.664 205.411 94.6689 205.279 94.6689 205.152L94.6787 202.003C93.4609 202.237 93.2359 201.533 92.2039 200.971L92.2088 200.98Z" fill="#4170B5"/>
<path d="M112.301 170.789C106.578 170.867 103.487 177.387 103.429 182.053C103.355 187.936 105.39 193.512 107.557 198.897C106.422 199.298 105.229 199.493 104.094 199.899" stroke="#222221" stroke-linecap="round" stroke-linejoin="round"/>
<path d="M85.5915 151.402C86.1479 151.402 86.599 150.951 86.599 150.394C86.599 149.838 86.1479 149.387 85.5915 149.387C85.0351 149.387 84.584 149.838 84.584 150.394C84.584 150.951 85.0351 151.402 85.5915 151.402Z" fill="#222221"/>
<path d="M104.89 151.764C105.447 151.764 105.898 151.313 105.898 150.756C105.898 150.2 105.447 149.749 104.89 149.749C104.334 149.749 103.883 150.2 103.883 150.756C103.883 151.313 104.334 151.764 104.89 151.764Z" fill="#222221"/>
<path d="M101.922 200.726C100.611 200.359 99.2367 200.369 97.9113 200.662C96.7228 200.926 95.6811 201.685 94.5562 201.929C94.517 202.932 94.6687 203.983 94.7371 204.991C94.7469 205.118 94.7567 205.255 94.8349 205.353C94.9132 205.455 95.0452 205.504 95.1724 205.543C97.4515 206.272 99.8823 206.517 102.259 206.262C103.042 206.179 103.839 206.033 104.494 205.602C105.36 205.035 105.634 204.159 105.448 203.186C105.243 202.091 103.443 201.225 102.528 200.912C102.323 200.843 102.122 200.78 101.922 200.726Z" fill="#4170B5"/>
<path d="M94.7665 178.962C94.7665 190.47 94.2285 198.261 94.7665 205.23" stroke="#222221" stroke-linecap="round" stroke-linejoin="round"/>
<path d="M103.424 180.571C103.292 186.493 102.925 192.724 103.673 198.598C103.908 200.447 105.644 201.601 105.561 203.421" stroke="#222221" stroke-linecap="round" stroke-linejoin="round"/>
<path d="M86.7363 190.255C85.9586 193.424 83.7479 196.217 80.8379 197.699C82.4079 198.124 83.8507 198.995 84.9511 200.188" stroke="#222221" stroke-linecap="round" stroke-linejoin="round"/>
<path d="M71.2275 173.66C74.4848 170.579 81.0141 168.994 84.6578 172.354C87.4701 174.946 87.6657 179.206 87.4749 182.772C87.2353 187.325 86.5946 191.844 86.0468 196.368C85.9148 197.454 85.7778 198.564 85.2887 199.537C84.7996 200.516 83.9584 201.376 83.8948 202.467C83.8313 203.587 84.6138 204.556 85.3621 205.397" stroke="#222221" stroke-linecap="round" stroke-linejoin="round"/>
<path d="M109.165 202.986C110.818 202.585 112.359 202.487 113.973 201.846C115.572 201.21 117.108 200.379 118.453 199.293" stroke="#222221" stroke-linecap="round" stroke-linejoin="round"/>
<path d="M80.5732 139.135C80.9694 139.444 81.2042 139.942 81.1895 140.441" stroke="#222221" stroke-linecap="round" stroke-linejoin="round"/>
<path d="M109.537 139.375C109.199 139.918 108.857 140.461 108.52 141.004" stroke="#222221" stroke-linecap="round" stroke-linejoin="round"/>
<mask id="mask3_177_8142" style="mask-type:luminance" maskUnits="userSpaceOnUse" x="71" y="134" width="49" height="24">
<path d="M81.184 157.046C89.4544 156.342 97.764 155.95 106.064 156.107C108.299 156.151 110.534 156.234 112.764 156.361C116.393 156.576 119.347 153.529 119.015 149.91C118.951 149.225 118.868 148.55 118.746 147.875C118.1 144.31 117.014 140.803 115.278 137.61C114.593 136.348 113.811 135.14 112.94 134C112.026 135.834 110.92 137.575 109.654 139.184C101.119 138.593 92.5503 138.573 84.0109 139.15C82.9203 139.224 81.8247 139.312 80.7341 139.405C80.5335 139.238 80.3428 139.057 80.1716 138.862C78.9 137.404 78.2495 135.11 76.3714 134.665C73.5836 140.715 72.5859 146.687 71.642 153.167V153.216C71.28 155.671 73.344 157.794 75.8139 157.545C77.599 157.364 79.3891 157.193 81.1742 157.041L81.184 157.046Z" fill="white"/>
</mask>
<g mask="url(#mask3_177_8142)">
<path d="M88.638 135.942C87.9924 137.463 88.0853 139.174 88.0413 140.828C88.007 142.036 87.9581 143.41 88.8238 144.246C88.8874 144.31 88.9608 144.369 89.0439 144.398C89.2053 144.452 89.3814 144.383 89.5183 144.285C89.9683 143.968 90.1346 143.39 90.2666 142.857C90.7361 140.95 91.1225 139.023 91.4355 137.086C91.4795 136.812 91.5236 136.529 91.4698 136.255C91.4551 136.416 91.4453 136.577 91.4306 136.739" fill="#D36A42"/>
<path d="M94.1648 135.58C93.9056 135.785 93.8665 136.157 93.8469 136.485C93.7491 138.25 93.7393 140.021 93.8078 141.786C93.8323 142.368 93.8616 142.95 94.023 143.508C94.16 143.982 94.5512 144.51 95.0305 144.388C95.2849 144.325 95.4609 144.09 95.593 143.86C96.3119 142.652 96.5663 141.224 96.6445 139.82C96.7228 138.416 96.6396 137.008 96.7423 135.604" fill="#D36A42"/>
<path d="M99.2263 135.771L99.0992 139.219C99.0405 140.857 98.9867 142.549 99.598 144.07C99.6812 144.276 99.7888 144.491 99.9844 144.584C100.219 144.696 100.513 144.598 100.703 144.418C100.889 144.232 100.992 143.982 101.08 143.738C101.999 141.229 102.268 138.485 101.862 135.849" fill="#D36A42"/>
</g>
<path d="M85.3517 205.392C85.3126 203.861 86.2663 202.35 87.6651 201.719" stroke="#222221" stroke-linecap="round" stroke-linejoin="round"/>
<path d="M88.2139 206.189C88.341 204.805 89.192 203.514 90.4099 202.849" stroke="#222221" stroke-linecap="round" stroke-linejoin="round"/>
<path d="M99.7064 206.204C99.4423 204.859 99.1782 203.519 98.9092 202.174" stroke="#222221" stroke-linecap="round" stroke-linejoin="round"/>
<path d="M103.105 204.585C103.218 203.494 102.826 202.36 102.068 201.567" stroke="#222221" stroke-linecap="round" stroke-linejoin="round"/>
<mask id="mask4_177_8142" style="mask-type:luminance" maskUnits="userSpaceOnUse" x="101" y="192" width="43" height="20">
<path d="M107.449 199.22C108.339 199.327 109.244 199.371 110.134 199.406C116.932 199.675 123.579 199.674 130.368 200.57C130.945 200.648 131.561 200.741 131.996 201.127C132.104 201.22 132.202 201.337 132.226 201.479C132.28 201.787 131.977 202.032 131.698 202.174C130.211 202.937 128.465 202.946 126.792 202.937C122.821 202.912 118.879 202.917 114.917 202.824C112.995 202.78 111.063 202.795 109.156 203.049C107.444 203.274 105.248 203.67 103.668 204.546C102.857 204.913 102.035 205.382 101.595 206.155C101.11 207.006 101.184 208.106 101.644 208.977C102.847 211.271 105.923 211.628 108.51 211.701C112.809 211.818 116.932 211.207 121.148 211.241C126.034 211.276 130.994 211.09 135.713 209.715C138.071 209.031 140.418 207.999 142.052 206.174C143.685 204.35 144.453 201.572 143.382 199.366C142.008 196.525 138.222 195.703 135.62 194.417C132.211 192.734 127.663 192.832 123.946 192.984C121.134 193.096 118.297 193.688 115.509 193.688C112.311 193.688 109.083 193.507 105.879 193.458C104.26 193.434 102.167 193.771 101.869 195.361C101.658 196.495 102.607 197.527 103.615 198.095C104.788 198.755 106.099 199.068 107.444 199.229L107.449 199.22Z" fill="white"/>
</mask>
<g mask="url(#mask4_177_8142)">
<path d="M104.044 202.623C99.1286 203.729 93.465 207.597 98.8156 212.821C100.053 214.029 101.819 214.596 103.54 214.508C103.643 210.547 103.834 206.585 104.044 202.623Z" fill="#D36A42"/>
<path d="M108.72 202.839C108.685 202.819 108.656 202.795 108.622 202.775C107.913 202.35 107.062 202.276 106.22 202.315C106.176 205.538 106.083 208.762 105.937 211.985C106.034 211.921 106.152 211.882 106.294 211.882C107.169 211.882 107.169 213.242 106.294 213.242C106.123 213.242 105.986 213.188 105.883 213.105C105.868 213.383 105.858 213.667 105.844 213.946C106.23 213.77 106.602 213.555 106.939 213.29C107.238 213.061 107.502 212.801 107.751 212.527C108.778 209.392 109.316 206.096 108.715 202.839H108.72Z" fill="#D36A42"/>
<path d="M116.213 209.559C116.775 207.118 117.152 204.653 117.352 202.169C116.668 202.291 115.958 202.467 115.259 202.697C115.318 204.996 115.22 207.294 114.887 209.583C114.672 211.05 114.344 212.493 113.924 213.902C114.271 214.009 114.633 214.073 114.995 214.122C115.445 212.611 115.865 211.094 116.218 209.559H116.213Z" fill="#D36A42"/>
<path d="M119.543 209.95C119.651 208.542 119.798 207.133 119.891 205.724C119.964 204.555 119.998 203.357 119.739 202.213C119.333 202.164 118.922 202.159 118.511 202.188C118.404 203.616 118.237 205.04 118.012 206.458C117.959 207.27 117.895 208.087 117.822 208.899C117.651 210.708 117.386 212.493 116.961 214.249C117.739 214.093 118.477 213.794 119.132 213.349C119.343 212.234 119.46 211.09 119.548 209.955L119.543 209.95Z" fill="#D36A42"/>
</g>
<path d="M132.128 201.279C133.497 201.235 134.872 201.288 136.236 201.44" stroke="#222221" stroke-linecap="round" stroke-linejoin="round"/>
<path d="M84.3642 197.61C84.1295 198.085 83.8116 198.535 83.7382 199.058C82.6231 198.486 81.4395 198.046 80.2217 197.747C81.6645 197.224 83.0486 196.407 84.1246 195.302C84.3985 196.153 84.8338 196.667 84.3642 197.61Z" fill="#222221"/>
<path d="M119.494 169.977C119.602 170.187 119.7 170.408 119.788 170.628C120.115 171.44 120.384 172.276 120.59 173.127C120.717 173.665 121.035 174.628 120.546 175.073C120.296 175.303 119.925 175.357 119.597 175.274C119.269 175.191 118.986 174.99 118.741 174.76C118.497 174.531 118.281 174.266 118.047 174.027C117.523 173.499 116.892 173.098 116.261 172.701C115.626 172.3 114.98 171.899 114.266 171.669C113.806 171.523 113.327 171.454 112.872 171.288C112.461 171.141 112.046 170.911 111.61 170.975C111.478 170.994 111.307 171.024 111.243 170.906C111.219 170.862 111.219 170.809 111.229 170.76C111.327 170.212 112.227 170.031 112.672 170.002C113.273 169.958 113.88 170.07 114.481 170.104C115.856 170.178 116.305 168.554 117.724 168.598C118.237 168.613 118.707 168.906 119.044 169.292C119.225 169.498 119.372 169.733 119.499 169.977H119.494Z" fill="#222221"/>
<path d="M69.6133 150.795L73.7265 163.688L116.59 164.759L121.593 151.358L69.6133 150.795Z" fill="white"/>
<path d="M116.649 164.866L112.301 164.451" stroke="#222221" stroke-linecap="round" stroke-linejoin="round"/>
<path d="M73.5996 163.785C77.7519 163.785 100.939 164.793 107.865 164.534" stroke="#222221" stroke-linecap="round" stroke-linejoin="round"/>
<path d="M118.253 154.146C118.033 154.723 117.862 155.314 117.744 155.921" stroke="#222221" stroke-linecap="round" stroke-linejoin="round"/>
<path d="M117.269 157.359C116.834 158.997 116.286 160.601 115.621 162.157" stroke="#222221" stroke-linecap="round" stroke-linejoin="round"/>
<path d="M72.4111 153.211C73.4822 156.302 74.4311 159.432 75.2576 162.592" stroke="#222221" stroke-linecap="round" stroke-linejoin="round"/>
<path d="M76.1865 157.188C76.387 158.004 76.5876 158.821 76.7832 159.633" stroke="#222221" stroke-linecap="round" stroke-linejoin="round"/>
<path d="M94.2637 164.274C94.3224 163.516 94.3811 162.753 94.4397 161.995" stroke="#222221" stroke-linecap="round" stroke-linejoin="round"/>
<path d="M99.6035 164.451C100.005 163.751 100.337 163.013 100.601 162.245" stroke="#222221" stroke-linecap="round" stroke-linejoin="round"/>
<path d="M105.292 164.651C106.182 163.555 106.93 162.347 107.512 161.061" stroke="#222221" stroke-linecap="round" stroke-linejoin="round"/>
</svg>
