<svg width="140" height="118" viewBox="0 0 140 118" fill="none" xmlns="http://www.w3.org/2000/svg">
<g id="VET" clip-path="url(#clip0_3055_117333)">
<g id="Background Complete">
<g id="Group">
<path id="Vector" d="M70.7824 3.91846H4.6543V43.2868H70.7824V3.91846Z" fill="#F5F5F5"/>
<path id="Vector_2" d="M15.0118 13.3245C15.0118 13.3245 14.0859 12.8616 13.4964 13.4295C13.288 13.6313 13.2314 14.2934 14.0472 14.4252C14.0472 14.4252 15.8127 14.3364 16.6166 14.2046C17.4204 14.0727 19.2485 13.346 19.2485 13.346L20.1982 11.4298C20.1982 11.4298 20.3203 10.5282 20.4423 10.504C20.5644 10.4825 20.9306 11.4298 20.9306 11.4298L22.976 11.9573L23.1963 12.3314L21.541 12.9477C21.541 12.9477 21.7851 15.3268 21.5648 15.744C21.3445 16.1611 20.7133 16.6698 20.7133 16.6698L20.8115 20.1281C20.8115 20.1281 21.1777 19.9962 21.2015 20.2385H20.228C20.228 20.2385 19.838 18.08 19.2782 17.9266L19.4241 17.025L15.5983 16.7398C15.5983 16.7398 15.8663 17.5552 14.7707 18.2146C13.675 18.874 13.1867 19.4041 13.1867 19.4041V20.0635C13.1867 20.0635 13.5023 20.1739 13.5291 20.4161H12.3591C12.3591 20.4161 12.505 18.5887 12.3591 18.2792C12.3591 18.2792 13.7941 16.9524 13.6006 15.3295C13.6006 15.3295 11.969 14.9554 12.3591 13.5237C12.7491 12.0919 14.5771 12.0704 15.0148 13.3245H15.0118Z" fill="#E0E0E0"/>
<path id="Vector_3" d="M15.2567 24.3482C15.2567 24.3482 14.6821 24.0602 14.3159 24.4128C14.1849 24.5393 14.1521 24.9484 14.6583 25.0318C14.6583 25.0318 15.7569 24.978 16.2541 24.8945C16.7543 24.8111 17.8886 24.3617 17.8886 24.3617L18.4781 23.1721C18.4781 23.1721 18.5525 22.6123 18.6299 22.5962C18.7044 22.5827 18.9336 23.1721 18.9336 23.1721L20.2049 23.5005L20.3419 23.7319L19.3117 24.1141C19.3117 24.1141 19.4636 25.5916 19.3266 25.8526C19.1897 26.1137 18.7967 26.4286 18.7967 26.4286L18.8562 28.5762C18.8562 28.5762 19.0825 28.4928 19.0974 28.6435H18.493C18.493 28.6435 18.2518 27.3033 17.9035 27.2064L17.9958 26.6466L15.6199 26.469C15.6199 26.469 15.7866 26.9749 15.1048 27.3867C14.4231 27.7985 14.1194 28.1268 14.1194 28.1268V28.5386C14.1194 28.5386 14.3159 28.6058 14.3308 28.7566H13.6043C13.6043 28.7566 13.6966 27.6208 13.6043 27.4297C13.6043 27.4297 14.4975 26.6062 14.3754 25.597C14.3754 25.597 13.3602 25.3655 13.6043 24.4747C13.8455 23.5839 14.9828 23.5704 15.2537 24.3509L15.2567 24.3482Z" fill="#E0E0E0"/>
<path id="Vector_4" d="M14.8395 33.4986C14.8395 33.4986 14.4049 33.2833 14.131 33.5471C14.0327 33.6413 14.0089 33.9508 14.39 34.0127C14.39 34.0127 15.2177 33.9723 15.5928 33.9104C15.9679 33.8485 16.8254 33.5094 16.8254 33.5094L17.269 32.6132C17.269 32.6132 17.3256 32.1906 17.3821 32.1799C17.4387 32.1691 17.6114 32.6132 17.6114 32.6132L18.5701 32.8608L18.6713 33.0357L17.8972 33.3237C17.8972 33.3237 18.0103 34.4379 17.9091 34.6317C17.8079 34.8281 17.5102 35.065 17.5102 35.065L17.5548 36.6824C17.5548 36.6824 17.7245 36.6205 17.7364 36.7336H17.2809C17.2809 36.7336 17.0993 35.7243 16.8373 35.6517L16.9058 35.2291L15.1164 35.0946C15.1164 35.0946 15.2415 35.4767 14.7294 35.7862C14.2173 36.0957 13.988 36.3433 13.988 36.3433V36.6528C13.988 36.6528 14.1369 36.704 14.1488 36.817H13.601C13.601 36.817 13.6695 35.9612 13.601 35.8158C13.601 35.8158 14.2739 35.1941 14.1816 34.4352C14.1816 34.4352 13.4164 34.2603 13.601 33.5901C13.7826 32.92 14.6401 32.9092 14.8455 33.4986H14.8395Z" fill="#E0E0E0"/>
<path id="Vector_5" d="M60.7877 14.8693C60.7877 14.907 53.9102 14.9393 45.431 14.9393C36.9517 14.9393 30.0742 14.907 30.0742 14.8693C30.0742 14.8316 36.9487 14.7993 45.431 14.7993C53.9132 14.7993 60.7877 14.8316 60.7877 14.8693Z" fill="#E0E0E0"/>
<path id="Vector_6" d="M60.7877 15.9406C60.7877 15.9783 53.9102 16.0106 45.431 16.0106C36.9517 16.0106 30.0742 15.9783 30.0742 15.9406C30.0742 15.9029 36.9487 15.8706 45.431 15.8706C53.9132 15.8706 60.7877 15.9029 60.7877 15.9406Z" fill="#E0E0E0"/>
<path id="Vector_7" d="M60.7877 17.0116C60.7877 17.0493 53.9102 17.0816 45.431 17.0816C36.9517 17.0816 30.0742 17.0493 30.0742 17.0116C30.0742 16.9739 36.9487 16.9417 45.431 16.9417C53.9132 16.9417 60.7877 16.9739 60.7877 17.0116Z" fill="#E0E0E0"/>
<path id="Vector_8" d="M60.7877 18.0827C60.7877 18.1203 53.9102 18.1526 45.431 18.1526C36.9517 18.1526 30.0742 18.1203 30.0742 18.0827C30.0742 18.045 36.9487 18.0127 45.431 18.0127C53.9132 18.0127 60.7877 18.045 60.7877 18.0827Z" fill="#E0E0E0"/>
<path id="Vector_9" d="M60.7877 24.1488C60.7877 24.1865 53.9102 24.2188 45.431 24.2188C36.9517 24.2188 30.0742 24.1865 30.0742 24.1488C30.0742 24.1112 36.9487 24.0789 45.431 24.0789C53.9132 24.0789 60.7877 24.1112 60.7877 24.1488Z" fill="#E0E0E0"/>
<path id="Vector_10" d="M60.7877 25.2201C60.7877 25.2578 53.9102 25.2901 45.431 25.2901C36.9517 25.2901 30.0742 25.2578 30.0742 25.2201C30.0742 25.1824 36.9487 25.1501 45.431 25.1501C53.9132 25.1501 60.7877 25.1824 60.7877 25.2201Z" fill="#E0E0E0"/>
<path id="Vector_11" d="M60.7877 26.2912C60.7877 26.3288 53.9102 26.3611 45.431 26.3611C36.9517 26.3611 30.0742 26.3288 30.0742 26.2912C30.0742 26.2535 36.9487 26.2212 45.431 26.2212C53.9132 26.2212 60.7877 26.2535 60.7877 26.2912Z" fill="#E0E0E0"/>
<path id="Vector_12" d="M60.7877 27.3598C60.7877 27.3974 53.9102 27.4297 45.431 27.4297C36.9517 27.4297 30.0742 27.3974 30.0742 27.3598C30.0742 27.3221 36.9487 27.2898 45.431 27.2898C53.9132 27.2898 60.7877 27.3221 60.7877 27.3598Z" fill="#E0E0E0"/>
<path id="Vector_13" d="M60.7877 33.4286C60.7877 33.4663 53.9102 33.4986 45.431 33.4986C36.9517 33.4986 30.0742 33.4663 30.0742 33.4286C30.0742 33.3909 36.9487 33.3586 45.431 33.3586C53.9132 33.3586 60.7877 33.3909 60.7877 33.4286Z" fill="#E0E0E0"/>
<path id="Vector_14" d="M60.7877 34.497C60.7877 34.5347 53.9102 34.567 45.431 34.567C36.9517 34.567 30.0742 34.5347 30.0742 34.497C30.0742 34.4593 36.9487 34.427 45.431 34.427C53.9132 34.427 60.7877 34.4593 60.7877 34.497Z" fill="#E0E0E0"/>
<path id="Vector_15" d="M60.7877 35.568C60.7877 35.6057 53.9102 35.638 45.431 35.638C36.9517 35.638 30.0742 35.6057 30.0742 35.568C30.0742 35.5303 36.9487 35.498 45.431 35.498C53.9132 35.498 60.7877 35.5303 60.7877 35.568Z" fill="#E0E0E0"/>
<path id="Vector_16" d="M60.7877 36.6393C60.7877 36.677 53.9102 36.7093 45.431 36.7093C36.9517 36.7093 30.0742 36.677 30.0742 36.6393C30.0742 36.6016 36.9487 36.5693 45.431 36.5693C53.9132 36.5693 60.7877 36.6016 60.7877 36.6393Z" fill="#E0E0E0"/>
<path id="Vector_17" d="M58.0632 9.52713C58.0632 9.91468 51.2393 10.2269 42.8255 10.2269C34.4118 10.2269 27.5879 9.91199 27.5879 9.52713C27.5879 9.14228 34.4088 8.82739 42.8255 8.82739C51.2423 8.82739 58.0632 9.14228 58.0632 9.52713Z" fill="#E0E0E0"/>
</g>
<g id="Group_2">
<path id="Vector_18" d="M108.335 3.0304H107.498V1.59863C107.498 1.13304 107.129 0.756255 106.673 0.756255H100.305C99.8493 0.756255 99.4802 1.13304 99.4802 1.59863V3.0304H98.6436V1.59863C98.6436 0.715885 99.3908 0 100.308 0H106.676C107.593 0 108.341 0.715885 108.341 1.59863V3.0304H108.335Z" fill="#EBEBEB"/>
<g id="Group_3">
<path id="Vector_19" d="M117.18 3.03052H89.6606C88.1594 3.03052 86.9424 4.13062 86.9424 5.48767V20.4917C86.9424 21.8487 88.1594 22.9488 89.6606 22.9488H117.18C118.681 22.9488 119.898 21.8487 119.898 20.4917V5.48767C119.898 4.13062 118.681 3.03052 117.18 3.03052Z" fill="#EBEBEB"/>
<g id="Group_4">
<g id="Group_5">
<path id="Vector_20" d="M104.475 8.96753H102.498V16.9741H104.475V8.96753Z" fill="#F5F5F5"/>
<path id="Vector_21" d="M99.0566 12.076V13.863H107.914V12.076H99.0566Z" fill="#F5F5F5"/>
</g>
<path id="Vector_22" d="M110.841 12.9909C110.841 12.9909 110.835 12.9532 110.826 12.8833C110.82 12.8052 110.811 12.7003 110.799 12.5657C110.793 12.4957 110.787 12.4177 110.781 12.3316C110.772 12.2454 110.752 12.1539 110.734 12.0544C110.698 11.8525 110.662 11.6211 110.579 11.3681C110.448 10.854 110.18 10.2458 109.757 9.60258C109.331 8.96205 108.721 8.29192 107.887 7.72405C107.057 7.16157 106.012 6.68521 104.806 6.49144C103.606 6.30574 102.254 6.34073 100.965 6.7821C100.638 6.87629 100.328 7.02431 100.013 7.16157C99.7118 7.32574 99.3962 7.47645 99.1164 7.68368C98.8186 7.86938 98.5596 8.09814 98.2887 8.32152C98.0416 8.56643 97.7855 8.80865 97.5741 9.08854C97.1395 9.63487 96.7584 10.2404 96.5291 10.9079C96.2909 11.5699 96.1629 12.275 96.151 12.9909C96.1629 13.7068 96.288 14.4119 96.5261 15.074C96.7554 15.7414 97.1365 16.347 97.5712 16.8933C97.7825 17.1732 98.0416 17.4127 98.2857 17.6603C98.5566 17.8837 98.8186 18.1125 99.1134 18.2982C99.3932 18.5027 99.7088 18.6561 100.01 18.8203C100.325 18.9575 100.635 19.1056 100.962 19.1997C102.251 19.6438 103.603 19.6761 104.803 19.4904C106.009 19.2966 107.057 18.8203 107.884 18.2578C108.715 17.6899 109.328 17.0225 109.751 16.3793C110.171 15.736 110.439 15.1278 110.573 14.6138C110.659 14.3608 110.692 14.1267 110.728 13.9275C110.746 13.8279 110.766 13.7337 110.775 13.6503C110.781 13.5642 110.787 13.4888 110.793 13.4161C110.805 13.2816 110.811 13.1766 110.82 13.0986C110.826 13.0259 110.832 12.9909 110.835 12.9909C110.838 12.9909 110.838 13.0286 110.835 13.0986C110.835 13.1766 110.829 13.2816 110.826 13.4161C110.826 13.4861 110.82 13.5642 110.817 13.6503C110.808 13.7364 110.79 13.8306 110.775 13.9302C110.743 14.132 110.713 14.3689 110.632 14.6245C110.51 15.144 110.248 15.7603 109.829 16.4169C109.406 17.0682 108.792 17.7518 107.953 18.3332C107.116 18.9091 106.053 19.4016 104.827 19.6008C103.606 19.7945 102.228 19.7649 100.912 19.3182C100.578 19.2213 100.263 19.0733 99.9381 18.9333C99.6314 18.7665 99.3069 18.613 99.0211 18.4031C98.7174 18.2147 98.4524 17.9806 98.1755 17.7545C97.9255 17.5042 97.6605 17.2593 97.4431 16.974C96.9995 16.4169 96.6095 15.7979 96.3743 15.117C96.1302 14.4388 95.9992 13.7203 95.9902 12.9882C96.0021 12.2562 96.1331 11.5376 96.3773 10.8594C96.6125 10.1785 96.9995 9.55952 97.4461 9.00242C97.6635 8.71714 97.9255 8.47223 98.1785 8.22194C98.4554 7.99587 98.7234 7.76173 99.0241 7.57334C99.3099 7.36342 99.6314 7.21001 99.9381 7.04315C100.263 6.90321 100.575 6.75518 100.912 6.6583C102.228 6.21154 103.606 6.17925 104.827 6.37571C106.053 6.57756 107.116 7.06738 107.953 7.64331C108.792 8.22463 109.406 8.90822 109.829 9.55952C110.248 10.2135 110.51 10.8298 110.632 11.3519C110.713 11.6076 110.746 11.8444 110.775 12.0463C110.79 12.1485 110.808 12.2401 110.817 12.3262C110.82 12.4123 110.823 12.4903 110.826 12.5603C110.829 12.6949 110.835 12.7998 110.835 12.8779C110.835 12.9506 110.835 12.9855 110.835 12.9855L110.841 12.9909Z" fill="#F5F5F5"/>
</g>
</g>
<g id="Group_6">
<path id="Vector_23" d="M129.762 4.49716V1.4856H127.416V4.49716H125.061V21.7242H131.953V4.49716H129.765H129.762Z" fill="#EBEBEB"/>
<path id="Vector_24" d="M140 21.7241H83.1465V24.3454H140V21.7241Z" fill="#E0E0E0"/>
<path id="Vector_25" d="M95.9161 24.3455H94.2607V30.5435H95.9161V24.3455Z" fill="#E0E0E0"/>
<path id="Vector_26" d="M129.018 24.3455H127.362V30.5435H129.018V24.3455Z" fill="#E0E0E0"/>
<path id="Vector_27" d="M116.939 9.13166V6.93018H115.224V9.13166H113.5V21.7242H118.538V9.13166H116.936H116.939Z" fill="#FAFAFA"/>
<path id="Vector_28" d="M122.657 9.13166V6.93018H120.943V9.13166H119.219V21.7242H124.256V9.13166H122.655H122.657Z" fill="#F5F5F5"/>
<g id="Group_7">
<path id="Vector_29" d="M94.2579 13.5427H85.207V21.7243H94.2579V13.5427Z" fill="#E0E0E0"/>
<path id="Vector_30" d="M94.2159 15.6447C94.2159 15.6986 92.2181 15.7389 89.753 15.7389C87.2878 15.7389 85.29 15.6959 85.29 15.6447C85.29 15.5936 87.2878 15.5505 89.753 15.5505C92.2181 15.5505 94.2159 15.5936 94.2159 15.6447Z" fill="#EBEBEB"/>
<path id="Vector_31" d="M90.078 16.7239C90.078 16.7239 90.1108 16.7239 90.1703 16.7346C90.2299 16.7454 90.3133 16.7804 90.4115 16.8369C90.608 16.9526 90.8283 17.2164 90.9087 17.5905C90.9831 17.9511 90.998 18.4409 90.6765 18.8769C90.5217 19.0868 90.2775 19.2779 89.9739 19.3587C89.6731 19.4421 89.3427 19.4259 89.033 19.3506C88.4138 19.2079 87.8779 18.7773 87.7766 18.2552C87.6575 17.7493 87.8808 17.2675 88.2024 17.0172C88.5239 16.7616 88.8752 16.6943 89.1045 16.6889C89.3367 16.6835 89.4588 16.732 89.4558 16.74C89.4558 16.7562 89.3278 16.7346 89.1134 16.7616C88.902 16.7885 88.5835 16.8719 88.3066 17.1141C88.0327 17.3483 87.854 17.7735 87.9701 18.2149C88.0684 18.6589 88.5299 19.0303 89.0926 19.1622C89.3724 19.2322 89.6642 19.2429 89.9173 19.1757C90.1704 19.1111 90.3788 18.955 90.5217 18.772C90.8105 18.4033 90.8194 17.9511 90.7688 17.612C90.7122 17.2648 90.5336 17.0172 90.3698 16.8934C90.2031 16.7696 90.078 16.7373 90.087 16.7185L90.078 16.7239Z" fill="#EBEBEB"/>
</g>
</g>
</g>
<g id="Group_8">
<g id="Group_9">
<path id="Vector_32" d="M9.95057 81.6701C8.05405 80.7846 5.82111 80.6716 3.71618 80.9865C2.58482 81.156 1.40582 81.4602 0.637684 82.2299C-0.13045 82.9969 -0.276336 84.3479 0.604934 85.01C1.13191 85.4029 1.86432 85.4621 2.54611 85.454C4.19254 85.4379 6.02356 85.1742 7.33951 86.0704C8.08978 86.5817 8.58996 87.4321 9.4891 87.6824C10.3674 87.9273 11.3588 87.4591 11.8263 86.7432C12.2907 86.0273 12.3086 85.1311 12.0912 84.3237C12.0912 84.3237 11.862 82.5636 9.95355 81.6728L9.95057 81.6701Z" fill="#EBEBEB"/>
<path id="Vector_33" d="M14.2948 74.0887C13.1367 75.5851 10.8829 75.0899 9.83786 74.1775C8.79284 73.2652 8.35221 71.9411 7.95028 70.6762C7.03328 67.7911 6.10735 64.7634 6.78914 61.8272C6.99457 60.9498 7.3578 60.0724 8.0396 59.4211C8.72139 58.7698 9.77236 58.3823 10.731 58.6111C11.8684 58.8829 12.574 59.8894 13.0831 60.8448C14.5836 63.6572 15.3786 66.7765 15.3905 69.8984C15.3964 71.3571 15.2059 72.8857 14.2948 74.0887Z" fill="#EBEBEB"/>
<path id="Vector_34" d="M17.4772 76.2364C16.2179 74.8854 15.9797 72.9154 16.5394 71.2252C17.0991 69.5324 18.3645 68.0952 19.8233 66.9191C21.5323 65.5412 23.5419 64.4701 25.7034 63.7838C26.5549 63.5147 27.4511 63.2993 28.3472 63.3774C29.2434 63.4554 30.1485 63.8699 30.5653 64.5912C31.1846 65.6569 30.5921 66.9514 29.949 68.0091C28.8176 69.8688 27.5255 71.6478 26.0875 73.3244C24.9293 74.6728 23.6045 76.005 21.8389 76.6132C20.0734 77.2241 18.2424 77.1515 17.3075 76.0453" fill="#EBEBEB"/>
<path id="Vector_35" d="M14.3717 96.6688C14.3509 96.6688 14.3151 96.4265 14.2675 95.9879C14.2139 95.4927 14.1484 94.871 14.068 94.1309C13.9728 93.3504 13.8447 92.4192 13.6066 91.4073C13.3684 90.398 12.9932 89.3027 12.5109 88.1939C12.0137 87.0904 11.4064 86.0893 10.6948 85.2873C9.98917 84.4826 9.17043 83.8985 8.39931 83.5621C7.63118 83.2203 6.94343 83.0804 6.46707 83.0185C5.98773 82.9727 5.7168 82.9404 5.7168 82.9216C5.7168 82.9028 5.98475 82.9001 6.47898 82.9108C6.96725 82.9404 7.68477 83.0508 8.49459 83.3845C9.30738 83.7101 10.1767 84.3022 10.9151 85.1231C11.6594 85.9412 12.2906 86.9666 12.7967 88.0889C13.285 89.2192 13.6542 90.3227 13.8834 91.3534C14.1127 92.3842 14.2169 93.3235 14.2824 94.1093C14.3479 94.8979 14.3717 95.5357 14.3836 95.9771C14.3955 96.4185 14.3896 96.6634 14.3687 96.6634L14.3717 96.6688Z" fill="#E0E0E0"/>
<path id="Vector_36" d="M14.2324 95.2396C14.2324 95.2396 14.2146 95.1293 14.2116 94.9248C14.2116 94.6879 14.2116 94.3892 14.2116 94.0232C14.2116 93.24 14.2116 92.107 14.1669 90.7075C14.0895 87.9085 13.8245 84.897 13.3095 80.6474C12.8212 76.6535 12.1662 72.0057 11.4755 68.9833C11.3266 68.2971 11.1778 67.6781 11.0378 67.1371C10.9038 66.5935 10.7907 66.1252 10.6805 65.7484C10.5853 65.3931 10.5079 65.1025 10.4483 64.871C10.3977 64.6692 10.3769 64.5615 10.3858 64.5588C10.3947 64.5588 10.4364 64.6584 10.5079 64.8549C10.5853 65.0809 10.6805 65.3689 10.7967 65.7188C10.9247 66.0929 11.0557 66.5585 11.2075 67.0994C11.3653 67.6377 11.5291 68.2567 11.6898 68.943C12.3746 71.68 13.0981 75.507 13.6161 79.7647C14.1312 84.0196 14.3634 87.8951 14.3843 90.7021C14.4021 92.1043 14.3694 93.24 14.3307 94.0259C14.3069 94.3919 14.286 94.6906 14.2711 94.9275C14.2533 95.1347 14.2384 95.2423 14.2294 95.2396H14.2324Z" fill="#E0E0E0"/>
<path id="Vector_37" d="M14.2112 87.7659C14.1904 87.7659 14.1933 87.4295 14.2172 86.824C14.2559 86.2184 14.3482 85.3438 14.5357 84.2699C14.7352 83.1988 15.0151 81.9285 15.4557 80.5479C15.6462 79.9154 16.0928 78.4056 17.1766 76.1449C18.6056 73.0822 20.5438 70.5793 22.232 69.0291C22.6279 68.6173 23.0686 68.3213 23.4199 68.0306C23.6015 67.8907 23.7623 67.7534 23.929 67.6431C24.0928 67.5408 24.2476 67.4439 24.3905 67.3551C24.9472 67.0106 25.2569 66.8303 25.2688 66.8465C25.3194 66.9084 24.0243 67.5973 22.3898 69.1664C20.7612 70.7354 18.8766 73.2194 17.4594 76.2552C16.6704 77.9023 16.1196 79.3718 15.7296 80.6178C15.2771 81.985 14.9793 83.2418 14.7531 84.3022C14.5387 85.3653 14.4137 86.2319 14.3392 86.832C14.2767 87.4322 14.232 87.7659 14.2112 87.7659Z" fill="#E0E0E0"/>
</g>
<path id="Vector_38" d="M22.2019 100.951L21.3742 111.21H6.79155L5.96387 100.951H22.2019Z" fill="#E0E0E0"/>
<path id="Vector_39" d="M23.6106 96.9055H4.22266V100.951H23.6106V96.9055Z" fill="#E0E0E0"/>
<path id="Vector_40" d="M23.6104 110.817V111.939H22.6993H4.54395V110.817H23.6104Z" fill="#EBEBEB"/>
<path id="Vector_41" d="M21.8058 113.912L22.699 111.939H5.2373L6.27935 113.912H21.8058Z" fill="#E0E0E0"/>
<path id="Vector_42" d="M6.23535 104.304C6.23535 104.304 6.25619 104.339 6.30383 104.398C6.3604 104.468 6.43483 104.554 6.52117 104.659C6.72958 104.899 7.01242 105.227 7.36969 105.642L7.40839 105.685L7.44412 105.639C7.97705 104.971 8.6916 104.081 9.53119 103.031H9.4121C10.0314 103.825 10.7251 104.71 11.4664 105.66L11.5319 105.744L11.6034 105.666C12.3626 104.85 13.1843 103.965 14.0388 103.044H13.8988C13.9405 103.09 13.9882 103.144 14.0328 103.195C14.789 104.051 15.5185 104.88 16.2122 105.663L16.2836 105.747L16.3521 105.66C17.0905 104.713 17.7842 103.83 18.4064 103.031L18.2873 103.036C19.2996 104.081 20.16 104.966 20.818 105.644L20.8627 105.69L20.8984 105.639C21.2318 105.133 21.4968 104.729 21.6903 104.436C21.7737 104.304 21.8392 104.199 21.8928 104.116C21.9375 104.043 21.9583 104.003 21.9553 104.003C21.9523 104.003 21.9226 104.035 21.869 104.105C21.8094 104.186 21.735 104.288 21.6427 104.414C21.4403 104.702 21.1604 105.098 20.812 105.596L20.8924 105.59C20.2434 104.904 19.3978 104.008 18.4005 102.95L18.3379 102.883L18.2814 102.956C17.6502 103.752 16.9535 104.632 16.2062 105.574H16.3461C15.6554 104.786 14.926 103.957 14.1727 103.098C14.1281 103.047 14.0804 102.993 14.0388 102.945L13.9703 102.867L13.8988 102.945C13.0473 103.865 12.2256 104.753 11.4694 105.572L11.6063 105.577C10.8561 104.632 10.1594 103.75 9.53119 102.961L9.47164 102.883L9.4121 102.961C8.59037 104.021 7.89071 104.923 7.36969 105.598H7.44412C7.07196 105.192 6.77721 104.872 6.55987 104.638C6.4646 104.538 6.38719 104.455 6.32467 104.39C6.27108 104.336 6.24131 104.307 6.23833 104.309L6.23535 104.304Z" fill="#F5F5F5"/>
<path id="Vector_43" d="M5.76172 100.883C5.76172 100.929 9.41482 100.964 13.9224 100.964C18.43 100.964 22.0831 100.926 22.0831 100.883C22.0831 100.84 18.43 100.802 13.9224 100.802C9.41482 100.802 5.76172 100.84 5.76172 100.883Z" fill="#F5F5F5"/>
<path id="Vector_44" d="M5.02344 112.049C5.02344 112.095 8.99511 112.13 13.8927 112.13C18.7903 112.13 22.762 112.093 22.762 112.049C22.762 112.006 18.7933 111.969 13.8927 111.969C8.99213 111.969 5.02344 112.006 5.02344 112.049Z" fill="#F5F5F5"/>
</g>
<g id="Group_10">
<path id="Vector_45" d="M133.218 33.9695H105.723V59.8786H133.218V33.9695Z" fill="#E0E0E0"/>
<path id="Vector_46" d="M131.357 33.9695H103.862V59.8786H131.357V33.9695Z" fill="#EBEBEB"/>
<path id="Vector_47" d="M127.659 37.4519H107.557V56.396H127.659V37.4519Z" fill="#FAFAFA"/>
<path id="Vector_48" d="M107.557 56.5225C107.572 56.536 107.379 56.7325 107.054 57.0366C106.733 57.3407 106.28 57.7552 105.774 58.2046C105.268 58.654 104.803 59.0577 104.464 59.343C104.122 59.6283 103.904 59.8005 103.889 59.7871C103.875 59.7736 104.068 59.5799 104.39 59.273C104.711 58.9689 105.167 58.5545 105.673 58.1023C106.179 57.6502 106.643 57.2492 106.986 56.9612C107.328 56.6759 107.546 56.5037 107.557 56.5198V56.5225Z" fill="#E0E0E0"/>
<path id="Vector_49" d="M127.662 56.4768C127.677 56.4633 127.895 56.6383 128.231 56.9316C128.567 57.2223 129.026 57.6314 129.523 58.0889C130.02 58.5464 130.467 58.9662 130.783 59.2731C131.098 59.5826 131.289 59.779 131.274 59.7925C131.259 59.8059 131.045 59.631 130.705 59.3403C130.369 59.0497 129.91 58.6379 129.41 58.1804C128.91 57.7229 128.463 57.303 128.148 56.9935C127.832 56.684 127.641 56.4876 127.659 56.4768H127.662Z" fill="#E0E0E0"/>
<path id="Vector_50" d="M127.606 37.5031C127.591 37.4896 127.785 37.2932 128.109 36.989C128.431 36.6849 128.884 36.2705 129.39 35.821C129.896 35.3716 130.36 34.9679 130.7 34.6826C131.042 34.3973 131.259 34.2251 131.274 34.2385C131.289 34.252 131.096 34.4458 130.774 34.7526C130.453 35.0567 129.997 35.4711 129.491 35.9233C128.985 36.3754 128.52 36.7791 128.178 37.0644C127.836 37.3497 127.618 37.5219 127.606 37.5058V37.5031Z" fill="#E0E0E0"/>
<path id="Vector_51" d="M107.504 37.5488C107.489 37.5623 107.272 37.3873 106.935 37.094C106.599 36.8033 106.14 36.3943 105.643 35.9367C105.146 35.4792 104.699 35.0594 104.384 34.7526C104.068 34.4431 103.878 34.2466 103.892 34.2331C103.907 34.2197 104.122 34.3946 104.461 34.6853C104.797 34.9759 105.256 35.3877 105.756 35.8452C106.256 36.3028 106.7 36.7226 107.019 37.0321C107.334 37.3416 107.525 37.5381 107.507 37.5488H107.504Z" fill="#E0E0E0"/>
<path id="Vector_52" d="M127.606 56.3961C127.606 56.3961 127.606 56.3638 127.603 56.3046C127.603 56.2427 127.603 56.1539 127.6 56.0408C127.6 55.804 127.597 55.4622 127.591 55.0182C127.588 54.122 127.582 52.8167 127.573 51.1588C127.564 47.8405 127.552 43.1145 127.54 37.452L127.606 37.5113C121.753 37.5113 114.881 37.5166 107.56 37.5193L107.634 37.452C107.631 44.4064 107.625 50.9112 107.622 56.3961L107.557 56.3369C113.568 56.3503 118.57 56.3584 122.077 56.3665C123.831 56.3719 125.209 56.3773 126.153 56.3826C126.62 56.3853 126.981 56.388 127.231 56.3907C127.35 56.3907 127.442 56.3907 127.508 56.3934C127.57 56.3934 127.603 56.3961 127.603 56.3961C127.603 56.3961 127.573 56.3961 127.514 56.3988C127.448 56.3988 127.359 56.3988 127.243 56.4015C126.996 56.4015 126.641 56.4042 126.177 56.4096C125.236 56.4122 123.863 56.4176 122.116 56.4257C118.6 56.4338 113.583 56.4445 107.554 56.4553H107.488V56.3961C107.485 50.9112 107.483 44.4064 107.477 37.452V37.3848H107.551C114.872 37.3875 121.747 37.3901 127.597 37.3928H127.662V37.452C127.648 43.1307 127.636 47.8701 127.63 51.1965C127.624 52.849 127.618 54.1489 127.612 55.0424C127.609 55.4811 127.606 55.8202 127.603 56.0516C127.603 56.162 127.603 56.2481 127.6 56.31C127.6 56.3665 127.597 56.3934 127.597 56.3934L127.606 56.3961Z" fill="#E0E0E0"/>
<g id="Group_11">
<path id="Vector_53" d="M112.862 45.3669C112.862 45.3669 112.43 50.0579 118.052 50.0579C118.052 47.555 115.768 45.5796 112.862 45.3669Z" fill="#EBEBEB"/>
<path id="Vector_54" d="M123.145 45.3697C123.145 45.3697 117.956 44.9795 117.956 50.0606C120.725 50.0606 122.91 47.9964 123.145 45.3697Z" fill="#EBEBEB"/>
<path id="Vector_55" d="M117.802 42.8022C117.802 42.8022 113.562 46.2417 118.034 50.0553C120.112 48.0637 119.936 44.9418 117.802 42.8022Z" fill="#E0E0E0"/>
</g>
</g>
</g>
<g id="Table">
<path id="Vector_56" d="M133.524 113.944C133.524 113.982 105.291 114.014 70.4716 114.014C35.6525 114.014 7.41309 113.982 7.41309 113.944C7.41309 113.907 35.6405 113.874 70.4716 113.874C105.303 113.874 133.524 113.907 133.524 113.944Z" fill="#263238"/>
</g>
<g id="Characters">
<g id="Group_12">
<path id="Vector_57" d="M58.682 65.2114C58.682 65.2114 52.6828 64.3426 52.1826 64.3591C51.6824 64.3757 46.9248 65.239 46.9248 65.239C46.9248 65.239 40.1932 66.3451 39.5144 66.7947C38.8355 67.2443 39.3357 68.6676 39.3357 68.6676C40.083 68.9352 42.438 68.5104 42.438 68.5104C42.438 68.5104 42.4291 69.0952 42.8519 69.8868C43.2746 70.6784 44.4298 70.4798 44.4298 70.4798L43.5277 70.9101C43.5277 70.9101 43.6021 71.5473 43.9326 72.372C44.2631 73.1968 46.4067 73.0782 46.4067 73.0782C46.4067 73.0782 46.9754 74.2587 47.8626 74.4601C48.7498 74.6587 53.3854 73.6519 54.7609 73.5112C56.1364 73.3705 58.7743 71.8645 58.7743 71.8645C58.7743 71.8645 60.8048 72.5293 62.0076 72.7554L62.6834 64.6598C62.1892 64.6184 58.682 65.2142 58.682 65.2142V65.2114Z" fill="#455A64"/>
<path id="Vector_58" d="M34.6493 90.8998C32.0918 90.304 30.1536 88.2298 29.2753 85.9266C28.397 83.6234 28.4298 81.1078 28.6918 78.675C28.7394 78.2226 28.793 77.7399 28.5757 77.3317C28.2303 76.6835 27.2925 76.4573 26.5452 76.6697C25.7979 76.8848 25.2203 77.431 24.7439 78.0019C22.1209 81.1409 21.7131 85.7307 23.7495 89.2255C25.783 92.7203 30.1477 94.9242 34.42 94.618" fill="#FF725E"/>
<path id="Vector_59" d="M54.0222 68.0304C54.0222 68.0304 60.0154 77.6486 61.5309 81.5158C63.0463 85.383 64.9756 96.0163 64.9756 96.0163C64.9756 96.0163 73.9758 98.165 68.3994 107.127C66.3391 110.44 66.5237 111.979 64.2134 112.075C62.4121 112.152 47.9218 112.05 47.9218 112.05L48.1838 113.366C48.1838 113.366 46.972 117.167 44.5158 116.094C42.0595 115.021 39.1716 112.05 39.1716 112.05L34.9528 111.998L24.8986 112.05L21.957 111.998C21.957 111.973 21.963 111.948 21.966 111.924C22.1654 110.412 23.3147 109.151 24.8867 108.71L27.0422 108.103C27.0422 108.103 24.2406 97.2024 26.6671 94.5958C29.0935 91.9891 33.0414 92.1602 33.0414 92.1602L31.2282 80.9448C30.868 78.3134 31.1538 75.6433 32.0678 73.1278L33.4284 69.3792L54.0252 68.0331L54.0222 68.0304Z" fill="#FF725E"/>
<path id="Vector_60" d="M33.1996 92.5381C37.3529 94.7254 40.1604 98.3912 41.5538 102.581C41.5687 102.622 41.6401 102.606 41.6253 102.562C40.5445 99.3153 38.6271 96.3087 35.7928 94.1131C34.9949 93.4952 34.1404 92.9518 33.2353 92.4774C33.1936 92.4553 33.1549 92.516 33.1966 92.5381H33.1996Z" fill="#263238"/>
<g id="Group_13">
<path id="Vector_61" d="M33.2853 69.7681C33.2853 69.7681 31.3322 74.6062 31.1685 77.0252C30.8976 81.0413 33.0412 92.1573 33.0412 92.1573C33.0412 92.1573 32.3058 103.058 31.6687 104.672C31.0315 106.285 31.2995 107.778 28.3967 108.329C27.6107 108.478 26.2471 110.828 26.2471 111.995H34.3661C34.3661 111.995 36.5633 109.695 36.6675 107.543C36.7747 105.389 40.6332 93.7048 40.6332 93.7048" fill="#FF725E"/>
<path id="Vector_62" d="M40.6335 93.7047C40.6335 93.7047 40.6275 93.735 40.6097 93.793C40.5918 93.8564 40.565 93.9392 40.5323 94.0495C40.4608 94.2812 40.3536 94.615 40.2167 95.0508C39.9428 95.9307 39.5408 97.216 39.0347 98.8407C38.5375 100.474 37.9301 102.454 37.3228 104.738C37.1739 105.309 37.025 105.899 36.894 106.512C36.8643 106.666 36.8345 106.818 36.8047 106.975C36.7749 107.129 36.766 107.287 36.7422 107.444C36.7243 107.604 36.7065 107.767 36.6886 107.929C36.6588 108.092 36.6261 108.255 36.5844 108.418C36.2122 109.708 35.4173 110.925 34.4169 112.036L34.3991 112.059H34.3663C31.8595 112.059 29.1174 112.061 26.2473 112.064H26.1699L26.1729 111.995C26.2056 111.259 26.5183 110.575 26.8696 109.915C27.0512 109.587 27.2536 109.264 27.4948 108.964C27.6198 108.815 27.7479 108.666 27.8997 108.536C28.0396 108.401 28.2451 108.285 28.4535 108.244C29.2276 108.084 30.0344 107.819 30.5465 107.231C31.0645 106.647 31.1926 105.855 31.4367 105.108C31.4784 104.967 31.532 104.829 31.5826 104.691C31.6302 104.553 31.666 104.418 31.7076 104.283C31.7672 104.004 31.8327 103.726 31.8744 103.442C31.9696 102.879 32.0441 102.316 32.1125 101.756C32.2525 100.636 32.3597 99.5303 32.4639 98.4407C32.6663 96.2644 32.833 94.1571 32.976 92.149V92.1656C32.3597 88.8749 31.8684 85.8132 31.523 83.0659C31.3504 81.6922 31.2134 80.3986 31.1479 79.1932C31.0854 77.9906 31.0675 76.8652 31.2968 75.8722C31.5022 74.8819 31.7672 74.0103 32.0083 73.2545C32.2525 72.4988 32.4788 71.8616 32.6693 71.343C32.8598 70.8245 33.0147 70.43 33.1218 70.1652C33.1754 70.0356 33.2171 69.9363 33.2469 69.8646C33.2767 69.7984 33.2945 69.7653 33.2945 69.7653C33.2945 69.7653 33.2856 69.8011 33.2588 69.8701C33.232 69.9418 33.1933 70.0439 33.1457 70.1735C33.0474 70.4466 32.9015 70.8438 32.714 71.3596C32.5323 71.8781 32.309 72.5181 32.0738 73.2738C31.8416 74.0296 31.5826 74.9013 31.3831 75.8887C31.1598 76.8734 31.1836 77.9878 31.2521 79.1904C31.3236 80.3931 31.4635 81.684 31.6421 83.0548C31.9964 85.7966 32.4966 88.8556 33.1189 92.1435V92.1518V92.16C32.9789 94.1681 32.8182 96.2755 32.6157 98.4545C32.5145 99.5441 32.4043 100.653 32.2674 101.773C32.1989 102.333 32.1245 102.898 32.0292 103.464C31.9875 103.748 31.922 104.029 31.8625 104.313C31.8208 104.454 31.7821 104.6 31.7344 104.735C31.6838 104.87 31.6332 105.006 31.5915 105.143C31.4724 105.516 31.3772 105.894 31.2491 106.269C31.1211 106.641 30.9455 107.011 30.6745 107.317C30.4036 107.626 30.0493 107.855 29.6712 108.023C29.2961 108.197 28.8911 108.291 28.4922 108.379C28.3016 108.418 28.1528 108.503 28.0099 108.635C27.867 108.757 27.7419 108.9 27.6228 109.044C27.3876 109.336 27.1881 109.653 27.0095 109.976C26.6641 110.619 26.3605 111.306 26.3277 111.992L26.2533 111.923C29.1234 111.923 31.8654 111.926 34.3723 111.929L34.3217 111.951C35.3101 110.856 36.1021 109.648 36.4683 108.387C36.51 108.23 36.5427 108.07 36.5725 107.913C36.5904 107.753 36.6082 107.593 36.6261 107.436C36.6469 107.276 36.6618 107.113 36.6916 106.956C36.7214 106.798 36.7541 106.644 36.7839 106.49C36.9149 105.874 37.0667 105.284 37.2186 104.71C37.8378 102.424 38.4541 100.449 38.9632 98.8159C39.4753 97.1857 39.8951 95.9058 40.1839 95.0342C40.3298 94.6012 40.44 94.2702 40.5174 94.0385C40.5561 93.9281 40.5858 93.8454 40.6067 93.7847C40.6275 93.7268 40.6394 93.6992 40.6394 93.6992L40.6335 93.7047Z" fill="#263238"/>
</g>
<path id="Vector_63" d="M54.8526 74.7966C54.8526 74.7966 54.8824 74.8573 54.93 74.9759C54.9806 75.1 55.0521 75.2738 55.1444 75.5055C55.3319 75.9772 55.6029 76.6613 55.9542 77.5439C56.6479 79.3175 57.6512 81.8828 58.8153 85.0796C59.1041 85.8796 59.4019 86.7181 59.6966 87.598C59.8455 88.0366 59.9854 88.4889 60.1224 88.9523C60.2504 89.4212 60.3248 89.9067 60.3933 90.3977C60.6493 92.3699 60.7744 94.4883 60.9113 96.7142C61.0453 98.9402 61.1614 101.279 61.3371 103.698C61.4294 104.906 61.5247 106.139 61.7092 107.378C61.7569 107.687 61.8105 107.996 61.8879 108.299C61.9236 108.451 61.9712 108.603 62.0278 108.743C62.0576 108.815 62.0933 108.881 62.135 108.936C62.1558 108.961 62.1797 108.986 62.2005 108.992C62.2154 109.003 62.2749 109.016 62.3106 109.03C62.6411 109.129 62.9746 109.254 63.2604 109.449C63.4122 109.535 63.5343 109.659 63.6683 109.769C63.7814 109.899 63.9005 110.023 63.9839 110.169C64.3531 110.751 64.4245 111.446 64.2905 112.092L64.2786 112.147H64.2161C61.0781 112.15 58.0413 112.155 55.1384 112.158H55.064V112.089C55.0759 111.366 55.2456 110.682 55.4093 110.009C55.582 109.339 55.7785 108.685 55.9899 108.045V108.076C55.4391 104.763 54.9211 101.701 54.4358 98.9705C54.1887 97.6079 53.9624 96.3225 53.7034 95.1447C53.6676 94.9986 53.6409 94.8496 53.5992 94.7089L53.5396 94.4993C53.5218 94.4276 53.4771 94.3724 53.4473 94.3062C53.3074 94.058 53.1198 93.829 52.9382 93.6111C52.575 93.1725 52.1969 92.7753 51.8396 92.3975C50.3897 90.8997 49.1779 89.7633 48.3592 88.9827C47.9483 88.5965 47.6327 88.2986 47.4124 88.0917C47.3082 87.9924 47.2278 87.9179 47.1683 87.8628C47.1147 87.8104 47.0879 87.7828 47.0879 87.7828C47.0879 87.7828 47.1177 87.8049 47.1772 87.8545C47.2368 87.9069 47.3201 87.9814 47.4273 88.0752C47.6506 88.2765 47.9721 88.5717 48.389 88.9496C49.2196 89.7219 50.4403 90.8473 51.9021 92.3395C52.2624 92.7174 52.6435 93.1119 53.0126 93.5532C53.1972 93.7739 53.3848 93.9973 53.5337 94.2621C53.5664 94.331 53.6141 94.3945 53.6319 94.4662L53.6944 94.6813C53.7391 94.8248 53.7629 94.9737 53.8016 95.1199C54.0666 96.3032 54.2988 97.5831 54.5489 98.9485C55.0461 101.676 55.5701 104.741 56.1239 108.051V108.065V108.078C55.9125 108.713 55.716 109.367 55.5493 110.034C55.3885 110.702 55.2218 111.388 55.2099 112.081L55.1354 112.012C58.0353 112.006 61.0751 112.001 64.2131 111.995L64.1387 112.05C64.2637 111.449 64.1923 110.776 63.8469 110.235C63.7695 110.098 63.6564 109.982 63.5522 109.86C63.4271 109.756 63.314 109.64 63.1681 109.56C62.9002 109.372 62.5816 109.256 62.263 109.16C62.2184 109.143 62.1945 109.14 62.135 109.116C62.0725 109.091 62.0427 109.052 62.0099 109.016C61.9534 108.942 61.9147 108.865 61.8819 108.79C61.8194 108.636 61.7718 108.481 61.7331 108.327C61.6557 108.015 61.6021 107.703 61.5544 107.392C61.3698 106.145 61.2746 104.912 61.1852 103.704C61.0126 101.282 60.8994 98.9429 60.7684 96.717C60.6345 94.491 60.5154 92.3754 60.2653 90.4087C60.1968 89.9177 60.1253 89.435 60.0003 88.9771C59.8663 88.5165 59.7264 88.0669 59.5805 87.6256C59.2917 86.7457 58.997 85.9071 58.7111 85.1072C57.5619 81.9076 56.5735 79.3368 55.8976 77.5577C55.5582 76.6723 55.2962 75.9827 55.1146 75.511C55.0283 75.2793 54.9598 75.1028 54.9121 74.9787C54.8675 74.8573 54.8496 74.7966 54.8496 74.7966H54.8526Z" fill="#263238"/>
<path id="Vector_64" d="M46.9248 100.212C46.9248 100.212 46.8653 100.176 46.7581 100.093C46.642 100.002 46.4902 99.8835 46.3026 99.7346C45.9155 99.4146 45.3677 98.9346 44.7336 98.3057C43.4533 97.0562 41.8278 95.2109 40.1873 93.0732C38.5557 90.9245 37.216 88.8916 36.3764 87.358C35.9506 86.5939 35.6469 85.954 35.4534 85.5072C35.3671 85.292 35.2986 85.1182 35.248 84.9858C35.2033 84.8672 35.1795 84.8038 35.1855 84.801C35.1914 84.801 35.2212 84.859 35.2778 84.9748C35.3373 85.1044 35.4147 85.2727 35.51 85.4823C35.7184 85.9209 36.037 86.5498 36.4746 87.3056C37.3351 88.8254 38.6897 90.8417 40.3153 92.985C41.9528 95.1199 43.5605 96.9707 44.8169 98.2313C45.4392 98.8684 45.9721 99.3567 46.3443 99.6877C46.5229 99.8449 46.6688 99.969 46.7789 100.066C46.8772 100.154 46.9278 100.201 46.9248 100.206V100.212Z" fill="#263238"/>
<path id="Vector_65" d="M41.9314 99.147C42.4762 100.777 42.8513 102.454 43.021 104.156C43.0568 104.526 43.3366 104.846 43.7654 104.846C44.1405 104.846 44.5454 104.528 44.5097 104.156C44.3281 102.333 43.9529 100.532 43.3694 98.7801C43.2503 98.4243 42.8513 98.1981 42.4524 98.2974C42.0743 98.3939 41.8123 98.7884 41.9314 99.147Z" fill="#FF725E"/>
<g id="Group_14">
<path id="Vector_66" d="M33.3361 70.8769C33.0831 64.9768 32.6246 58.0866 33.3153 55.8441C34.006 53.5988 38.8858 49.1634 41.6844 48.1346C44.483 47.1057 49.1246 48.4793 50.5269 49.6268L59.3485 47.6519C59.3485 47.6519 61.0783 51.3673 58.9436 54.3463C56.8119 57.3253 50.5269 57.2894 50.5269 57.2894C50.5269 57.2894 49.9642 60.5304 52.6497 60.8173C55.3381 61.1014 58.9168 60.7097 59.2622 63.4212L53.7393 63.879L54.049 68.3917L43.5422 73.5662L33.6994 70.9348" fill="#FF725E"/>
<path id="Vector_67" d="M40.8927 51.7124C40.8927 51.7124 40.9195 51.7952 40.9492 51.9579C40.979 52.1482 41.0148 52.3827 41.0594 52.6695C41.1487 53.3233 41.2678 54.2114 41.4137 55.2899C41.5566 56.4071 41.7233 57.7255 41.9079 59.1792C42.0002 59.9101 42.0985 60.6852 42.1044 61.4962C42.1044 62.3043 42.024 63.1622 41.6608 63.9786C41.2976 64.7868 40.6098 65.4599 39.7792 65.7853C38.9515 66.1246 38.0524 66.1356 37.2545 65.9922C36.4566 65.835 35.742 65.4957 35.2001 65.0489C34.6583 64.602 34.2653 64.0835 33.9973 63.5732C33.4525 62.5526 33.3513 61.6175 33.3304 60.9969C33.3245 60.6825 33.3394 60.4397 33.3602 60.277C33.381 60.1142 33.3959 60.0287 33.4049 60.0287C33.4287 60.0287 33.3929 60.3763 33.4346 60.9941C33.4852 61.6065 33.6162 62.5167 34.1641 63.4959C34.435 63.9842 34.822 64.4751 35.3431 64.8972C35.8641 65.3137 36.5429 65.6281 37.3021 65.7716C38.0583 65.9012 38.9068 65.8846 39.675 65.5647C40.4431 65.2585 41.0713 64.6434 41.4167 63.8821C41.7591 63.118 41.8424 62.2878 41.8454 61.4989C41.8424 60.7045 41.7501 59.9405 41.6638 59.2068C41.5 57.7504 41.3542 56.4319 41.2261 55.312C41.113 54.228 41.0237 53.3398 40.9552 52.6833C40.9314 52.3965 40.9105 52.1592 40.8957 51.9662C40.8838 51.8034 40.8838 51.7152 40.8927 51.7152V51.7124Z" fill="#263238"/>
<path id="Vector_68" d="M56.7201 48.2722C56.6873 48.697 56.9047 49.1604 57.2024 49.4638C57.5001 49.7672 57.9229 49.9382 58.3427 50.0651C58.8905 50.2306 59.5038 50.3299 60.0308 50.1148C60.0308 49.4583 59.9206 48.8018 59.7033 48.1784C59.6378 47.9853 59.5395 47.7757 59.3401 47.6957C59.2269 47.6516 59.1019 47.6543 58.9798 47.6626C58.1938 47.715 57.4167 47.9247 56.723 48.2722" fill="#263238"/>
<g id="Group_15" opacity="0.3">
<path id="Vector_69" d="M33.4288 61.5125C33.6669 62.9717 34.1016 64.5715 35.1764 65.6583C36.2542 66.7451 37.9423 67.3878 39.4815 67.0043C41.3691 66.5354 42.5392 64.6736 42.6881 62.8669C42.8369 61.0602 42.1879 59.2893 41.5478 57.5764C41.8544 59.2038 42.1611 60.8864 41.7502 62.4945C41.3394 64.1026 40.0145 65.6307 38.243 65.8293C37.0134 65.9672 35.757 65.4266 34.9382 64.5632C34.1195 63.6999 33.5121 62.6572 33.4258 61.5098" fill="black"/>
</g>
<path id="Vector_70" d="M60.0599 50.7634C60.0748 50.7634 60.0837 50.9179 60.0599 51.191C60.039 51.464 59.9825 51.8612 59.8604 52.3412C59.7383 52.8211 59.5389 53.3811 59.2262 53.9713C58.9077 54.5534 58.4611 55.1712 57.8061 55.6484C57.157 56.1228 56.4425 56.429 55.7845 56.6524C55.1236 56.8786 54.5043 57.0138 53.9863 57.1048C53.4652 57.1931 53.0365 57.2372 52.7418 57.251C52.447 57.2648 52.2833 57.2593 52.2803 57.2427C52.2773 57.2013 52.9263 57.1517 53.9475 56.9338C54.4567 56.8235 55.0581 56.6745 55.6982 56.44C56.3353 56.2083 57.029 55.9049 57.6423 55.4553C58.2586 55.0085 58.6903 54.4237 59.0089 53.8665C59.3245 53.3038 59.5389 52.7604 59.6818 52.2971C59.9676 51.3675 60.0152 50.7607 60.0599 50.7662V50.7634Z" fill="#263238"/>
<path id="Vector_71" d="M47.2106 51.9962C46.6925 52.1921 46.5675 52.9451 47.0022 53.2733C47.4339 53.6016 48.211 53.3423 48.3122 52.832C48.4164 52.3217 47.7971 51.8169 47.2642 51.9769" fill="#263238"/>
<path id="Vector_72" d="M44.176 52.8735C44.0778 52.9093 43.914 52.7907 43.7919 52.5314C43.6669 52.2749 43.6044 51.8722 43.7026 51.4474C43.8009 51.0226 44.0361 50.6806 44.2653 50.493C44.4946 50.3027 44.694 50.2586 44.7685 50.3275C44.9203 50.482 44.6166 50.9702 44.4797 51.6019C44.3219 52.2308 44.3844 52.7907 44.176 52.8735Z" fill="#263238"/>
</g>
<path id="Vector_73" d="M55.1355 101.127C55.1355 101.144 54.8288 101.127 54.281 101.152C54.0071 101.163 53.6707 101.191 53.2896 101.257C52.9085 101.323 52.4827 101.447 52.06 101.668C51.2085 102.109 50.3778 102.895 49.4221 103.709C48.4813 104.534 47.609 105.609 46.3674 106.437C45.7511 106.851 45.0455 107.129 44.334 107.237C43.6224 107.344 42.9346 107.331 42.2916 107.378C41.6485 107.424 41.0352 107.527 40.5379 107.786C40.0378 108.034 39.6477 108.387 39.3709 108.757C38.8171 109.501 38.6772 110.263 38.698 110.762C38.7159 111.27 38.829 111.537 38.8082 111.543C38.8082 111.543 38.6742 111.281 38.6355 110.765C38.5968 110.257 38.7188 109.474 39.2786 108.702C39.5554 108.318 39.9544 107.949 40.4724 107.684C40.9905 107.408 41.6247 107.3 42.2737 107.248C42.9257 107.196 43.6135 107.207 44.3042 107.099C44.9919 106.991 45.6708 106.724 46.2722 106.321C47.4839 105.516 48.3622 104.443 49.3149 103.615C50.2766 102.804 51.1132 102.024 51.9974 101.58C52.4351 101.359 52.8757 101.24 53.2658 101.18C53.6558 101.119 53.9952 101.1 54.2691 101.097C54.546 101.091 54.7603 101.1 54.9033 101.108C55.0491 101.116 55.1236 101.122 55.1236 101.127H55.1355Z" fill="#263238"/>
<path id="Vector_74" d="M44.0488 109.532C44.0488 109.532 44.1441 109.51 44.3227 109.51C44.4984 109.51 44.7544 109.529 45.0671 109.593C45.6833 109.714 46.5259 110.059 47.1809 110.737C47.8359 111.416 48.1128 112.232 48.1753 112.811C48.2081 113.104 48.2021 113.341 48.1813 113.504C48.1604 113.667 48.1366 113.755 48.1277 113.752C48.0979 113.752 48.1575 113.391 48.0652 112.822C47.9788 112.26 47.693 111.482 47.0648 110.831C46.4366 110.18 45.6327 109.832 45.0403 109.689C44.4418 109.54 44.0488 109.557 44.0488 109.529V109.532Z" fill="#263238"/>
<path id="Vector_75" d="M46.9866 113.167C47.0015 113.17 46.9658 113.427 46.7663 113.796C46.5728 114.163 46.1858 114.635 45.6022 114.969C45.0187 115.302 44.3875 115.407 43.9468 115.404C43.5003 115.404 43.2383 115.319 43.2412 115.305C43.2442 115.28 43.5122 115.327 43.9409 115.305C44.3666 115.283 44.9621 115.167 45.5188 114.85C46.0756 114.533 46.4537 114.094 46.6681 113.752C46.8854 113.407 46.9598 113.165 46.9837 113.173L46.9866 113.167Z" fill="#263238"/>
<path id="Vector_76" d="M44.4178 111.385C44.4237 111.408 44.1796 111.452 43.8194 111.592C43.4591 111.73 42.9827 111.987 42.5778 112.392C42.1729 112.798 41.9348 113.256 41.8127 113.598C41.6876 113.942 41.6608 114.169 41.634 114.166C41.6162 114.166 41.6043 113.931 41.7055 113.567C41.8038 113.206 42.039 112.715 42.4617 112.293C42.8845 111.868 43.3936 111.614 43.7777 111.496C44.1617 111.374 44.4148 111.369 44.4178 111.383V111.385Z" fill="#263238"/>
<path id="Vector_77" d="M61.3727 112.255C61.3489 112.249 61.3965 112.037 61.4352 111.695C61.4709 111.355 61.4977 110.867 61.3072 110.379C61.1166 109.896 60.7147 109.56 60.3872 109.425C60.0538 109.281 59.8126 109.306 59.8126 109.281C59.8066 109.27 60.0567 109.204 60.4289 109.334C60.7951 109.455 61.2417 109.805 61.4501 110.332C61.6526 110.856 61.6049 111.366 61.5394 111.711C61.4709 112.059 61.3846 112.263 61.3667 112.257L61.3727 112.255Z" fill="#263238"/>
<path id="Vector_78" d="M31.979 109.091C31.979 109.115 31.7021 109.085 31.2734 109.143C30.8477 109.198 30.2582 109.372 29.7431 109.753C29.228 110.136 28.9184 110.63 28.7666 111.002C28.6117 111.377 28.5849 111.634 28.5582 111.628C28.5433 111.628 28.5284 111.366 28.6653 110.966C28.7963 110.572 29.106 110.042 29.6478 109.637C30.1927 109.234 30.8179 109.069 31.2615 109.038C31.7111 109.002 31.985 109.071 31.982 109.085L31.979 109.091Z" fill="#263238"/>
<path id="Vector_79" d="M69.046 106.578C69.046 106.578 69.1889 106.404 69.4151 106.073C69.6414 105.745 69.9302 105.243 70.1535 104.575C70.3709 103.911 70.5197 103.08 70.481 102.162C70.4453 101.243 70.222 100.234 69.7367 99.274C69.2514 98.3141 68.5249 97.5225 67.7032 97.0067C66.8904 96.4798 66.0419 96.1681 65.3065 96.0385C64.5682 95.9116 63.9489 95.9668 63.547 96.0716C63.3445 96.1268 63.1897 96.1737 63.0914 96.2178C62.9902 96.2564 62.9336 96.2757 62.9307 96.2702C62.9307 96.2647 62.9783 96.2399 63.0795 96.1902C63.1778 96.1378 63.3296 96.0799 63.5321 96.0164C63.937 95.8923 64.5711 95.8206 65.3274 95.9392C66.0806 96.0578 66.953 96.3667 67.7866 96.8991C68.2034 97.1639 68.6113 97.4921 68.9626 97.8838C69.3169 98.2755 69.6265 98.7251 69.8766 99.2133C70.3709 100.195 70.5942 101.224 70.6239 102.159C70.6567 103.097 70.4929 103.938 70.2577 104.609C70.0166 105.282 69.7099 105.784 69.4628 106.106C69.3377 106.266 69.2395 106.388 69.1621 106.465C69.0877 106.542 69.0489 106.584 69.043 106.581L69.046 106.578Z" fill="#263238"/>
<path id="Vector_80" d="M33.0202 92.4689C33.0172 92.5103 32.258 92.229 31.0045 92.3641C30.3853 92.4248 29.6558 92.6124 28.9175 92.9517C28.1851 93.2964 27.4378 93.8067 26.8513 94.4991C26.5506 94.8383 26.3332 95.219 26.1784 95.6079C26.0266 95.9968 25.9372 96.3913 25.8717 96.7692C25.7526 97.5277 25.7378 98.2228 25.7437 98.8048C25.7497 99.3868 25.7675 99.8612 25.7765 100.187C25.7765 100.336 25.7794 100.46 25.7824 100.562C25.7824 100.647 25.7794 100.694 25.7735 100.694C25.7675 100.694 25.7616 100.65 25.7526 100.565C25.7437 100.463 25.7318 100.338 25.7199 100.189C25.6931 99.864 25.6574 99.3923 25.6395 98.8076C25.6216 98.2228 25.6216 97.5222 25.7378 96.7499C25.8003 96.3665 25.8896 95.9637 26.0444 95.561C26.2022 95.1611 26.4315 94.7611 26.7381 94.4108C27.3425 93.6992 28.1106 93.1806 28.8609 92.8358C29.6201 92.4965 30.3644 92.3172 30.9986 92.2676C31.6327 92.2152 32.1508 92.2593 32.4962 92.331C32.6718 92.3559 32.7998 92.4028 32.8921 92.4248C32.9814 92.4496 33.0261 92.4662 33.0261 92.4717L33.0202 92.4689Z" fill="#263238"/>
<path id="Vector_81" d="M20.7428 86.4974C20.7428 86.4974 20.7071 86.3925 20.6654 86.1967C20.6237 86.0009 20.585 85.714 20.5582 85.3609C20.5017 84.652 20.5285 83.6563 20.7696 82.5888C21.0138 81.5213 21.4246 80.6001 21.7878 79.9739C21.9695 79.6595 22.1302 79.4112 22.2523 79.2485C22.3744 79.083 22.4458 78.9947 22.4548 79.0002C22.4786 79.014 22.2196 79.3837 21.8861 80.0181C21.5526 80.6525 21.1656 81.5627 20.9244 82.6164C20.6863 83.6701 20.6416 84.6493 20.6714 85.3527C20.6982 86.0588 20.7726 86.4918 20.7458 86.4974H20.7428Z" fill="#263238"/>
<path id="Vector_82" d="M19.7867 86.9277C19.7867 86.9277 19.745 86.8229 19.7003 86.627C19.6527 86.4312 19.5991 86.1471 19.5515 85.7912C19.4532 85.0824 19.3996 84.0894 19.5128 82.9998C19.6289 81.9103 19.8849 80.9449 20.1291 80.2663C20.2511 79.9271 20.3613 79.6567 20.4506 79.4747C20.5369 79.2926 20.5876 79.1933 20.5995 79.1961C20.6233 79.2044 20.4506 79.6154 20.2362 80.2967C20.0219 80.978 19.7837 81.9379 19.6706 83.0136C19.5604 84.0921 19.5932 85.0741 19.6646 85.7802C19.7331 86.4863 19.8194 86.9221 19.7926 86.9277H19.7867Z" fill="#263238"/>
<g id="Group_16" opacity="0.3">
<path id="Vector_83" d="M39.2077 97.8643C40.4433 99.1193 41.3365 100.658 41.786 102.305C41.8843 102.672 41.9617 103.069 41.8009 103.414C41.4585 104.156 40.3569 104.192 39.6007 104.595C38.9695 104.931 38.5765 105.543 38.2133 106.128C36.9837 108.111 35.7541 110.092 34.5215 112.075C35.6618 111.987 36.0845 112.1 37.2248 112.012L39.0588 112.05C38.9904 112.078 38.7016 111.242 38.6778 110.85C38.6033 109.653 39.4757 108.205 40.6338 107.673C42.0927 107.003 43.7659 107.563 45.2456 106.934C46.6598 106.332 47.5053 105.411 48.4253 104.564C49.5805 103.502 50.7238 102.096 52.2065 101.469C52.8763 101.185 54.4751 101.158 54.4751 101.158C53.7129 100.33 52.3196 100.372 51.1852 100.656C50.0509 100.94 48.8898 101.395 47.7435 101.158C46.7819 100.956 46.0167 100.3 45.3051 99.6682C43.4801 98.0518 41.5925 96.3444 40.7767 94.1295C40.2676 95.3459 39.7615 96.5596 39.2524 97.776" fill="black"/>
</g>
<g id="Group_17" opacity="0.3">
<path id="Vector_84" d="M64.2137 112.075C64.8032 110.735 63.4605 109.151 62.9186 107.794C62.3708 106.418 62.4899 104.906 62.4928 103.439C62.4988 100.355 61.9599 97.2712 60.897 94.3474C60.7779 98.3663 61.2751 102.636 61.5342 106.65C61.5878 107.502 61.5193 108.487 62.1921 109.069C62.5375 109.366 62.7429 109.234 63.13 109.485C63.517 109.733 64.2762 110.302 64.2167 112.075" fill="black"/>
</g>
<path id="Vector_85" d="M46.6831 72.4631C46.6741 72.4962 45.9149 72.2479 45.1944 71.6384C44.468 71.0315 44.1315 70.3557 44.1643 70.3447C44.206 70.3199 44.593 70.946 45.2986 71.5335C45.9953 72.1266 46.7039 72.4245 46.6831 72.4659V72.4631Z" fill="#263238"/>
<path id="Vector_86" d="M47.7993 71.8949C47.7874 71.9307 47.1473 71.7376 46.4744 71.2963C45.8016 70.8577 45.3907 70.364 45.4205 70.3419C45.4562 70.3116 45.9058 70.7529 46.5637 71.1805C47.2158 71.6108 47.8172 71.8562 47.7993 71.8976V71.8949Z" fill="#263238"/>
<path id="Vector_87" d="M49.271 71.8477C49.2621 71.8835 48.6339 71.7346 47.9819 71.3236C47.3269 70.9153 46.9458 70.4299 46.9785 70.4106C47.0142 70.383 47.434 70.8105 48.0682 71.205C48.6994 71.6049 49.2859 71.8063 49.271 71.8477Z" fill="#263238"/>
<path id="Vector_88" d="M39.1447 83.6921C39.1328 83.7252 38.4004 83.4024 37.7603 82.7129C37.1112 82.0288 36.8671 81.3144 36.9028 81.3089C36.9475 81.2896 37.2482 81.9598 37.8764 82.6191C38.4956 83.2838 39.1715 83.6535 39.1447 83.6921Z" fill="#263238"/>
<path id="Vector_89" d="M40.2408 83.7086C40.22 83.739 39.6573 83.4025 39.1362 82.8177C38.6122 82.2357 38.3622 81.6592 38.3979 81.6454C38.4396 81.6261 38.7462 82.1585 39.2553 82.7239C39.7615 83.2949 40.2676 83.6728 40.2408 83.7059V83.7086Z" fill="#263238"/>
<path id="Vector_90" d="M42.1577 84.0536C42.1249 84.0811 41.6545 83.6591 41.1037 83.1102C40.5529 82.5613 40.1302 82.0951 40.1629 82.0676C40.1957 82.04 40.6661 82.462 41.2169 83.0109C41.7677 83.5598 42.1904 84.026 42.1577 84.0536Z" fill="#263238"/>
<path id="Vector_91" d="M36.2511 61.0989C36.2511 61.0989 36.1201 61.0493 35.9653 60.9003C35.8105 60.7541 35.6348 60.5142 35.5217 60.2163C35.4115 59.9184 35.3936 59.626 35.4175 59.4246C35.4413 59.2205 35.4949 59.1019 35.5127 59.1047C35.5604 59.1102 35.4532 59.6067 35.6676 60.1694C35.87 60.7376 36.2838 61.0658 36.2511 61.0989Z" fill="#263238"/>
<path id="Vector_92" d="M36.7723 60.8865C36.7395 60.9086 36.4745 60.6052 36.3257 60.1528C36.1709 59.7004 36.2066 59.3115 36.2453 59.3115C36.29 59.3115 36.3257 59.6784 36.4745 60.1087C36.6175 60.539 36.814 60.8645 36.7752 60.8865H36.7723Z" fill="#263238"/>
<path id="Vector_93" d="M37.9574 61.5704C37.9246 61.5924 37.5584 61.1787 37.2696 60.5801C36.9779 59.9816 36.8826 59.4547 36.9213 59.4465C36.966 59.4354 37.1237 59.9374 37.4096 60.5195C37.6924 61.1042 37.9931 61.5455 37.9574 61.5704Z" fill="#263238"/>
</g>
<g id="Group_18">
<path id="Vector_94" d="M73.0179 10.6547C70.7105 11.9649 69.9275 15.1259 69.8292 17.6332C69.731 20.1405 70.4663 22.5982 71.0648 25.0448C71.6632 27.4915 72.1247 30.0539 71.4756 32.4868C70.8742 34.7431 69.3558 37.118 70.4485 39.2088C71.2732 40.7866 73.3841 41.6058 73.9676 43.2746C74.6464 45.2219 72.9285 47.1252 71.3506 48.5567C72.0681 49.6408 73.7622 50.049 74.9561 49.4201C74.9203 50.0104 74.6047 50.5841 74.1075 50.9565C75.8969 51.384 77.9333 50.7248 79.0468 49.3594C78.8295 50.0545 78.6092 50.7496 78.3918 51.4447C80.1841 51.0613 81.7978 49.9993 82.7803 48.5595C83.0334 48.9981 83.2865 49.4366 83.5395 49.8752C86.4453 48.0271 88.4609 45.1226 89.4524 41.9892C90.4438 38.8557 90.4557 35.5071 89.8871 32.2854C88.2793 23.183 81.8425 14.9246 73.0208 10.6492" fill="#263238"/>
<g id="Group_19">
<path id="Vector_95" d="M106.789 33.626C105.756 32.4757 104.478 31.3338 104.338 29.8415C104.276 29.1823 104.446 28.5065 104.285 27.8638C103.868 26.2006 101.534 25.5441 100.831 23.9663C99.9469 21.9859 101.957 19.3655 100.471 17.7243C99.7563 16.9381 98.5267 16.7837 97.5859 16.2348C95.1981 14.8363 95.7817 10.9802 90.0713 8.19702L90.497 16.643C92.4204 23.7843 93.9477 31.0166 95.0731 38.3041C99.3723 38.1082 103.671 37.9124 107.971 37.7165C108.712 36.387 107.828 34.7789 106.795 33.6287L106.789 33.626Z" fill="#263238"/>
<g id="Group_20">
<path id="Vector_96" d="M70.29 13.733C70.4151 11.6311 71.4988 9.58997 73.2197 8.21632C75.1102 6.70477 77.6617 6.0345 80.1597 6.0014C82.6576 5.9683 85.1198 6.52823 87.4957 7.23988C88.8295 7.63984 90.1722 8.10323 91.256 8.92521C93.2329 10.4285 94.0189 12.8586 94.7066 15.1425C95.2604 16.9878 95.8201 18.9269 95.3616 20.7943C94.9418 22.5072 93.6288 24.016 91.9109 24.7607" fill="#263238"/>
<path id="Vector_97" d="M70.9806 12.1443C69.6378 14.2544 69.096 16.7893 69.4681 19.2139C69.8403 21.6384 71.1235 23.9333 73.0468 25.6132C73.1123 20.2924 73.681 14.9771 74.7409 9.74731" fill="#263238"/>
<path id="Vector_98" d="M70.4566 19.4676C69.8612 15.7356 71.457 10.6961 75.5091 10.3044L85.1703 10.6437C88.2696 10.754 90.7616 12.66 91.625 15.4211C91.6667 15.559 91.6429 15.3853 91.6667 15.4901L96.1624 37.8518C96.8918 41.5176 94.2926 45.0427 90.3388 45.7488C86.4297 46.4467 82.6366 44.1242 81.7941 40.5191C81.3743 38.7262 80.883 36.616 80.886 36.6243C80.886 36.6243 75.6282 36.845 73.166 30.9118C71.9423 27.9632 71.1176 23.6106 70.4566 19.4648V19.4676Z" fill="#9D6054"/>
<path id="Vector_99" d="M79.1145 15.7355C79.1353 15.7714 78.3374 16.1686 77.2775 16.483C76.2206 16.803 75.3215 16.9133 75.3155 16.872C75.3066 16.8278 76.1789 16.6513 77.2269 16.3341C78.2719 16.0224 79.0937 15.6914 79.1145 15.7328V15.7355Z" fill="#724A44"/>
<path id="Vector_100" d="M77.5839 15.8127C77.6018 15.8485 77.1046 16.0885 76.4377 16.254C75.7737 16.4223 75.214 16.4526 75.2081 16.4112C75.2021 16.3671 75.741 16.2705 76.393 16.105C77.045 15.9423 77.5631 15.7713 77.5809 15.8127H77.5839Z" fill="#724A44"/>
<path id="Vector_101" d="M83.1609 27.4114C83.1162 27.4252 83.0031 27.1853 82.6994 27.0804C82.3987 26.9646 82.1397 27.0667 82.1188 27.028C82.1069 27.0115 82.1605 26.9563 82.2796 26.9177C82.3957 26.8791 82.5803 26.8708 82.7619 26.937C82.9405 27.0032 83.0715 27.1246 83.1281 27.2266C83.1876 27.3314 83.1847 27.4059 83.1638 27.4087L83.1609 27.4114Z" fill="#724A44"/>
<path id="Vector_102" d="M73.0319 23.9826C73.1123 24.4019 73.5589 24.6833 74.0323 24.6143C74.5056 24.5453 74.8242 24.1509 74.7438 23.7316C74.6634 23.3124 74.2169 23.0283 73.7435 23.0972C73.2701 23.1662 72.9485 23.5606 73.0289 23.9799L73.0319 23.9826Z" fill="#263238"/>
<path id="Vector_103" d="M72.2282 21.8425C72.3562 21.9253 72.9011 21.3571 73.8151 21.1778C74.7261 20.9874 75.4972 21.2909 75.5717 21.1695C75.6104 21.1143 75.4585 20.9488 75.1221 20.8109C74.7886 20.6702 74.2557 20.5764 73.6871 20.6923C73.1184 20.8081 72.6837 21.095 72.4545 21.3488C72.2193 21.6053 72.1657 21.8094 72.2282 21.8453V21.8425Z" fill="#263238"/>
<path id="Vector_104" d="M81.2577 22.3222C81.3381 22.7415 81.7847 23.0229 82.2581 22.9539C82.7315 22.8849 83.05 22.4905 82.9696 22.0712C82.8893 21.652 82.4427 21.3679 81.9693 21.4368C81.4959 21.5058 81.1773 21.9002 81.2547 22.3195L81.2577 22.3222Z" fill="#263238"/>
<path id="Vector_105" d="M81.2526 20.2287C81.3806 20.3115 81.9255 19.7433 82.8395 19.564C83.7505 19.3737 84.5217 19.6771 84.5961 19.5557C84.6348 19.5006 84.4859 19.3351 84.1465 19.1971C83.8131 19.0565 83.2801 18.9627 82.7115 19.0785C82.1428 19.1944 81.7081 19.4812 81.4789 19.735C81.2437 19.9888 81.1901 20.1956 81.2526 20.2315V20.2287Z" fill="#263238"/>
<path id="Vector_106" d="M79.3767 27.1661C79.3708 27.1164 78.7813 27.1385 77.8345 27.2102C77.5963 27.235 77.3641 27.235 77.2927 27.0944C77.2004 26.9482 77.245 26.6972 77.3016 26.4213C77.3998 25.8559 77.504 25.2601 77.6142 24.6367C78.034 22.1018 78.2871 20.0358 78.1769 20.022C78.0667 20.0083 77.635 22.0494 77.2153 24.5843C77.117 25.2077 77.0217 25.8035 76.9354 26.3717C76.9026 26.6337 76.8163 26.9427 77.0098 27.2433C77.111 27.3923 77.3075 27.475 77.4653 27.4833C77.6261 27.4971 77.7571 27.4723 77.8732 27.4557C78.8111 27.3206 79.3857 27.2102 79.3797 27.1606L79.3767 27.1661Z" fill="#263238"/>
<path id="Vector_107" d="M89.1625 32.6936C89.1625 32.6936 87.9865 37.3386 81.2222 38.0696L80.8857 36.627C80.8857 36.627 85.3129 36.0229 89.1625 32.6936Z" fill="#724A44"/>
<path id="Vector_108" d="M80.2309 29.1301C80.4661 28.6612 80.9931 28.3274 81.5766 28.2722C81.9815 28.2336 82.4251 28.3329 82.7348 28.5839C83.0444 28.8349 83.1933 29.2514 83.0385 29.5797C82.8658 29.9493 82.3656 30.1258 81.9041 30.0955C81.4426 30.0679 81.005 29.8748 80.5882 29.679C80.472 29.6238 80.353 29.5686 80.2696 29.4804C80.1862 29.3921 80.1416 29.2625 80.1981 29.1659" fill="#724A44"/>
<path id="Vector_109" d="M82.2018 27.2212C82.0499 27.2433 82.2613 28.1618 81.5617 28.9838C80.865 29.8058 79.7813 29.9106 79.8051 30.0402C79.8051 30.1009 80.082 30.1726 80.5315 30.0954C80.9722 30.0237 81.5825 29.7671 82.0112 29.2651C82.437 28.7631 82.5382 28.1839 82.4846 27.8005C82.434 27.4088 82.2702 27.2019 82.2047 27.2212H82.2018Z" fill="#263238"/>
<path id="Vector_110" d="M80.4568 17.7931C80.5997 18.0055 81.4869 17.7158 82.5885 17.6248C83.6871 17.5117 84.619 17.6331 84.7143 17.3986C84.756 17.2883 84.5535 17.1007 84.1546 16.9463C83.7556 16.7918 83.1542 16.6897 82.4962 16.7504C81.8383 16.8111 81.2696 17.0235 80.9123 17.2469C80.5521 17.4704 80.3943 17.691 80.4598 17.7931H80.4568Z" fill="#263238"/>
<path id="Vector_111" d="M72.002 19.324C72.2074 19.484 72.7909 19.1612 73.5472 19.0013C74.2974 18.8192 74.9762 18.8551 75.0775 18.6234C75.1192 18.513 74.9733 18.3393 74.6517 18.2124C74.3332 18.0855 73.8389 18.0276 73.3209 18.1462C72.8028 18.2648 72.392 18.5268 72.1746 18.7751C71.9513 19.0261 71.9097 19.2412 72.002 19.3212V19.324Z" fill="#263238"/>
<path id="Vector_112" d="M70.9568 13.504C71.1473 12.4999 72.112 11.7276 73.1748 11.4628C74.2377 11.198 75.375 11.3663 76.4201 11.6807C80.8562 13.0075 84.0448 16.7615 88.4512 18.171C89.5349 18.5186 90.6871 18.7199 91.6696 19.2716C92.6491 19.8205 93.4441 20.8549 93.2118 21.8948C93.581 21.1252 93.9532 20.3418 94.0723 19.5061C94.1914 18.6703 94.0187 17.76 93.4083 17.1367C92.9469 16.6622 92.2532 16.3671 91.9495 15.7934C91.6815 15.2886 91.7798 14.6845 91.6279 14.1411C91.4731 13.5867 91.0682 13.1261 90.6574 12.6958C88.5495 10.4974 85.9235 8.65483 82.8926 7.78596C80.9128 7.21775 78.7662 7.08259 76.7565 7.5515C74.7468 8.01766 72.8831 9.11271 71.6981 10.6877C71.0014 11.6145 70.2661 12.5772 70.9538 13.5067" fill="#263238"/>
<path id="Vector_113" d="M95.7338 22.8245C95.5582 22.7831 95.5433 22.3611 95.4123 21.6991C95.3438 21.3736 95.2396 20.9792 95.0223 20.651C94.9687 20.571 94.9091 20.4937 94.8436 20.4275C94.8138 20.3889 94.7722 20.3669 94.7424 20.3338C94.7126 20.3062 94.6471 20.2538 94.5995 20.2124C94.3911 20.0441 94.1588 19.8704 93.9177 19.7324C93.6825 19.5918 93.4115 19.4814 93.2597 19.4732C93.1823 19.4649 93.1704 19.4897 93.2061 19.4925C93.1317 19.5228 93.0573 19.5504 92.9828 19.5807C92.9054 19.6138 92.825 19.6497 92.7446 19.6856C92.435 19.829 92.1581 19.9917 91.8783 20.2014C91.7413 20.3062 91.6014 20.422 91.4644 20.5461L91.3602 20.6427L91.1816 20.7972C91.0595 20.8937 90.9315 20.9847 90.8035 21.0647C90.2824 21.3874 89.7108 21.6274 89.0082 21.7267C88.6569 21.7736 88.2639 21.7819 87.8322 21.6881L87.6714 21.6495L87.5434 21.6081C87.46 21.5805 87.3707 21.5557 87.2873 21.5198C87.1206 21.4536 86.9598 21.3819 86.805 21.2964C86.1887 20.9627 85.7213 20.5186 85.3372 20.0883C84.9561 19.6552 84.6435 19.2194 84.3517 18.825C83.2293 17.2968 81.8747 16.0473 80.5021 15.0626C79.1296 14.0779 77.7392 13.3718 76.5185 12.8725C75.2949 12.3539 74.3035 12.0974 73.5859 12.0036C72.8714 11.9071 72.4278 11.9319 72.3653 11.7747C72.3027 11.6395 72.666 11.3003 73.5264 11.1044C74.3779 10.9058 75.676 10.9582 77.0961 11.3251C78.5282 11.6726 80.1925 12.3043 81.8389 13.3276C83.4824 14.3427 85.1169 15.7522 86.409 17.512C86.7216 17.934 86.9955 18.3174 87.2695 18.6374C87.5404 18.9546 87.8083 19.2001 88.0614 19.3463C88.1239 19.3849 88.1865 19.4152 88.249 19.4428C88.2787 19.4594 88.3115 19.4649 88.3442 19.4787L88.3919 19.498L88.4127 19.5035C88.4633 19.5201 88.5705 19.5338 88.6985 19.5256C88.9605 19.509 89.291 19.4042 89.55 19.2635C89.6155 19.2277 89.6751 19.1918 89.7317 19.156L89.8091 19.1008L89.9579 18.9849C90.1574 18.8305 90.3628 18.6843 90.5802 18.5491C91.0119 18.2761 91.4882 18.0581 91.9378 17.9064C92.0509 17.8678 92.1611 17.8347 92.2713 17.8016L92.435 17.7575L92.6196 17.7106C93.0364 17.603 93.4294 17.6499 93.7212 17.7327C94.3137 17.9064 94.6769 18.1768 94.9925 18.4305C95.3051 18.6898 95.5522 18.9518 95.7725 19.2166C95.8291 19.2884 95.8738 19.3408 95.9333 19.4235C95.9899 19.5063 96.0524 19.5863 96.097 19.669C96.1923 19.8345 96.2608 20 96.3144 20.1572C96.5139 20.7944 96.4543 21.3102 96.3799 21.7074C96.2042 22.5046 95.8857 22.8576 95.7308 22.8162L95.7338 22.8245Z" fill="#263238"/>
<g id="Group_21">
<path id="Vector_114" d="M92.0234 20.2069C92.0532 20.0166 95.2389 18.174 96.0755 21.5668C96.8883 24.863 93.1369 24.9292 93.1072 24.8354C93.0774 24.7416 92.0234 20.2069 92.0234 20.2069Z" fill="#9D6054"/>
<path id="Vector_115" d="M93.9026 23.3568C93.9026 23.3568 93.974 23.3844 94.0901 23.4064C94.2033 23.4285 94.3849 23.423 94.5546 23.3182C94.8999 23.1113 95.0816 22.4934 94.9565 21.8949C94.894 21.5942 94.7541 21.3211 94.5844 21.1087C94.4176 20.8908 94.2092 20.7557 94.0097 20.7639C93.8103 20.7639 93.7031 20.8963 93.6822 20.9984C93.6584 21.1005 93.6941 21.1611 93.6793 21.1722C93.6703 21.1832 93.5899 21.1336 93.584 20.9901C93.584 20.9212 93.6048 20.8357 93.6733 20.7529C93.7418 20.6702 93.8609 20.6122 93.9948 20.5985C94.2747 20.5598 94.5784 20.7419 94.766 20.9736C94.9714 21.2053 95.1322 21.5087 95.2036 21.848C95.3435 22.5182 95.1262 23.2161 94.6439 23.4616C94.4087 23.5747 94.1824 23.5471 94.0544 23.4919C93.9234 23.434 93.8877 23.3623 93.8996 23.354L93.9026 23.3568Z" fill="#724A44"/>
</g>
</g>
</g>
<g id="Group_22">
<path id="Vector_116" d="M80.0411 44.1875C80.0411 44.1875 77.8707 44.9047 76.8852 47.2161C75.8997 49.5276 71.6184 63.5978 71.6184 63.5978L62.6836 64.6597L62.0078 72.3058C62.0078 72.3058 65.4257 73.1995 69.8886 73.5636C73.1815 73.8339 78.5019 73.3843 79.8922 72.6644C81.2797 71.9445 79.7553 44.5102 79.7553 44.5102L80.0441 44.1875H80.0411Z" fill="#E0E0E0"/>
<path id="Vector_117" d="M81.8545 42.0969C84.6829 45.0731 92.1142 39.0379 95.4219 34.2412L84.7812 80.5396L82.965 80.1286L81.8545 42.0969Z" fill="#30716B"/>
<path id="Vector_118" d="M81.6309 40.0637L80.9461 43.0703L78.4125 45.2107C78.3797 49.1386 80.6722 56.9832 80.1006 58.5582C79.2878 60.8035 78.9633 63.1343 79.9368 66.4112C80.434 68.0882 83.444 80.1311 83.444 80.1311C83.444 80.1311 82.5747 111.645 82.667 112.05H89.5861L82.8307 70.1377L82.5568 43.8757L81.6339 40.0637H81.6309Z" fill="#E0E0E0"/>
<path id="Vector_119" d="M126.022 92.0802C123.879 87.118 115.95 74.4104 115.95 74.4104C115.95 74.4104 115.307 69.9447 114.771 60.1168C114.235 50.2889 109.63 39.2722 108.665 37.5841C107.7 35.896 96.9822 34.241 96.9822 34.241L95.1095 31.7117C95.1095 31.7117 91.1111 41.4375 90.8967 41.7354C90.6823 42.0333 86.404 53.6955 85.9753 56.9724C85.5466 60.2492 84.3438 77.8859 84.3438 77.8859L89.5897 112.05H128.568C128.568 112.05 128.166 97.0452 126.025 92.083L126.022 92.0802Z" fill="#E0E0E0"/>
<path id="Vector_120" d="M89.917 90.8445C90.4737 90.7866 97.7145 90.028 109.308 88.8171L109.376 88.8088L109.382 88.8723C109.933 94.3696 110.588 100.896 111.288 107.872C111.365 108.641 111.44 109.405 111.517 110.161L111.526 110.238H111.443C105.827 110.36 100.534 110.473 95.8537 110.572H95.8001L95.7852 110.525C94.0584 104.666 92.6084 99.7428 91.5902 96.2811C91.0722 94.5572 90.6613 93.1973 90.3814 92.265C90.2385 91.8044 90.1254 91.4513 90.048 91.2058C90.0093 91.09 89.9795 91.0017 89.9557 90.9355C89.9319 90.8748 89.917 90.8445 89.92 90.8472C89.92 90.8472 89.9408 90.8776 89.9676 90.9327C89.9914 90.9934 90.0271 91.0817 90.0688 91.2003C90.1552 91.4375 90.2713 91.7906 90.4202 92.254C90.7179 93.178 91.1407 94.5351 91.6676 96.2618C92.7186 99.7125 94.1894 104.631 95.9192 110.492L95.8507 110.445C100.528 110.34 105.822 110.224 111.437 110.098L111.362 110.175C111.288 109.419 111.21 108.655 111.133 107.885C110.442 100.91 109.796 94.3834 109.251 88.8833L109.326 88.9385C97.7264 90.0777 90.4797 90.7893 89.9229 90.8445H89.917Z" fill="#263238"/>
<path id="Vector_121" d="M109.76 93.374C109.763 93.4126 105.601 93.727 100.465 94.0746C95.3264 94.4221 91.1612 94.6731 91.1582 94.6318C91.1552 94.5931 95.3174 94.2787 100.453 93.9311C105.589 93.5836 109.757 93.3326 109.76 93.374Z" fill="#263238"/>
<path id="Vector_122" d="M115.807 74.3579C115.807 74.3579 115.73 74.4158 115.578 74.4958C115.426 74.5786 115.197 74.6834 114.911 74.8048C114.34 75.0475 113.515 75.3261 112.565 75.4943C111.615 75.6598 110.743 75.6902 110.115 75.6847C109.799 75.6819 109.546 75.6709 109.371 75.6571C109.195 75.6433 109.1 75.6323 109.1 75.624C109.1 75.6019 109.49 75.6019 110.115 75.5854C110.74 75.566 111.603 75.5192 112.538 75.3564C113.473 75.1909 114.292 74.9316 114.87 74.7165C115.447 74.4986 115.798 74.3414 115.81 74.3607L115.807 74.3579Z" fill="#263238"/>
<path id="Vector_123" d="M115.95 74.4132C115.95 74.4132 115.715 74.6724 115.289 75.0476C114.863 75.4227 114.259 75.9247 113.58 76.4653C112.919 76.9922 112.324 77.4694 111.844 77.85C111.401 78.2031 111.124 78.4238 111.109 78.41C111.094 78.3962 111.344 78.1507 111.77 77.7755C112.196 77.4004 112.8 76.8984 113.479 76.355C114.14 75.8282 114.735 75.351 115.215 74.9703C115.658 74.6173 115.935 74.3966 115.95 74.4104V74.4132Z" fill="#263238"/>
<g id="Group_23">
<path id="Vector_124" d="M102.702 101.125C101.955 100.874 101.139 100.775 100.451 101.141C99.8944 101.437 99.6264 102.082 99.6979 102.672C99.7693 103.263 100.133 103.795 100.585 104.214C100.895 104.501 101.276 104.752 101.713 104.774C102.202 104.799 102.648 104.529 103.009 104.225C103.375 103.916 103.702 103.547 103.866 103.114C104.03 102.678 104.012 102.17 103.732 101.787C103.411 101.343 102.818 101.152 102.27 100.987" fill="#82C6B9"/>
<path id="Vector_125" d="M100.159 100.744C100.215 100.452 100.195 100.143 100.061 99.8726C99.9266 99.6023 99.6676 99.3816 99.358 99.3127C99.0454 99.2437 98.6881 99.3485 98.5065 99.5913C98.3755 99.7678 98.3427 99.994 98.3725 100.206C98.4261 100.582 98.6851 100.943 99.0692 101.075C99.4532 101.208 99.9832 101.086 100.165 100.744" fill="#82C6B9"/>
<path id="Vector_126" d="M103.488 100.899C103.809 100.89 104.131 100.81 104.39 100.634C104.646 100.457 104.831 100.179 104.843 99.8807C104.851 99.5828 104.67 99.2794 104.375 99.1636C104.164 99.0781 103.917 99.0946 103.699 99.1636C103.312 99.2877 102.982 99.5966 102.919 99.9717C102.857 100.347 103.092 100.802 103.488 100.899Z" fill="#82C6B9"/>
<path id="Vector_127" d="M105.11 101.867C105.331 101.861 105.554 101.806 105.733 101.685C105.911 101.563 106.036 101.37 106.045 101.166C106.051 100.962 105.926 100.753 105.724 100.67C105.578 100.612 105.408 100.623 105.256 100.67C104.988 100.755 104.762 100.968 104.717 101.227C104.673 101.486 104.836 101.801 105.11 101.867Z" fill="#82C6B9"/>
<path id="Vector_128" d="M101.663 100.391C102.011 100.253 102.327 100.033 102.526 99.7347C102.726 99.4368 102.794 99.0561 102.666 98.7279C102.538 98.3996 102.196 98.1404 101.818 98.1293C101.547 98.1238 101.282 98.2397 101.076 98.4052C100.71 98.6976 100.496 99.1692 100.603 99.605C100.71 100.041 101.183 100.446 101.663 100.391Z" fill="#82C6B9"/>
</g>
<path id="Vector_129" d="M85.9747 65.9893C85.9747 65.9893 85.9806 65.9617 85.9955 65.9065C86.0163 65.8458 86.0402 65.7686 86.0699 65.6693C86.1414 65.4542 86.2456 65.1508 86.3766 64.7646C86.6505 63.9729 87.0435 62.8393 87.5318 61.4408C88.5232 58.6273 89.8927 54.7436 91.4171 50.4269V50.4379C91.4439 50.2448 91.4737 50.0379 91.5064 49.8283C91.7922 47.9609 92.0661 46.1652 92.3192 44.4965V44.4772L92.3371 44.4606C93.6381 43.1118 94.835 41.8705 95.886 40.781L95.8711 40.8114C96.2016 38.8088 96.4725 37.1676 96.663 36.0174C96.7613 35.4547 96.8357 35.0106 96.8893 34.6989C96.9161 34.5555 96.937 34.4396 96.9518 34.3541C96.9667 34.2769 96.9757 34.2383 96.9786 34.2383C96.9816 34.2383 96.9786 34.2797 96.9697 34.3569C96.9578 34.4424 96.9429 34.5582 96.9221 34.7044C96.8774 35.0189 96.8119 35.463 96.7285 36.0257C96.5499 37.1786 96.2968 38.8226 95.9902 40.8279V40.8445L95.9753 40.8582C94.9303 41.9505 93.7394 43.1973 92.4443 44.5516L92.4621 44.5158C92.209 46.1873 91.9381 47.983 91.6553 49.8504C91.6225 50.06 91.5928 50.2669 91.563 50.4599V50.4655L91.56 50.471C90.0208 54.7822 88.6333 58.6604 87.63 61.4712C87.1239 62.8641 86.716 63.9895 86.4302 64.7811C86.2873 65.1618 86.1771 65.4624 86.0967 65.6776C86.058 65.7741 86.0282 65.8486 86.0074 65.9093C85.9866 65.9617 85.9747 65.9865 85.9717 65.9865L85.9747 65.9893Z" fill="#263238"/>
<path id="Vector_130" d="M82.6518 69.4206C82.6518 69.4206 82.6429 69.4013 82.6369 69.3654C82.628 69.3213 82.6191 69.2689 82.6042 69.2027C82.5774 69.0482 82.5417 68.8386 82.494 68.5738C82.4017 68.0139 82.2737 67.2195 82.1159 66.2347C81.8033 64.2322 81.3716 61.4546 80.8804 58.2935V58.2853V58.277C80.9875 57.4854 81.1007 56.6634 81.2138 55.8221C81.4103 54.385 81.6009 53.0031 81.7795 51.7094L81.8003 51.7646C81.0143 51.0061 80.273 50.2889 79.5912 49.6269L79.5674 49.6048L79.5733 49.5745C79.9574 47.6271 80.279 46.0025 80.5082 44.8523C80.6243 44.2923 80.7136 43.851 80.7791 43.5338C80.8119 43.3904 80.8357 43.2745 80.8565 43.1862C80.8744 43.109 80.8863 43.0676 80.8893 43.0676C80.8923 43.0676 80.8893 43.109 80.8774 43.189C80.8625 43.2773 80.8446 43.3931 80.8208 43.5393C80.7642 43.8565 80.6839 44.3006 80.5856 44.8633C80.3712 46.0163 80.0705 47.6409 79.7073 49.5938L79.6895 49.5414C80.3772 50.2006 81.1215 50.9123 81.9105 51.6681L81.9343 51.6929V51.726C81.7527 53.0196 81.5651 54.4043 81.3716 55.8386C81.2555 56.6799 81.1424 57.5019 81.0352 58.2935V58.2742C81.5056 61.438 81.9194 64.2184 82.2201 66.2237C82.3601 67.2112 82.4732 68.0083 82.5536 68.5683C82.5893 68.8358 82.6161 69.0455 82.6369 69.1999C82.6429 69.2661 82.6489 69.3185 82.6548 69.3627C82.6578 69.3985 82.6578 69.4178 82.6548 69.4178L82.6518 69.4206Z" fill="#263238"/>
<path id="Vector_131" d="M89.58 112.02C89.5383 112.025 88.4843 105.378 87.225 97.1746C85.9656 88.9686 84.9801 82.3156 85.0218 82.3101C85.0635 82.3045 86.1174 88.9493 87.3768 97.1553C88.6362 105.359 89.6217 112.014 89.577 112.02H89.58Z" fill="#263238"/>
</g>
<g id="Group_24">
<path id="Vector_132" d="M65.0029 75.8392L71.0289 74.2339L74.7713 82.3102L66.3844 82.0675L65.0029 76.1675" fill="#9D6054"/>
<path id="Vector_133" d="M71.0283 74.2338L75.9259 84.7981C75.9259 84.7981 100.411 78.3243 102.159 76.5066C103.906 74.6889 107.616 58.2907 108.244 55.1159C108.872 51.941 109.572 39.0266 106.636 36.9606C103.698 34.8946 100.831 35.347 98.0321 38.1991C95.7664 40.5106 92.0716 53.7257 90.7527 58.6631C90.4282 59.8795 90.3418 61.1373 90.4967 62.3813L90.7557 64.4473C90.7557 64.4473 88.4483 66.3919 88.3084 68.2068L71.0283 74.2338Z" fill="#E0E0E0"/>
<path id="Vector_134" d="M94.7786 45.2466C94.7786 45.2466 94.7488 45.3625 94.6863 45.5859C94.6208 45.8121 94.5225 46.1431 94.3975 46.5761C94.1385 47.4505 93.7603 48.7304 93.2721 50.3771C92.7808 52.0266 92.1824 54.0401 91.4887 56.3737C91.316 56.9584 91.1344 57.5597 90.9498 58.1831C90.7474 58.8037 90.6074 59.452 90.533 60.1333C90.4615 60.8118 90.4556 61.5179 90.5389 62.2323C90.6283 62.9495 90.7235 63.686 90.8188 64.4418V64.4693L90.8009 64.4886C90.2561 64.9713 89.7351 65.5203 89.2855 66.1354C88.8419 66.7477 88.4519 67.4456 88.3745 68.2124V68.251L88.3328 68.2648C83.1732 70.0687 77.3407 72.1071 71.0587 74.3027L71.1004 74.2117C72.6634 77.5824 74.3069 81.1241 76.0009 84.7761L75.9087 84.7347C77.9272 84.1968 80.0649 83.6148 82.2234 83.0163C86.4303 81.844 90.5241 80.6689 94.4451 79.4387C96.4012 78.8181 98.3245 78.1947 100.153 77.4693C100.611 77.29 101.055 77.0942 101.483 76.8762C101.692 76.7604 101.903 76.6473 102.07 76.4984C102.156 76.4266 102.216 76.3301 102.284 76.2418C102.344 76.1453 102.403 76.0488 102.46 75.9522C102.886 75.1495 103.189 74.3 103.481 73.4642C104.053 71.7844 104.529 70.1239 104.973 68.5075C105.416 66.8884 105.821 65.3134 106.199 63.7853C106.953 60.7291 107.617 57.8742 108.164 55.2593C108.676 52.6389 108.971 50.2392 109.147 48.1291C109.317 46.0189 109.34 44.1902 109.215 42.7062C109.09 41.2222 108.81 40.0803 108.432 39.3769C108.078 38.6542 107.646 38.4418 107.673 38.4253C107.673 38.4253 107.759 38.4915 107.923 38.6239C107.998 38.6956 108.081 38.7977 108.182 38.9135C108.26 39.0432 108.379 39.1811 108.462 39.3631C108.852 40.0665 109.141 41.214 109.275 42.7007C109.409 44.1902 109.394 46.0189 109.233 48.1346C109.066 50.2474 108.781 52.6499 108.272 55.2759C107.733 57.8963 107.075 60.7539 106.324 63.8101C105.946 65.3382 105.547 66.9187 105.104 68.5379C104.66 70.157 104.187 71.8202 103.615 73.5056C103.323 74.3469 103.02 75.1964 102.588 76.0157C102.531 76.1177 102.466 76.217 102.406 76.3163C102.332 76.4101 102.266 76.5149 102.174 76.5949C101.987 76.7632 101.769 76.879 101.555 76.9976C101.12 77.2183 100.671 77.4169 100.209 77.5989C98.3751 78.3299 96.4518 78.9533 94.4928 79.5766C90.5687 80.8124 86.472 81.9874 82.2651 83.1597C80.1036 83.761 77.9689 84.343 75.9474 84.8781L75.8819 84.8947L75.8551 84.8368C74.164 81.1847 72.5235 77.6431 70.9604 74.2724L70.9307 74.2062L71.0021 74.1814C77.2871 71.994 83.1226 69.9611 88.2851 68.1627L88.2435 68.2124C88.3268 67.4097 88.7288 66.7008 89.1783 66.0802C89.6338 65.4568 90.1608 64.9079 90.7146 64.4169L90.6967 64.4638C90.6044 63.708 90.5121 62.9716 90.4228 62.2544C90.3424 61.5317 90.3484 60.8201 90.4228 60.136C90.4973 59.452 90.6431 58.79 90.8486 58.1721C91.0361 57.5487 91.2178 56.9474 91.3934 56.3626C92.099 54.0319 92.7064 52.021 93.2036 50.3743C93.7038 48.7304 94.0938 47.4533 94.3588 46.5816C94.4927 46.1513 94.594 45.8203 94.6625 45.5942C94.7309 45.3707 94.7726 45.2576 94.7726 45.2576L94.7786 45.2466Z" fill="#263238"/>
<path id="Vector_135" d="M91.4885 70.626C91.4439 70.6536 91.039 69.8178 90.113 69.1392C89.199 68.4497 88.2314 68.2621 88.2493 68.2152C88.2522 68.1986 88.4964 68.2235 88.8685 68.3393C89.2407 68.4552 89.7379 68.6786 90.2083 69.0261C90.6787 69.3764 91.0211 69.7792 91.2236 70.0909C91.426 70.4025 91.5034 70.6177 91.4885 70.626Z" fill="#263238"/>
<path id="Vector_136" d="M96.9786 66.3395C96.9547 66.3561 96.7314 66.0306 96.2551 65.6114C95.7847 65.1921 95.0255 64.6956 94.0668 64.4308C93.1081 64.166 92.1792 64.1963 91.5361 64.3067C90.89 64.417 90.5119 64.5742 90.503 64.5494C90.5 64.5411 90.5893 64.4942 90.762 64.4253C90.9347 64.3563 91.1908 64.2763 91.5183 64.2074C92.1673 64.0694 93.123 64.0198 94.1144 64.2929C95.1029 64.5659 95.877 65.0928 96.3355 65.5396C96.5677 65.7631 96.7344 65.9617 96.8386 66.1051C96.9428 66.2485 96.9905 66.334 96.9815 66.3395H96.9786Z" fill="#263238"/>
<g id="Group_25">
<g id="Group_26">
<path id="Vector_137" d="M70.5584 85.6975C67.2298 85.6975 62.618 84.63 56.8451 82.5226C52.5727 80.9614 49.2144 79.3809 49.1816 79.3644L49.7235 78.3824C49.8545 78.4458 62.9485 84.5969 70.5584 84.5969C73.5655 84.5969 75.8937 83.2508 77.4746 80.5973C78.6923 78.5562 78.993 76.4736 78.996 76.4516C79.0764 76.0103 80.8717 66.0886 81.488 63.4406C81.8095 62.0587 82.6699 59.7941 83.5006 57.604C84.2598 55.6015 85.0488 53.53 85.2066 52.6445C85.5311 50.8461 85.2959 46.91 85.2929 46.8686L86.4808 46.8052C86.4898 46.9707 86.725 50.904 86.3796 52.8238C86.2039 53.803 85.4358 55.8249 84.623 57.9681C83.8043 60.1279 82.9557 62.3593 82.6521 63.6723C82.0417 66.2955 80.1928 76.5095 80.175 76.6116C80.1661 76.6805 78.8322 85.6975 70.5584 85.6975Z" fill="#FF725E"/>
<g id="Group_27" opacity="0.4">
<path id="Vector_138" d="M70.5584 85.6975C67.2298 85.6975 62.618 84.63 56.8451 82.5226C52.5727 80.9614 49.2144 79.3809 49.1816 79.3644L49.7235 78.3824C49.8545 78.4458 62.9485 84.5969 70.5584 84.5969C73.5655 84.5969 75.8937 83.2508 77.4746 80.5973C78.6923 78.5562 78.993 76.4736 78.996 76.4516C79.0764 76.0103 80.8717 66.0886 81.488 63.4406C81.8095 62.0587 82.6699 59.7941 83.5006 57.604C84.2598 55.6015 85.0488 53.53 85.2066 52.6445C85.5311 50.8461 85.2959 46.91 85.2929 46.8686L86.4808 46.8052C86.4898 46.9707 86.725 50.904 86.3796 52.8238C86.2039 53.803 85.4358 55.8249 84.623 57.9681C83.8043 60.1279 82.9557 62.3593 82.6521 63.6723C82.0417 66.2955 80.1928 76.5095 80.175 76.6116C80.1661 76.6805 78.8322 85.6975 70.5584 85.6975Z" fill="black"/>
</g>
<g id="Group_28">
<path id="Vector_139" d="M85.0962 47.2107C84.334 47.2107 83.6135 46.9514 83.1014 46.4825C81.0501 44.5985 78.8618 36.7732 78.7695 36.4422L79.3471 36.3043C79.368 36.3843 81.586 44.3117 83.5212 46.0908C84.0065 46.5376 84.7449 46.739 85.4922 46.6314C86.4628 46.4907 87.3292 45.8563 87.871 44.8882C89.4549 42.0609 93.772 22.7554 93.8137 22.5596L94.3972 22.6699C94.2186 23.4671 90.0206 42.2457 88.398 45.1392C87.7668 46.2618 86.7427 47.0038 85.5815 47.172C85.4178 47.1969 85.254 47.2079 85.0932 47.2079L85.0962 47.2107Z" fill="#E0E0E0"/>
<path id="Vector_140" d="M93.5908 24.1512C93.6325 23.3761 93.427 22.7472 93.2871 21.9832C93.2275 21.6605 93.3377 21.1116 93.6295 20.924C93.9302 20.7337 94.3708 20.9626 94.4929 21.2826C94.615 21.5998 94.6001 22.0853 94.5495 22.419C94.4155 23.3375 94.1356 23.6051 93.9748 24.1512" fill="#E0E0E0"/>
<path id="Vector_141" d="M85.3909 47.365C85.3284 47.365 85.2688 47.365 85.2063 47.3623C83.8576 47.3016 82.6875 46.601 82.0772 45.4866C81.3239 44.1075 80.3414 42.2484 79.9365 41.2305L81.056 40.8499C81.3537 41.6057 82.095 43.0731 83.1401 44.9874C83.5539 45.7431 84.3459 46.2203 85.2629 46.259C86.1709 46.3003 86.9926 45.9031 87.472 45.1998L87.5047 45.1529C87.5286 45.1115 87.6298 44.8743 87.996 43.9061L88.0377 43.7958C88.252 43.2358 88.7046 41.9918 89.303 39.9231L90.4522 40.21C89.8419 42.3173 89.3804 43.5944 89.1571 44.1681L89.1184 44.273C88.6659 45.4646 88.5855 45.6301 88.523 45.7211L88.4753 45.7928C87.7965 46.7858 86.6503 47.3678 85.3879 47.3678L85.3909 47.365Z" fill="#FF725E"/>
<g id="Group_29" opacity="0.4">
<path id="Vector_142" d="M85.3909 47.365C85.3284 47.365 85.2688 47.365 85.2063 47.3623C83.8576 47.3016 82.6875 46.601 82.0772 45.4866C81.3239 44.1075 80.3414 42.2484 79.9365 41.2305L81.056 40.8499C81.3537 41.6057 82.095 43.0731 83.1401 44.9874C83.5539 45.7431 84.3459 46.2203 85.2629 46.259C86.1709 46.3003 86.9926 45.9031 87.472 45.1998L87.5047 45.1529C87.5286 45.1115 87.6298 44.8743 87.996 43.9061L88.0377 43.7958C88.252 43.2358 88.7046 41.9918 89.303 39.9231L90.4522 40.21C89.8419 42.3173 89.3804 43.5944 89.1571 44.1681L89.1184 44.273C88.6659 45.4646 88.5855 45.6301 88.523 45.7211L88.4753 45.7928C87.7965 46.7858 86.6503 47.3678 85.3879 47.3678L85.3909 47.365Z" fill="black"/>
</g>
</g>
</g>
<path id="Vector_143" d="M47.3087 80.542C48.9004 80.542 50.1907 79.3466 50.1907 77.872C50.1907 76.3973 48.9004 75.2019 47.3087 75.2019C45.7171 75.2019 44.4268 76.3973 44.4268 77.872C44.4268 79.3466 45.7171 80.542 47.3087 80.542Z" fill="#E0E0E0"/>
<path id="Vector_144" d="M47.4666 79.5465C48.3727 79.5465 49.1071 78.8661 49.1071 78.0267C49.1071 77.1873 48.3727 76.5068 47.4666 76.5068C46.5606 76.5068 45.8262 77.1873 45.8262 78.0267C45.8262 78.8661 46.5606 79.5465 47.4666 79.5465Z" fill="#263238"/>
</g>
<path id="Vector_145" d="M45.4928 80.5423C45.4928 80.5423 44.8586 79.1631 45.4928 78.6611C46.1269 78.1591 52.7246 76.5068 52.7246 76.5068C52.7246 76.5068 57.381 75.2601 57.8782 75.2022C58.3754 75.1442 64.4342 75.5221 64.4342 75.5221C64.4342 75.5221 67.8699 74.6422 68.3671 74.6422C68.8643 74.6422 68.1409 77.5743 68.0515 78.537C67.9622 79.4996 67.2834 80.0789 67.9146 80.5423C68.5487 81.0056 70.222 82.3103 70.222 82.3103C70.222 82.3103 68.4564 82.7655 67.2358 82.6386C66.0151 82.5117 65.1576 82.1366 65.1576 82.1366C65.1576 82.1366 62.6716 83.855 61.314 84.106C59.9563 84.357 55.4369 85.7389 54.5318 85.6148C53.6267 85.4879 52.9508 84.3598 52.9508 84.3598C52.9508 84.3598 50.8251 84.6522 50.4202 83.8578C50.0123 83.0634 49.8783 82.4345 49.8783 82.4345L50.7358 81.9324C50.7358 81.9324 49.6044 82.2248 49.1072 81.4718C48.61 80.7188 48.5653 80.1368 48.5653 80.1368C48.5653 80.1368 46.2609 80.7546 45.4928 80.5478V80.5423Z" fill="#455A64"/>
</g>
<path id="Vector_146" d="M79.4246 55.3476C79.4246 55.3476 79.4216 55.4055 79.3978 55.5075C79.371 55.6261 79.3353 55.7779 79.2906 55.9627C79.24 56.1585 79.1834 56.3985 79.1299 56.6826C79.0763 56.9639 78.9989 57.2839 78.9482 57.6397C78.8887 57.9955 78.8262 58.3845 78.7845 58.8065C78.7279 59.2258 78.7011 59.6781 78.6684 60.1525C78.6237 61.1042 78.6237 62.1496 78.7101 63.2446C78.8053 64.3397 78.978 65.374 79.1775 66.3091C79.2906 66.7725 79.3889 67.2166 79.5139 67.6248C79.6241 68.0358 79.7521 68.411 79.8682 68.7557C79.9754 69.1005 80.1034 69.4067 80.2047 69.677C80.3029 69.9473 80.4012 70.179 80.4815 70.3638C80.556 70.5404 80.6155 70.6838 80.6602 70.7969C80.6989 70.8962 80.7167 70.9514 80.7138 70.9514C80.7108 70.9514 80.681 70.9045 80.6334 70.8079C80.5798 70.6976 80.5113 70.5569 80.425 70.3832C80.3357 70.1983 80.2285 69.9722 80.1213 69.7019C80.0111 69.4343 79.8772 69.1309 79.761 68.7833C79.636 68.4413 79.505 68.0634 79.3859 67.6524C79.2549 67.2442 79.1507 66.8001 79.0316 66.3339C78.8202 65.3961 78.6446 64.3562 78.5493 63.2529C78.4629 62.1496 78.4659 61.0959 78.5195 60.1415C78.5582 59.6643 78.588 59.2092 78.6505 58.7899C78.6982 58.3679 78.7666 57.9762 78.8351 57.6204C78.8917 57.2618 78.975 56.9446 79.0376 56.6633C79.0971 56.3819 79.1656 56.142 79.2251 55.9461C79.2787 55.7641 79.3234 55.6151 79.3591 55.4965C79.3919 55.3945 79.4097 55.342 79.4157 55.342L79.4246 55.3476Z" fill="#263238"/>
</g>
</g>
</g>
<defs>
<clipPath id="clip0_3055_117333">
<rect width="140" height="118" fill="white"/>
</clipPath>
</defs>
</svg>
