<svg width="239" height="288" viewBox="0 0 239 288" fill="none" xmlns="http://www.w3.org/2000/svg">
<path d="M228.78 119.55C217.67 205.84 116.49 287.44 116.49 287.44C116.49 287.44 3.16953 190.28 0.119532 119.55C-2.78047 52.39 47.3995 0 116.69 0C185.98 0 237.36 52.87 228.78 119.55Z" fill="#F15A29"/>
<path d="M226.629 104.75C212.829 141.66 169.639 160.7 132.219 152.62C113.549 148.63 96.1994 141.07 79.5094 131.7C76.6294 130.08 74.0194 127.35 69.9094 128.39C73.3794 167.71 86.0294 206.85 93.5194 245.88C95.4494 254.11 94.0294 257.06 89.0594 257.86C104.829 273.49 116.469 283.5 116.469 283.5C116.469 283.5 146.459 257.7 175.419 224.23C180.199 218.38 182.049 216.25 186.069 211.47C190.939 205.41 195.659 199.19 200.089 192.9C200.579 192.2 201.009 191.46 201.379 190.68C204.879 183.28 232.199 131.04 226.629 104.75Z" fill="#F4EEC2" stroke="#F4EEC2" stroke-width="6.5159" stroke-miterlimit="10"/>
<path d="M93.5294 245.88C86.0294 206.85 73.3794 167.7 69.9094 128.39C74.0094 127.35 76.6294 130.08 79.5094 131.7C96.1994 141.07 113.539 148.63 132.219 152.62C169.639 160.71 212.839 141.65 226.639 104.75C222.909 80.64 184.979 83.31 172.359 66.38C140.269 23.36 109.839 6.59003 74.3194 21.39C39.1994 36.03 76.6494 192.26 51.8594 217.56C64.5594 232.79 77.8594 246.75 89.0694 257.86C94.0294 257.06 95.4494 254.11 93.5294 245.88Z" stroke="#F3EBB7" stroke-width="6.5159" stroke-miterlimit="10"/>
<path d="M146.16 190.29C140.51 190.14 137.21 193.72 137.06 199.31C137.71 204.97 138.31 210 145.14 210.13C152.33 210.27 153.65 204.62 154.25 199.53C154.89 194.17 151.28 190.43 146.16 190.29Z" fill="black" stroke="black" stroke-width="6.5159" stroke-miterlimit="10"/>
<path d="M111.129 91.63C121.86 91.63 130.559 82.9309 130.559 72.2C130.559 61.4691 121.86 52.77 111.129 52.77C100.399 52.77 91.6995 61.4691 91.6995 72.2C91.6995 82.9309 100.399 91.63 111.129 91.63Z" fill="#F4EEC2"/>
<path d="M233.7 107.93C223.98 112.17 230.309 116.81 219.319 116.81C212.579 116.81 215.389 111.64 205.999 107.93C199.719 105.45 212.199 92.6899 219.849 92.6899C227.499 92.6899 239.92 105.21 233.7 107.93Z" fill="#A7DACF" stroke="#F4EEC2" stroke-width="6.0569" stroke-miterlimit="10"/>
<path d="M147.225 214.222C154.045 213.734 159.143 207.327 158.612 199.913C158.081 192.499 152.123 186.884 145.303 187.372C138.484 187.86 133.386 194.266 133.917 201.681C134.447 209.095 140.406 214.71 147.225 214.222Z" fill="#A7DACF" stroke="#ABDCD1" stroke-width="2.3346" stroke-miterlimit="10"/>
<path d="M196.499 200.73C202.624 200.73 207.589 194.811 207.589 187.51C207.589 180.209 202.624 174.29 196.499 174.29C190.375 174.29 185.409 180.209 185.409 187.51C185.409 194.811 190.375 200.73 196.499 200.73Z" fill="#A7DACF"/>
<path d="M180.48 230.59C179.77 231.7 178.19 232.03 177.1 231.28C172.97 228.45 160.65 219.4 165.1 217.98C170.25 216.35 181.11 213.47 186.58 213.21C190.17 213.05 183.16 226.38 180.48 230.59Z" fill="#F4EEC2" stroke="#A7DACF" stroke-width="4.3439" stroke-miterlimit="10"/>
<path d="M161.439 227.68C141.629 227.68 141.559 228.07 131.439 226.2" stroke="#A7DACF" stroke-width="2.172" stroke-miterlimit="10" stroke-linecap="round"/>
<path d="M161.439 233.27C161.439 233.27 148.169 239.95 134.899 242.51" stroke="#A7DACF" stroke-width="2.172" stroke-miterlimit="10" stroke-linecap="round"/>
<path d="M163.62 242.09C163.62 242.09 142.8 253.93 143.59 254.67" stroke="#A7DACF" stroke-width="2.172" stroke-miterlimit="10"/>
<path d="M63.3594 44.6898C61.2694 51.1798 62.7194 134.82 62.7194 139.69C62.6694 184.97 62.0394 151.02 61.9694 196.3C61.9594 202.71 57.7794 215.43 53.8394 219.73C42.6594 205.8 27.0694 184.68 19.3894 170.19L19.3094 75.1698C19.3094 75.1698 15.3194 25.7798 35.6094 22.8498C38.7394 22.3998 53.2494 18.8498 63.3694 29.8098C63.3594 29.8198 65.1494 33.0198 63.3594 44.6898Z" stroke="#F3EBB7" stroke-width="6.5159" stroke-miterlimit="10"/>
</svg>
